<?xml version="1.0" encoding="utf-8" standalone="no"?>
<!DOCTYPE svg PUBLIC "-//W3C//DTD SVG 1.1//EN"
  "http://www.w3.org/Graphics/SVG/1.1/DTD/svg11.dtd">
<svg xmlns:xlink="http://www.w3.org/1999/xlink" width="712.70875pt" height="423.435937pt" viewBox="0 0 712.70875 423.435937" xmlns="http://www.w3.org/2000/svg" version="1.1">
 <metadata>
  <rdf:RDF xmlns:dc="http://purl.org/dc/elements/1.1/" xmlns:cc="http://creativecommons.org/ns#" xmlns:rdf="http://www.w3.org/1999/02/22-rdf-syntax-ns#">
   <cc:Work>
    <dc:type rdf:resource="http://purl.org/dc/dcmitype/StillImage"/>
    <dc:date>2026-01-18T00:07:20.753791</dc:date>
    <dc:format>image/svg+xml</dc:format>
    <dc:creator>
     <cc:Agent>
      <dc:title>Matplotlib v3.10.3, https://matplotlib.org/</dc:title>
     </cc:Agent>
    </dc:creator>
   </cc:Work>
  </rdf:RDF>
 </metadata>
 <defs>
  <style type="text/css">*{stroke-linejoin: round; stroke-linecap: butt}</style>
 </defs>
 <g id="figure_1">
  <g id="patch_1">
   <path d="M 0 423.435937 
L 712.70875 423.435937 
L 712.70875 0 
L 0 0 
z
" style="fill: #ffffff"/>
  </g>
  <g id="axes_1">
   <g id="patch_2">
    <path d="M 50.86875 377.8 
L 705.50875 377.8 
L 705.50875 7.2 
L 50.86875 7.2 
z
" style="fill: #ffffff"/>
   </g>
   <g id="matplotlib.axis_1">
    <g id="xtick_1">
     <g id="line2d_1">
      <path d="M 71.32625 377.8 
L 71.32625 7.2 
" clip-path="url(#p838fc1f47f)" style="fill: none; stroke: #cccccc; stroke-opacity: 0.3; stroke-width: 0.8; stroke-linecap: round"/>
     </g>
     <g id="text_1">
      <!-- 0 -->
      <g style="fill: #262626" transform="translate(68.545781 391.957812) scale(0.1 -0.1)">
       <defs>
        <path id="ArialMT-30" d="M 266 2259 
Q 266 3072 433 3567 
Q 600 4063 929 4331 
Q 1259 4600 1759 4600 
Q 2128 4600 2406 4451 
Q 2684 4303 2865 4023 
Q 3047 3744 3150 3342 
Q 3253 2941 3253 2259 
Q 3253 1453 3087 958 
Q 2922 463 2592 192 
Q 2263 -78 1759 -78 
Q 1097 -78 719 397 
Q 266 969 266 2259 
z
M 844 2259 
Q 844 1131 1108 757 
Q 1372 384 1759 384 
Q 2147 384 2411 759 
Q 2675 1134 2675 2259 
Q 2675 3391 2411 3762 
Q 2147 4134 1753 4134 
Q 1366 4134 1134 3806 
Q 844 3388 844 2259 
z
" transform="scale(0.015625)"/>
       </defs>
       <use xlink:href="#ArialMT-30"/>
      </g>
     </g>
    </g>
    <g id="xtick_2">
     <g id="line2d_2">
      <path d="M 207.709583 377.8 
L 207.709583 7.2 
" clip-path="url(#p838fc1f47f)" style="fill: none; stroke: #cccccc; stroke-opacity: 0.3; stroke-width: 0.8; stroke-linecap: round"/>
     </g>
     <g id="text_2">
      <!-- 2 -->
      <g style="fill: #262626" transform="translate(204.929115 391.957812) scale(0.1 -0.1)">
       <defs>
        <path id="ArialMT-32" d="M 3222 541 
L 3222 0 
L 194 0 
Q 188 203 259 391 
Q 375 700 629 1000 
Q 884 1300 1366 1694 
Q 2113 2306 2375 2664 
Q 2638 3022 2638 3341 
Q 2638 3675 2398 3904 
Q 2159 4134 1775 4134 
Q 1369 4134 1125 3890 
Q 881 3647 878 3216 
L 300 3275 
Q 359 3922 746 4261 
Q 1134 4600 1788 4600 
Q 2447 4600 2831 4234 
Q 3216 3869 3216 3328 
Q 3216 3053 3103 2787 
Q 2991 2522 2730 2228 
Q 2469 1934 1863 1422 
Q 1356 997 1212 845 
Q 1069 694 975 541 
L 3222 541 
z
" transform="scale(0.015625)"/>
       </defs>
       <use xlink:href="#ArialMT-32"/>
      </g>
     </g>
    </g>
    <g id="xtick_3">
     <g id="line2d_3">
      <path d="M 344.092917 377.8 
L 344.092917 7.2 
" clip-path="url(#p838fc1f47f)" style="fill: none; stroke: #cccccc; stroke-opacity: 0.3; stroke-width: 0.8; stroke-linecap: round"/>
     </g>
     <g id="text_3">
      <!-- 4 -->
      <g style="fill: #262626" transform="translate(341.312448 391.957812) scale(0.1 -0.1)">
       <defs>
        <path id="ArialMT-34" d="M 2069 0 
L 2069 1097 
L 81 1097 
L 81 1613 
L 2172 4581 
L 2631 4581 
L 2631 1613 
L 3250 1613 
L 3250 1097 
L 2631 1097 
L 2631 0 
L 2069 0 
z
M 2069 1613 
L 2069 3678 
L 634 1613 
L 2069 1613 
z
" transform="scale(0.015625)"/>
       </defs>
       <use xlink:href="#ArialMT-34"/>
      </g>
     </g>
    </g>
    <g id="xtick_4">
     <g id="line2d_4">
      <path d="M 480.47625 377.8 
L 480.47625 7.2 
" clip-path="url(#p838fc1f47f)" style="fill: none; stroke: #cccccc; stroke-opacity: 0.3; stroke-width: 0.8; stroke-linecap: round"/>
     </g>
     <g id="text_4">
      <!-- 6 -->
      <g style="fill: #262626" transform="translate(477.695781 391.957812) scale(0.1 -0.1)">
       <defs>
        <path id="ArialMT-36" d="M 3184 3459 
L 2625 3416 
Q 2550 3747 2413 3897 
Q 2184 4138 1850 4138 
Q 1581 4138 1378 3988 
Q 1113 3794 959 3422 
Q 806 3050 800 2363 
Q 1003 2672 1297 2822 
Q 1591 2972 1913 2972 
Q 2475 2972 2870 2558 
Q 3266 2144 3266 1488 
Q 3266 1056 3080 686 
Q 2894 316 2569 119 
Q 2244 -78 1831 -78 
Q 1128 -78 684 439 
Q 241 956 241 2144 
Q 241 3472 731 4075 
Q 1159 4600 1884 4600 
Q 2425 4600 2770 4297 
Q 3116 3994 3184 3459 
z
M 888 1484 
Q 888 1194 1011 928 
Q 1134 663 1356 523 
Q 1578 384 1822 384 
Q 2178 384 2434 671 
Q 2691 959 2691 1453 
Q 2691 1928 2437 2201 
Q 2184 2475 1800 2475 
Q 1419 2475 1153 2201 
Q 888 1928 888 1484 
z
" transform="scale(0.015625)"/>
       </defs>
       <use xlink:href="#ArialMT-36"/>
      </g>
     </g>
    </g>
    <g id="xtick_5">
     <g id="line2d_5">
      <path d="M 616.859583 377.8 
L 616.859583 7.2 
" clip-path="url(#p838fc1f47f)" style="fill: none; stroke: #cccccc; stroke-opacity: 0.3; stroke-width: 0.8; stroke-linecap: round"/>
     </g>
     <g id="text_5">
      <!-- 8 -->
      <g style="fill: #262626" transform="translate(614.079115 391.957812) scale(0.1 -0.1)">
       <defs>
        <path id="ArialMT-38" d="M 1131 2484 
Q 781 2613 612 2850 
Q 444 3088 444 3419 
Q 444 3919 803 4259 
Q 1163 4600 1759 4600 
Q 2359 4600 2725 4251 
Q 3091 3903 3091 3403 
Q 3091 3084 2923 2848 
Q 2756 2613 2416 2484 
Q 2838 2347 3058 2040 
Q 3278 1734 3278 1309 
Q 3278 722 2862 322 
Q 2447 -78 1769 -78 
Q 1091 -78 675 323 
Q 259 725 259 1325 
Q 259 1772 486 2073 
Q 713 2375 1131 2484 
z
M 1019 3438 
Q 1019 3113 1228 2906 
Q 1438 2700 1772 2700 
Q 2097 2700 2305 2904 
Q 2513 3109 2513 3406 
Q 2513 3716 2298 3927 
Q 2084 4138 1766 4138 
Q 1444 4138 1231 3931 
Q 1019 3725 1019 3438 
z
M 838 1322 
Q 838 1081 952 856 
Q 1066 631 1291 507 
Q 1516 384 1775 384 
Q 2178 384 2440 643 
Q 2703 903 2703 1303 
Q 2703 1709 2433 1975 
Q 2163 2241 1756 2241 
Q 1359 2241 1098 1978 
Q 838 1716 838 1322 
z
" transform="scale(0.015625)"/>
       </defs>
       <use xlink:href="#ArialMT-38"/>
      </g>
     </g>
    </g>
    <g id="text_6">
     <!-- Value -->
     <g style="fill: #262626" transform="translate(353.35125 412.260937) scale(0.2 -0.2)">
      <defs>
       <path id="ArialMT-56" d="M 1803 0 
L 28 4581 
L 684 4581 
L 1875 1253 
Q 2019 853 2116 503 
Q 2222 878 2363 1253 
L 3600 4581 
L 4219 4581 
L 2425 0 
L 1803 0 
z
" transform="scale(0.015625)"/>
       <path id="ArialMT-61" d="M 2588 409 
Q 2275 144 1986 34 
Q 1697 -75 1366 -75 
Q 819 -75 525 192 
Q 231 459 231 875 
Q 231 1119 342 1320 
Q 453 1522 633 1644 
Q 813 1766 1038 1828 
Q 1203 1872 1538 1913 
Q 2219 1994 2541 2106 
Q 2544 2222 2544 2253 
Q 2544 2597 2384 2738 
Q 2169 2928 1744 2928 
Q 1347 2928 1158 2789 
Q 969 2650 878 2297 
L 328 2372 
Q 403 2725 575 2942 
Q 747 3159 1072 3276 
Q 1397 3394 1825 3394 
Q 2250 3394 2515 3294 
Q 2781 3194 2906 3042 
Q 3031 2891 3081 2659 
Q 3109 2516 3109 2141 
L 3109 1391 
Q 3109 606 3145 398 
Q 3181 191 3288 0 
L 2700 0 
Q 2613 175 2588 409 
z
M 2541 1666 
Q 2234 1541 1622 1453 
Q 1275 1403 1131 1340 
Q 988 1278 909 1158 
Q 831 1038 831 891 
Q 831 666 1001 516 
Q 1172 366 1500 366 
Q 1825 366 2078 508 
Q 2331 650 2450 897 
Q 2541 1088 2541 1459 
L 2541 1666 
z
" transform="scale(0.015625)"/>
       <path id="ArialMT-6c" d="M 409 0 
L 409 4581 
L 972 4581 
L 972 0 
L 409 0 
z
" transform="scale(0.015625)"/>
       <path id="ArialMT-75" d="M 2597 0 
L 2597 488 
Q 2209 -75 1544 -75 
Q 1250 -75 995 37 
Q 741 150 617 320 
Q 494 491 444 738 
Q 409 903 409 1263 
L 409 3319 
L 972 3319 
L 972 1478 
Q 972 1038 1006 884 
Q 1059 663 1231 536 
Q 1403 409 1656 409 
Q 1909 409 2131 539 
Q 2353 669 2445 892 
Q 2538 1116 2538 1541 
L 2538 3319 
L 3100 3319 
L 3100 0 
L 2597 0 
z
" transform="scale(0.015625)"/>
       <path id="ArialMT-65" d="M 2694 1069 
L 3275 997 
Q 3138 488 2766 206 
Q 2394 -75 1816 -75 
Q 1088 -75 661 373 
Q 234 822 234 1631 
Q 234 2469 665 2931 
Q 1097 3394 1784 3394 
Q 2450 3394 2872 2941 
Q 3294 2488 3294 1666 
Q 3294 1616 3291 1516 
L 816 1516 
Q 847 969 1125 678 
Q 1403 388 1819 388 
Q 2128 388 2347 550 
Q 2566 713 2694 1069 
z
M 847 1978 
L 2700 1978 
Q 2663 2397 2488 2606 
Q 2219 2931 1791 2931 
Q 1403 2931 1139 2672 
Q 875 2413 847 1978 
z
" transform="scale(0.015625)"/>
      </defs>
      <use xlink:href="#ArialMT-56"/>
      <use xlink:href="#ArialMT-61" transform="translate(59.324219 0)"/>
      <use xlink:href="#ArialMT-6c" transform="translate(114.939453 0)"/>
      <use xlink:href="#ArialMT-75" transform="translate(137.15625 0)"/>
      <use xlink:href="#ArialMT-65" transform="translate(192.771484 0)"/>
     </g>
    </g>
   </g>
   <g id="matplotlib.axis_2">
    <g id="ytick_1">
     <g id="line2d_6">
      <path d="M 50.86875 360.954545 
L 705.50875 360.954545 
" clip-path="url(#p838fc1f47f)" style="fill: none; stroke: #cccccc; stroke-opacity: 0.3; stroke-width: 0.8; stroke-linecap: round"/>
     </g>
     <g id="text_7">
      <!-- 0.0 -->
      <g style="fill: #262626" transform="translate(29.96875 364.533452) scale(0.1 -0.1)">
       <defs>
        <path id="ArialMT-2e" d="M 581 0 
L 581 641 
L 1222 641 
L 1222 0 
L 581 0 
z
" transform="scale(0.015625)"/>
       </defs>
       <use xlink:href="#ArialMT-30"/>
       <use xlink:href="#ArialMT-2e" transform="translate(55.615234 0)"/>
       <use xlink:href="#ArialMT-30" transform="translate(83.398438 0)"/>
      </g>
     </g>
    </g>
    <g id="ytick_2">
     <g id="line2d_7">
      <path d="M 50.86875 293.572727 
L 705.50875 293.572727 
" clip-path="url(#p838fc1f47f)" style="fill: none; stroke: #cccccc; stroke-opacity: 0.3; stroke-width: 0.8; stroke-linecap: round"/>
     </g>
     <g id="text_8">
      <!-- 0.2 -->
      <g style="fill: #262626" transform="translate(29.96875 297.151634) scale(0.1 -0.1)">
       <use xlink:href="#ArialMT-30"/>
       <use xlink:href="#ArialMT-2e" transform="translate(55.615234 0)"/>
       <use xlink:href="#ArialMT-32" transform="translate(83.398438 0)"/>
      </g>
     </g>
    </g>
    <g id="ytick_3">
     <g id="line2d_8">
      <path d="M 50.86875 226.190909 
L 705.50875 226.190909 
" clip-path="url(#p838fc1f47f)" style="fill: none; stroke: #cccccc; stroke-opacity: 0.3; stroke-width: 0.8; stroke-linecap: round"/>
     </g>
     <g id="text_9">
      <!-- 0.4 -->
      <g style="fill: #262626" transform="translate(29.96875 229.769815) scale(0.1 -0.1)">
       <use xlink:href="#ArialMT-30"/>
       <use xlink:href="#ArialMT-2e" transform="translate(55.615234 0)"/>
       <use xlink:href="#ArialMT-34" transform="translate(83.398438 0)"/>
      </g>
     </g>
    </g>
    <g id="ytick_4">
     <g id="line2d_9">
      <path d="M 50.86875 158.809091 
L 705.50875 158.809091 
" clip-path="url(#p838fc1f47f)" style="fill: none; stroke: #cccccc; stroke-opacity: 0.3; stroke-width: 0.8; stroke-linecap: round"/>
     </g>
     <g id="text_10">
      <!-- 0.6 -->
      <g style="fill: #262626" transform="translate(29.96875 162.387997) scale(0.1 -0.1)">
       <use xlink:href="#ArialMT-30"/>
       <use xlink:href="#ArialMT-2e" transform="translate(55.615234 0)"/>
       <use xlink:href="#ArialMT-36" transform="translate(83.398438 0)"/>
      </g>
     </g>
    </g>
    <g id="ytick_5">
     <g id="line2d_10">
      <path d="M 50.86875 91.427273 
L 705.50875 91.427273 
" clip-path="url(#p838fc1f47f)" style="fill: none; stroke: #cccccc; stroke-opacity: 0.3; stroke-width: 0.8; stroke-linecap: round"/>
     </g>
     <g id="text_11">
      <!-- 0.8 -->
      <g style="fill: #262626" transform="translate(29.96875 95.006179) scale(0.1 -0.1)">
       <use xlink:href="#ArialMT-30"/>
       <use xlink:href="#ArialMT-2e" transform="translate(55.615234 0)"/>
       <use xlink:href="#ArialMT-38" transform="translate(83.398438 0)"/>
      </g>
     </g>
    </g>
    <g id="ytick_6">
     <g id="line2d_11">
      <path d="M 50.86875 24.045455 
L 705.50875 24.045455 
" clip-path="url(#p838fc1f47f)" style="fill: none; stroke: #cccccc; stroke-opacity: 0.3; stroke-width: 0.8; stroke-linecap: round"/>
     </g>
     <g id="text_12">
      <!-- 1.0 -->
      <g style="fill: #262626" transform="translate(29.96875 27.624361) scale(0.1 -0.1)">
       <defs>
        <path id="ArialMT-31" d="M 2384 0 
L 1822 0 
L 1822 3584 
Q 1619 3391 1289 3197 
Q 959 3003 697 2906 
L 697 3450 
Q 1169 3672 1522 3987 
Q 1875 4303 2022 4600 
L 2384 4600 
L 2384 0 
z
" transform="scale(0.015625)"/>
       </defs>
       <use xlink:href="#ArialMT-31"/>
       <use xlink:href="#ArialMT-2e" transform="translate(55.615234 0)"/>
       <use xlink:href="#ArialMT-30" transform="translate(83.398438 0)"/>
      </g>
     </g>
    </g>
    <g id="text_13">
     <!-- Cumulative Probability -->
     <g style="fill: #262626" transform="translate(21.759375 291.982812) rotate(-90) scale(0.2 -0.2)">
      <defs>
       <path id="ArialMT-43" d="M 3763 1606 
L 4369 1453 
Q 4178 706 3683 314 
Q 3188 -78 2472 -78 
Q 1731 -78 1267 223 
Q 803 525 561 1097 
Q 319 1669 319 2325 
Q 319 3041 592 3573 
Q 866 4106 1370 4382 
Q 1875 4659 2481 4659 
Q 3169 4659 3637 4309 
Q 4106 3959 4291 3325 
L 3694 3184 
Q 3534 3684 3231 3912 
Q 2928 4141 2469 4141 
Q 1941 4141 1586 3887 
Q 1231 3634 1087 3207 
Q 944 2781 944 2328 
Q 944 1744 1114 1308 
Q 1284 872 1643 656 
Q 2003 441 2422 441 
Q 2931 441 3284 734 
Q 3638 1028 3763 1606 
z
" transform="scale(0.015625)"/>
       <path id="ArialMT-6d" d="M 422 0 
L 422 3319 
L 925 3319 
L 925 2853 
Q 1081 3097 1340 3245 
Q 1600 3394 1931 3394 
Q 2300 3394 2536 3241 
Q 2772 3088 2869 2813 
Q 3263 3394 3894 3394 
Q 4388 3394 4653 3120 
Q 4919 2847 4919 2278 
L 4919 0 
L 4359 0 
L 4359 2091 
Q 4359 2428 4304 2576 
Q 4250 2725 4106 2815 
Q 3963 2906 3769 2906 
Q 3419 2906 3187 2673 
Q 2956 2441 2956 1928 
L 2956 0 
L 2394 0 
L 2394 2156 
Q 2394 2531 2256 2718 
Q 2119 2906 1806 2906 
Q 1569 2906 1367 2781 
Q 1166 2656 1075 2415 
Q 984 2175 984 1722 
L 984 0 
L 422 0 
z
" transform="scale(0.015625)"/>
       <path id="ArialMT-74" d="M 1650 503 
L 1731 6 
Q 1494 -44 1306 -44 
Q 1000 -44 831 53 
Q 663 150 594 308 
Q 525 466 525 972 
L 525 2881 
L 113 2881 
L 113 3319 
L 525 3319 
L 525 4141 
L 1084 4478 
L 1084 3319 
L 1650 3319 
L 1650 2881 
L 1084 2881 
L 1084 941 
Q 1084 700 1114 631 
Q 1144 563 1211 522 
Q 1278 481 1403 481 
Q 1497 481 1650 503 
z
" transform="scale(0.015625)"/>
       <path id="ArialMT-69" d="M 425 3934 
L 425 4581 
L 988 4581 
L 988 3934 
L 425 3934 
z
M 425 0 
L 425 3319 
L 988 3319 
L 988 0 
L 425 0 
z
" transform="scale(0.015625)"/>
       <path id="ArialMT-76" d="M 1344 0 
L 81 3319 
L 675 3319 
L 1388 1331 
Q 1503 1009 1600 663 
Q 1675 925 1809 1294 
L 2547 3319 
L 3125 3319 
L 1869 0 
L 1344 0 
z
" transform="scale(0.015625)"/>
       <path id="ArialMT-20" transform="scale(0.015625)"/>
       <path id="ArialMT-50" d="M 494 0 
L 494 4581 
L 2222 4581 
Q 2678 4581 2919 4538 
Q 3256 4481 3484 4323 
Q 3713 4166 3852 3881 
Q 3991 3597 3991 3256 
Q 3991 2672 3619 2267 
Q 3247 1863 2275 1863 
L 1100 1863 
L 1100 0 
L 494 0 
z
M 1100 2403 
L 2284 2403 
Q 2872 2403 3119 2622 
Q 3366 2841 3366 3238 
Q 3366 3525 3220 3729 
Q 3075 3934 2838 4000 
Q 2684 4041 2272 4041 
L 1100 4041 
L 1100 2403 
z
" transform="scale(0.015625)"/>
       <path id="ArialMT-72" d="M 416 0 
L 416 3319 
L 922 3319 
L 922 2816 
Q 1116 3169 1280 3281 
Q 1444 3394 1641 3394 
Q 1925 3394 2219 3213 
L 2025 2691 
Q 1819 2813 1613 2813 
Q 1428 2813 1281 2702 
Q 1134 2591 1072 2394 
Q 978 2094 978 1738 
L 978 0 
L 416 0 
z
" transform="scale(0.015625)"/>
       <path id="ArialMT-6f" d="M 213 1659 
Q 213 2581 725 3025 
Q 1153 3394 1769 3394 
Q 2453 3394 2887 2945 
Q 3322 2497 3322 1706 
Q 3322 1066 3130 698 
Q 2938 331 2570 128 
Q 2203 -75 1769 -75 
Q 1072 -75 642 372 
Q 213 819 213 1659 
z
M 791 1659 
Q 791 1022 1069 705 
Q 1347 388 1769 388 
Q 2188 388 2466 706 
Q 2744 1025 2744 1678 
Q 2744 2294 2464 2611 
Q 2184 2928 1769 2928 
Q 1347 2928 1069 2612 
Q 791 2297 791 1659 
z
" transform="scale(0.015625)"/>
       <path id="ArialMT-62" d="M 941 0 
L 419 0 
L 419 4581 
L 981 4581 
L 981 2947 
Q 1338 3394 1891 3394 
Q 2197 3394 2470 3270 
Q 2744 3147 2920 2923 
Q 3097 2700 3197 2384 
Q 3297 2069 3297 1709 
Q 3297 856 2875 390 
Q 2453 -75 1863 -75 
Q 1275 -75 941 416 
L 941 0 
z
M 934 1684 
Q 934 1088 1097 822 
Q 1363 388 1816 388 
Q 2184 388 2453 708 
Q 2722 1028 2722 1663 
Q 2722 2313 2464 2622 
Q 2206 2931 1841 2931 
Q 1472 2931 1203 2611 
Q 934 2291 934 1684 
z
" transform="scale(0.015625)"/>
       <path id="ArialMT-79" d="M 397 -1278 
L 334 -750 
Q 519 -800 656 -800 
Q 844 -800 956 -737 
Q 1069 -675 1141 -563 
Q 1194 -478 1313 -144 
Q 1328 -97 1363 -6 
L 103 3319 
L 709 3319 
L 1400 1397 
Q 1534 1031 1641 628 
Q 1738 1016 1872 1384 
L 2581 3319 
L 3144 3319 
L 1881 -56 
Q 1678 -603 1566 -809 
Q 1416 -1088 1222 -1217 
Q 1028 -1347 759 -1347 
Q 597 -1347 397 -1278 
z
" transform="scale(0.015625)"/>
      </defs>
      <use xlink:href="#ArialMT-43"/>
      <use xlink:href="#ArialMT-75" transform="translate(72.216797 0)"/>
      <use xlink:href="#ArialMT-6d" transform="translate(127.832031 0)"/>
      <use xlink:href="#ArialMT-75" transform="translate(211.132812 0)"/>
      <use xlink:href="#ArialMT-6c" transform="translate(266.748047 0)"/>
      <use xlink:href="#ArialMT-61" transform="translate(288.964844 0)"/>
      <use xlink:href="#ArialMT-74" transform="translate(344.580078 0)"/>
      <use xlink:href="#ArialMT-69" transform="translate(372.363281 0)"/>
      <use xlink:href="#ArialMT-76" transform="translate(394.580078 0)"/>
      <use xlink:href="#ArialMT-65" transform="translate(444.580078 0)"/>
      <use xlink:href="#ArialMT-20" transform="translate(500.195312 0)"/>
      <use xlink:href="#ArialMT-50" transform="translate(527.978516 0)"/>
      <use xlink:href="#ArialMT-72" transform="translate(594.677734 0)"/>
      <use xlink:href="#ArialMT-6f" transform="translate(627.978516 0)"/>
      <use xlink:href="#ArialMT-62" transform="translate(683.59375 0)"/>
      <use xlink:href="#ArialMT-61" transform="translate(739.208984 0)"/>
      <use xlink:href="#ArialMT-62" transform="translate(794.824219 0)"/>
      <use xlink:href="#ArialMT-69" transform="translate(850.439453 0)"/>
      <use xlink:href="#ArialMT-6c" transform="translate(872.65625 0)"/>
      <use xlink:href="#ArialMT-69" transform="translate(894.873047 0)"/>
      <use xlink:href="#ArialMT-74" transform="translate(917.089844 0)"/>
      <use xlink:href="#ArialMT-79" transform="translate(944.873047 0)"/>
     </g>
    </g>
   </g>
   <g id="FillBetweenPolyCollection_1">
    <defs>
     <path id="m3e35bc9eac" d="M 50.86875 -62.492062 
L 50.86875 -62.481392 
L 51.524045 -62.481392 
L 52.179341 -62.481392 
L 52.834636 -62.481392 
L 53.489931 -62.481392 
L 54.145226 -62.481392 
L 54.800522 -62.481392 
L 55.455817 -62.481392 
L 56.111112 -62.481392 
L 56.766408 -62.481392 
L 57.421703 -62.481392 
L 58.076998 -62.481392 
L 58.732294 -62.481392 
L 59.387589 -62.481392 
L 60.042884 -62.481392 
L 60.698179 -62.481392 
L 61.353475 -62.481392 
L 62.00877 -62.481392 
L 62.664065 -62.481392 
L 63.319361 -62.481392 
L 63.974656 -62.481392 
L 64.629951 -62.481392 
L 65.285246 -62.481392 
L 65.940542 -62.481392 
L 66.595837 -62.481392 
L 67.251132 -62.481392 
L 67.906428 -62.481392 
L 68.561723 -62.481392 
L 69.217018 -62.481392 
L 69.872314 -62.481392 
L 70.527609 -62.481392 
L 71.182904 -62.481392 
L 71.838199 -62.481392 
L 72.493495 -62.481392 
L 73.14879 -62.481392 
L 73.804085 -62.481392 
L 74.459381 -62.481392 
L 75.114676 -62.481392 
L 75.769971 -62.481392 
L 76.425267 -62.481392 
L 77.080562 -62.481392 
L 77.735857 -62.481392 
L 78.391152 -62.481392 
L 79.046448 -62.481392 
L 79.701743 -62.481392 
L 80.357038 -62.481392 
L 81.012334 -62.481392 
L 81.667629 -62.481392 
L 82.322924 -62.481392 
L 82.978219 -62.481392 
L 83.633515 -62.481392 
L 84.28881 -62.481392 
L 84.944105 -62.481392 
L 85.599401 -62.481392 
L 86.254696 -62.481392 
L 86.909991 -62.481392 
L 87.565287 -62.481392 
L 88.220582 -62.481392 
L 88.875877 -62.481392 
L 89.531172 -62.481392 
L 90.186468 -62.481392 
L 90.841763 -62.481392 
L 91.497058 -62.481392 
L 92.152354 -62.481392 
L 92.807649 -62.481392 
L 93.462944 -62.481392 
L 94.118239 -62.481392 
L 94.773535 -62.481392 
L 95.42883 -62.481392 
L 96.084125 -62.481392 
L 96.739421 -62.481392 
L 97.394716 -62.481392 
L 98.050011 -62.481392 
L 98.705307 -62.481392 
L 99.360602 -62.481392 
L 100.015897 -62.481392 
L 100.671192 -62.481392 
L 101.326488 -62.481392 
L 101.981783 -62.481392 
L 102.637078 -62.481392 
L 103.292374 -62.481392 
L 103.947669 -62.481392 
L 104.602964 -62.481392 
L 105.25826 -62.481392 
L 105.913555 -62.481392 
L 106.56885 -62.481392 
L 107.224145 -62.481392 
L 107.879441 -62.481392 
L 108.534736 -62.481392 
L 109.190031 -62.481392 
L 109.845327 -62.481392 
L 110.500622 -62.481392 
L 111.155917 -62.481392 
L 111.811212 -62.481392 
L 112.466508 -62.481392 
L 113.121803 -62.481392 
L 113.777098 -62.481392 
L 114.432394 -62.481392 
L 115.087689 -62.481392 
L 115.742984 -62.481392 
L 116.39828 -62.481392 
L 117.053575 -62.481392 
L 117.70887 -62.481392 
L 118.364165 -62.481392 
L 119.019461 -62.481392 
L 119.674756 -62.481392 
L 120.330051 -62.481392 
L 120.985347 -62.481392 
L 121.640642 -62.481392 
L 122.295937 -62.481392 
L 122.951232 -62.481392 
L 123.606528 -62.481392 
L 124.261823 -62.481392 
L 124.917118 -62.481392 
L 125.572414 -62.481392 
L 126.227709 -62.481392 
L 126.883004 -62.481392 
L 127.5383 -62.481392 
L 128.193595 -62.481392 
L 128.84889 -62.481392 
L 129.504185 -62.481392 
L 130.159481 -62.481392 
L 130.814776 -62.481392 
L 131.470071 -62.481392 
L 132.125367 -62.481392 
L 132.780662 -62.481392 
L 133.435957 -62.481392 
L 134.091253 -62.481392 
L 134.746548 -62.481392 
L 135.401843 -62.481392 
L 136.057138 -62.481392 
L 136.712434 -62.481392 
L 137.367729 -62.481392 
L 138.023024 -62.481392 
L 138.67832 -62.481392 
L 139.333615 -62.481392 
L 139.98891 -62.481392 
L 140.644205 -62.481392 
L 141.299501 -62.481392 
L 141.954796 -62.481392 
L 142.610091 -62.481392 
L 143.265387 -62.481392 
L 143.920682 -62.481392 
L 144.575977 -62.481392 
L 145.231273 -62.481392 
L 145.886568 -62.481392 
L 146.541863 -62.481392 
L 147.197158 -62.481392 
L 147.852454 -62.481392 
L 148.507749 -62.481392 
L 149.163044 -62.481392 
L 149.81834 -62.481392 
L 150.473635 -62.481392 
L 151.12893 -62.481392 
L 151.784225 -62.481392 
L 152.439521 -62.481392 
L 153.094816 -62.481392 
L 153.750111 -62.481392 
L 154.405407 -62.481392 
L 155.060702 -62.481392 
L 155.715997 -62.481392 
L 156.371293 -62.481392 
L 157.026588 -62.481392 
L 157.681883 -62.481392 
L 158.337178 -62.481392 
L 158.992474 -62.481392 
L 159.647769 -62.481392 
L 160.303064 -62.481392 
L 160.95836 -62.481392 
L 161.613655 -62.481392 
L 162.26895 -62.481392 
L 162.924245 -62.481392 
L 163.579541 -62.481392 
L 164.234836 -62.481392 
L 164.890131 -62.481392 
L 165.545427 -62.481392 
L 166.200722 -62.481392 
L 166.856017 -62.481392 
L 167.511313 -62.481392 
L 168.166608 -62.481392 
L 168.821903 -62.481392 
L 169.477198 -62.481392 
L 170.132494 -62.481392 
L 170.787789 -62.481392 
L 171.443084 -62.481392 
L 172.09838 -62.481392 
L 172.753675 -62.481392 
L 173.40897 -62.481392 
L 174.064266 -62.481392 
L 174.719561 -62.481392 
L 175.374856 -62.481392 
L 176.030151 -62.481392 
L 176.685447 -62.481392 
L 177.340742 -62.481392 
L 177.996037 -62.481392 
L 178.651333 -62.481392 
L 179.306628 -62.481392 
L 179.961923 -62.481392 
L 180.617218 -62.481392 
L 181.272514 -62.481392 
L 181.927809 -62.481392 
L 182.583104 -62.481392 
L 183.2384 -62.481392 
L 183.893695 -62.481392 
L 184.54899 -62.481392 
L 185.204286 -62.481392 
L 185.859581 -62.481392 
L 186.514876 -62.481392 
L 187.170171 -62.481392 
L 187.825467 -62.481392 
L 188.480762 -62.481392 
L 189.136057 -62.481392 
L 189.791353 -62.481392 
L 190.446648 -62.481392 
L 191.101943 -62.481392 
L 191.757238 -62.481392 
L 192.412534 -62.481392 
L 193.067829 -62.481392 
L 193.723124 -62.481392 
L 194.37842 -62.481392 
L 195.033715 -62.481392 
L 195.68901 -62.481392 
L 196.344306 -62.481392 
L 196.999601 -62.481392 
L 197.654896 -62.481392 
L 198.310191 -62.481392 
L 198.965487 -62.481392 
L 199.620782 -62.481392 
L 200.276077 -62.481392 
L 200.931373 -62.481392 
L 201.586668 -62.481392 
L 202.241963 -62.481392 
L 202.897259 -62.481392 
L 203.552554 -62.481392 
L 204.207849 -62.481392 
L 204.863144 -62.481392 
L 205.51844 -62.481392 
L 206.173735 -62.481392 
L 206.82903 -62.481392 
L 207.484326 -62.481392 
L 208.139621 -62.481392 
L 208.794916 -62.481392 
L 209.450211 -62.481392 
L 210.105507 -62.481392 
L 210.760802 -62.481392 
L 211.416097 -62.481392 
L 212.071393 -62.481392 
L 212.726688 -62.481392 
L 213.381983 -62.481392 
L 214.037279 -62.481392 
L 214.692574 -62.481392 
L 215.347869 -62.481392 
L 216.003164 -62.481392 
L 216.65846 -62.481392 
L 217.313755 -62.481392 
L 217.96905 -62.481392 
L 218.624346 -62.481392 
L 219.279641 -62.481392 
L 219.934936 -62.481392 
L 220.590231 -62.481392 
L 221.245527 -62.481392 
L 221.900822 -62.481392 
L 222.556117 -62.481392 
L 223.211413 -62.481392 
L 223.866708 -62.481392 
L 224.522003 -62.481392 
L 225.177299 -62.481392 
L 225.832594 -62.481392 
L 226.487889 -62.481392 
L 227.143184 -62.481392 
L 227.79848 -62.481392 
L 228.453775 -62.481392 
L 229.10907 -62.481392 
L 229.764366 -62.481392 
L 230.419661 -62.481392 
L 231.074956 -62.481392 
L 231.730252 -62.481392 
L 232.385547 -62.481392 
L 233.040842 -62.481392 
L 233.696137 -62.481392 
L 234.351433 -62.481392 
L 235.006728 -62.481392 
L 235.662023 -62.481392 
L 236.317319 -62.481392 
L 236.972614 -62.481392 
L 237.627909 -62.481392 
L 238.283204 -62.481392 
L 238.9385 -62.481392 
L 239.593795 -62.481392 
L 240.24909 -62.481392 
L 240.904386 -62.481392 
L 241.559681 -62.481392 
L 242.214976 -62.481392 
L 242.870272 -62.481392 
L 243.525567 -62.481392 
L 244.180862 -62.481392 
L 244.836157 -62.481392 
L 245.491453 -62.481392 
L 246.146748 -62.481392 
L 246.802043 -62.481392 
L 247.457339 -62.481392 
L 248.112634 -62.481392 
L 248.767929 -62.481392 
L 249.423224 -62.481392 
L 250.07852 -62.481392 
L 250.733815 -62.481392 
L 251.38911 -62.481392 
L 252.044406 -62.481392 
L 252.699701 -62.481392 
L 253.354996 -62.481392 
L 254.010292 -62.481392 
L 254.665587 -62.481392 
L 255.320882 -62.481392 
L 255.976177 -62.481392 
L 256.631473 -62.481392 
L 257.286768 -62.481392 
L 257.942063 -62.481392 
L 258.597359 -62.481392 
L 259.252654 -62.481392 
L 259.907949 -62.481392 
L 260.563244 -62.481392 
L 261.21854 -62.481392 
L 261.873835 -62.481392 
L 262.52913 -62.481392 
L 263.184426 -62.481392 
L 263.839721 -62.481392 
L 264.495016 -62.481392 
L 265.150312 -62.481392 
L 265.805607 -62.481392 
L 266.460902 -62.481392 
L 267.116197 -62.481392 
L 267.771493 -62.481392 
L 268.426788 -62.481392 
L 269.082083 -62.481392 
L 269.737379 -62.481392 
L 270.392674 -62.481392 
L 271.047969 -62.481392 
L 271.703265 -62.481392 
L 272.35856 -62.481392 
L 273.013855 -62.481392 
L 273.66915 -62.481392 
L 274.324446 -62.481392 
L 274.979741 -62.481392 
L 275.635036 -62.481392 
L 276.290332 -62.481392 
L 276.945627 -62.481392 
L 277.600922 -62.481392 
L 278.256217 -62.481392 
L 278.911513 -62.481392 
L 279.566808 -62.481392 
L 280.222103 -62.481392 
L 280.877399 -62.481392 
L 281.532694 -62.481392 
L 282.187989 -62.481392 
L 282.843285 -62.481392 
L 283.49858 -62.481392 
L 284.153875 -62.481392 
L 284.80917 -62.481392 
L 285.464466 -62.481392 
L 286.119761 -62.481392 
L 286.775056 -62.481392 
L 287.430352 -62.481392 
L 288.085647 -62.481392 
L 288.740942 -62.481392 
L 289.396237 -62.481392 
L 290.051533 -62.481392 
L 290.706828 -62.481392 
L 291.362123 -62.481392 
L 292.017419 -62.481392 
L 292.672714 -62.481392 
L 293.328009 -62.481392 
L 293.983305 -62.481392 
L 294.6386 -62.481392 
L 295.293895 -62.481392 
L 295.94919 -62.481392 
L 296.604486 -62.481392 
L 297.259781 -62.481392 
L 297.915076 -62.481392 
L 298.570372 -62.481392 
L 299.225667 -62.481392 
L 299.880962 -62.481392 
L 300.536258 -62.481392 
L 301.191553 -62.481392 
L 301.846848 -62.481392 
L 302.502143 -62.481392 
L 303.157439 -62.481392 
L 303.812734 -62.481392 
L 304.468029 -62.481392 
L 305.123325 -62.481392 
L 305.77862 -62.481392 
L 306.433915 -62.481392 
L 307.08921 -62.481392 
L 307.744506 -62.481392 
L 308.399801 -62.481392 
L 309.055096 -62.481392 
L 309.710392 -62.481392 
L 310.365687 -62.481392 
L 311.020982 -62.481392 
L 311.676278 -62.481392 
L 312.331573 -62.481392 
L 312.986868 -62.481392 
L 313.642163 -62.481392 
L 314.297459 -62.481392 
L 314.952754 -62.481392 
L 315.608049 -62.481392 
L 316.263345 -62.481392 
L 316.91864 -62.481392 
L 317.573935 -62.481392 
L 318.22923 -62.481392 
L 318.884526 -62.481392 
L 319.539821 -62.481392 
L 320.195116 -62.481392 
L 320.850412 -62.481392 
L 321.505707 -62.481392 
L 322.161002 -62.481392 
L 322.816298 -62.481392 
L 323.471593 -62.481392 
L 324.126888 -62.481392 
L 324.782183 -62.481392 
L 325.437479 -62.481392 
L 326.092774 -62.481392 
L 326.748069 -62.481392 
L 327.403365 -62.481392 
L 328.05866 -62.481392 
L 328.713955 -62.481392 
L 329.369251 -62.481392 
L 330.024546 -62.481392 
L 330.679841 -62.481392 
L 331.335136 -62.481392 
L 331.990432 -62.481392 
L 332.645727 -62.481392 
L 333.301022 -62.481392 
L 333.956318 -62.481392 
L 334.611613 -62.481392 
L 335.266908 -62.481392 
L 335.922203 -62.481392 
L 336.577499 -62.481392 
L 337.232794 -62.481392 
L 337.888089 -62.481392 
L 338.543385 -62.481392 
L 339.19868 -62.481392 
L 339.853975 -62.481392 
L 340.509271 -62.481392 
L 341.164566 -62.481392 
L 341.819861 -62.481392 
L 342.475156 -62.481392 
L 343.130452 -62.481392 
L 343.785747 -62.481392 
L 344.441042 -62.481392 
L 345.096338 -62.481392 
L 345.751633 -62.481392 
L 346.406928 -62.481392 
L 347.062223 -62.481392 
L 347.717519 -62.481392 
L 348.372814 -62.481392 
L 349.028109 -62.481392 
L 349.683405 -62.481392 
L 350.3387 -62.481392 
L 350.993995 -62.481392 
L 351.649291 -62.481392 
L 352.304586 -62.481392 
L 352.959881 -62.481392 
L 353.615176 -62.481392 
L 354.270472 -62.481392 
L 354.925767 -62.481392 
L 355.581062 -62.481392 
L 356.236358 -62.481392 
L 356.891653 -62.481392 
L 357.546948 -62.481392 
L 358.202243 -62.481392 
L 358.857539 -62.481392 
L 359.512834 -62.481392 
L 360.168129 -62.481392 
L 360.823425 -62.481392 
L 361.47872 -62.481392 
L 362.134015 -62.481392 
L 362.789311 -62.481392 
L 363.444606 -62.481392 
L 364.099901 -62.481392 
L 364.755196 -62.481392 
L 365.410492 -62.481392 
L 366.065787 -62.481392 
L 366.721082 -62.481392 
L 367.376378 -62.481392 
L 368.031673 -62.481392 
L 368.686968 -62.481392 
L 369.342264 -62.481392 
L 369.997559 -62.481392 
L 370.652854 -62.481392 
L 371.308149 -62.481392 
L 371.963445 -62.481392 
L 372.61874 -62.481392 
L 373.274035 -62.481392 
L 373.929331 -62.481392 
L 374.584626 -62.481392 
L 375.239921 -62.481392 
L 375.895216 -62.481392 
L 376.550512 -62.481392 
L 377.205807 -62.481392 
L 377.861102 -62.481392 
L 378.516398 -62.481392 
L 379.171693 -62.481392 
L 379.826988 -62.481392 
L 380.482284 -62.481392 
L 381.137579 -62.481392 
L 381.792874 -62.481392 
L 382.448169 -62.481392 
L 383.103465 -62.481392 
L 383.75876 -62.481392 
L 384.414055 -62.481392 
L 385.069351 -62.481392 
L 385.724646 -62.481392 
L 386.379941 -62.481392 
L 387.035236 -62.481392 
L 387.690532 -62.481392 
L 388.345827 -62.481392 
L 389.001122 -62.481392 
L 389.656418 -62.481392 
L 390.311713 -62.481392 
L 390.967008 -62.481392 
L 391.622304 -62.481392 
L 392.277599 -62.481392 
L 392.932894 -62.481392 
L 393.588189 -62.481392 
L 394.243485 -62.481392 
L 394.89878 -62.481392 
L 395.554075 -62.481392 
L 396.209371 -62.481392 
L 396.864666 -62.481392 
L 397.519961 -62.481392 
L 398.175257 -62.481392 
L 398.830552 -62.481392 
L 399.485847 -62.481392 
L 400.141142 -62.481392 
L 400.796438 -62.481392 
L 401.451733 -62.481392 
L 402.107028 -62.481392 
L 402.762324 -62.481392 
L 403.417619 -62.481392 
L 404.072914 -62.481392 
L 404.728209 -62.481392 
L 405.383505 -62.481392 
L 406.0388 -62.481392 
L 406.694095 -62.481392 
L 407.349391 -62.481392 
L 408.004686 -62.481392 
L 408.659981 -62.481392 
L 409.315277 -62.481392 
L 409.970572 -62.481392 
L 410.625867 -62.481392 
L 411.281162 -62.481392 
L 411.936458 -62.481392 
L 412.591753 -399.390483 
L 413.247048 -399.390483 
L 413.902344 -399.390483 
L 414.557639 -399.390483 
L 415.212934 -399.390483 
L 415.868229 -399.390483 
L 416.523525 -399.390483 
L 417.17882 -399.390483 
L 417.834115 -399.390483 
L 418.489411 -399.390483 
L 419.144706 -399.390483 
L 419.800001 -399.390483 
L 420.455297 -399.390483 
L 421.110592 -399.390483 
L 421.765887 -399.390483 
L 422.421182 -399.390483 
L 423.076478 -399.390483 
L 423.731773 -399.390483 
L 424.387068 -399.390483 
L 425.042364 -399.390483 
L 425.697659 -399.390483 
L 426.352954 -399.390483 
L 427.008249 -399.390483 
L 427.663545 -399.390483 
L 428.31884 -399.390483 
L 428.974135 -399.390483 
L 429.629431 -399.390483 
L 430.284726 -399.390483 
L 430.940021 -399.390483 
L 431.595317 -399.390483 
L 432.250612 -399.390483 
L 432.905907 -399.390483 
L 433.561202 -399.390483 
L 434.216498 -399.390483 
L 434.871793 -399.390483 
L 435.527088 -399.390483 
L 436.182384 -399.390483 
L 436.837679 -399.390483 
L 437.492974 -399.390483 
L 438.14827 -399.390483 
L 438.803565 -399.390483 
L 439.45886 -399.390483 
L 440.114155 -399.390483 
L 440.769451 -399.390483 
L 441.424746 -399.390483 
L 442.080041 -399.390483 
L 442.735337 -399.390483 
L 443.390632 -399.390483 
L 444.045927 -399.390483 
L 444.701222 -399.390483 
L 445.356518 -399.390483 
L 446.011813 -399.390483 
L 446.667108 -399.390483 
L 447.322404 -399.390483 
L 447.977699 -399.390483 
L 448.632994 -399.390483 
L 449.28829 -399.390483 
L 449.943585 -399.390483 
L 450.59888 -399.390483 
L 451.254175 -399.390483 
L 451.909471 -399.390483 
L 452.564766 -399.390483 
L 453.220061 -399.390483 
L 453.875357 -399.390483 
L 454.530652 -399.390483 
L 455.185947 -399.390483 
L 455.841242 -399.390483 
L 456.496538 -399.390483 
L 457.151833 -399.390483 
L 457.807128 -399.390483 
L 458.462424 -399.390483 
L 459.117719 -399.390483 
L 459.773014 -399.390483 
L 460.42831 -399.390483 
L 461.083605 -399.390483 
L 461.7389 -399.390483 
L 462.394195 -399.390483 
L 463.049491 -399.390483 
L 463.704786 -399.390483 
L 464.360081 -399.390483 
L 465.015377 -399.390483 
L 465.670672 -399.390483 
L 466.325967 -399.390483 
L 466.981263 -399.390483 
L 467.636558 -399.390483 
L 468.291853 -399.390483 
L 468.947148 -399.390483 
L 469.602444 -399.390483 
L 470.257739 -399.390483 
L 470.913034 -399.390483 
L 471.56833 -399.390483 
L 472.223625 -399.390483 
L 472.87892 -399.390483 
L 473.534215 -399.390483 
L 474.189511 -399.390483 
L 474.844806 -399.390483 
L 475.500101 -399.390483 
L 476.155397 -399.390483 
L 476.810692 -399.390483 
L 477.465987 -399.390483 
L 478.121283 -399.390483 
L 478.776578 -399.390483 
L 479.431873 -399.390483 
L 480.087168 -399.390483 
L 480.742464 -399.390483 
L 481.397759 -399.390483 
L 482.053054 -399.390483 
L 482.70835 -399.390483 
L 483.363645 -399.390483 
L 484.01894 -399.390483 
L 484.674235 -399.390483 
L 485.329531 -399.390483 
L 485.984826 -399.390483 
L 486.640121 -399.390483 
L 487.295417 -399.390483 
L 487.950712 -399.390483 
L 488.606007 -399.390483 
L 489.261303 -399.390483 
L 489.916598 -399.390483 
L 490.571893 -399.390483 
L 491.227188 -399.390483 
L 491.882484 -399.390483 
L 492.537779 -399.390483 
L 493.193074 -399.390483 
L 493.84837 -399.390483 
L 494.503665 -399.390483 
L 495.15896 -399.390483 
L 495.814256 -399.390483 
L 496.469551 -399.390483 
L 497.124846 -399.390483 
L 497.780141 -399.390483 
L 498.435437 -399.390483 
L 499.090732 -399.390483 
L 499.746027 -399.390483 
L 500.401323 -399.390483 
L 501.056618 -399.390483 
L 501.711913 -399.390483 
L 502.367208 -399.390483 
L 503.022504 -399.390483 
L 503.677799 -399.390483 
L 504.333094 -399.390483 
L 504.98839 -399.390483 
L 505.643685 -399.390483 
L 506.29898 -399.390483 
L 506.954276 -399.390483 
L 507.609571 -399.390483 
L 508.264866 -399.390483 
L 508.920161 -399.390483 
L 509.575457 -399.390483 
L 510.230752 -399.390483 
L 510.886047 -399.390483 
L 511.541343 -399.390483 
L 512.196638 -399.390483 
L 512.851933 -399.390483 
L 513.507228 -399.390483 
L 514.162524 -399.390483 
L 514.817819 -399.390483 
L 515.473114 -399.390483 
L 516.12841 -399.390483 
L 516.783705 -399.390483 
L 517.439 -399.390483 
L 518.094296 -399.390483 
L 518.749591 -399.390483 
L 519.404886 -399.390483 
L 520.060181 -399.390483 
L 520.715477 -399.390483 
L 521.370772 -399.390483 
L 522.026067 -399.390483 
L 522.681363 -399.390483 
L 523.336658 -399.390483 
L 523.991953 -399.390483 
L 524.647248 -399.390483 
L 525.302544 -399.390483 
L 525.957839 -399.390483 
L 526.613134 -399.390483 
L 527.26843 -399.390483 
L 527.923725 -399.390483 
L 528.57902 -399.390483 
L 529.234316 -399.390483 
L 529.889611 -399.390483 
L 530.544906 -399.390483 
L 531.200201 -399.390483 
L 531.855497 -399.390483 
L 532.510792 -399.390483 
L 533.166087 -399.390483 
L 533.821383 -399.390483 
L 534.476678 -399.390483 
L 535.131973 -399.390483 
L 535.787269 -399.390483 
L 536.442564 -399.390483 
L 537.097859 -399.390483 
L 537.753154 -399.390483 
L 538.40845 -399.390483 
L 539.063745 -399.390483 
L 539.71904 -399.390483 
L 540.374336 -399.390483 
L 541.029631 -399.390483 
L 541.684926 -399.390483 
L 542.340221 -399.390483 
L 542.995517 -399.390483 
L 543.650812 -399.390483 
L 544.306107 -399.390483 
L 544.961403 -399.390483 
L 545.616698 -399.390483 
L 546.271993 -399.390483 
L 546.927289 -399.390483 
L 547.582584 -399.390483 
L 548.237879 -399.390483 
L 548.893174 -399.390483 
L 549.54847 -399.390483 
L 550.203765 -399.390483 
L 550.85906 -399.390483 
L 551.514356 -399.390483 
L 552.169651 -399.390483 
L 552.824946 -399.390483 
L 553.480241 -399.390483 
L 554.135537 -399.390483 
L 554.790832 -399.390483 
L 555.446127 -399.390483 
L 556.101423 -399.390483 
L 556.756718 -399.390483 
L 557.412013 -399.390483 
L 558.067309 -399.390483 
L 558.722604 -399.390483 
L 559.377899 -399.390483 
L 560.033194 -399.390483 
L 560.68849 -399.390483 
L 561.343785 -399.390483 
L 561.99908 -399.390483 
L 562.654376 -399.390483 
L 563.309671 -399.390483 
L 563.964966 -399.390483 
L 564.620262 -399.390483 
L 565.275557 -399.390483 
L 565.930852 -399.390483 
L 566.586147 -399.390483 
L 567.241443 -399.390483 
L 567.896738 -399.390483 
L 568.552033 -399.390483 
L 569.207329 -399.390483 
L 569.862624 -399.390483 
L 570.517919 -399.390483 
L 571.173214 -399.390483 
L 571.82851 -399.390483 
L 572.483805 -399.390483 
L 573.1391 -399.390483 
L 573.794396 -399.390483 
L 574.449691 -399.390483 
L 575.104986 -399.390483 
L 575.760282 -399.390483 
L 576.415577 -399.390483 
L 577.070872 -399.390483 
L 577.726167 -399.390483 
L 578.381463 -399.390483 
L 579.036758 -399.390483 
L 579.692053 -399.390483 
L 580.347349 -399.390483 
L 581.002644 -399.390483 
L 581.657939 -399.390483 
L 582.313234 -399.390483 
L 582.96853 -399.390483 
L 583.623825 -399.390483 
L 584.27912 -399.390483 
L 584.934416 -399.390483 
L 585.589711 -399.390483 
L 586.245006 -399.390483 
L 586.900302 -399.390483 
L 587.555597 -399.390483 
L 588.210892 -399.390483 
L 588.866187 -399.390483 
L 589.521483 -399.390483 
L 590.176778 -399.390483 
L 590.832073 -399.390483 
L 591.487369 -399.390483 
L 592.142664 -399.390483 
L 592.797959 -399.390483 
L 593.453255 -399.390483 
L 594.10855 -399.390483 
L 594.763845 -399.390483 
L 595.41914 -399.390483 
L 596.074436 -399.390483 
L 596.729731 -399.390483 
L 597.385026 -399.390483 
L 598.040322 -399.390483 
L 598.695617 -399.390483 
L 599.350912 -399.390483 
L 600.006207 -399.390483 
L 600.661503 -399.390483 
L 601.316798 -399.390483 
L 601.972093 -399.390483 
L 602.627389 -399.390483 
L 603.282684 -399.390483 
L 603.937979 -399.390483 
L 604.593275 -399.390483 
L 605.24857 -399.390483 
L 605.903865 -399.390483 
L 606.55916 -399.390483 
L 607.214456 -399.390483 
L 607.869751 -399.390483 
L 608.525046 -399.390483 
L 609.180342 -399.390483 
L 609.835637 -399.390483 
L 610.490932 -399.390483 
L 611.146227 -399.390483 
L 611.801523 -399.390483 
L 612.456818 -399.390483 
L 613.112113 -399.390483 
L 613.767409 -399.390483 
L 614.422704 -399.390483 
L 615.077999 -399.390483 
L 615.733295 -399.390483 
L 616.38859 -399.390483 
L 617.043885 -399.390483 
L 617.69918 -399.390483 
L 618.354476 -399.390483 
L 619.009771 -399.390483 
L 619.665066 -399.390483 
L 620.320362 -399.390483 
L 620.975657 -399.390483 
L 621.630952 -399.390483 
L 622.286247 -399.390483 
L 622.941543 -399.390483 
L 623.596838 -399.390483 
L 624.252133 -399.390483 
L 624.907429 -399.390483 
L 625.562724 -399.390483 
L 626.218019 -399.390483 
L 626.873315 -399.390483 
L 627.52861 -399.390483 
L 628.183905 -399.390483 
L 628.8392 -399.390483 
L 629.494496 -399.390483 
L 630.149791 -399.390483 
L 630.805086 -399.390483 
L 631.460382 -399.390483 
L 632.115677 -399.390483 
L 632.770972 -399.390483 
L 633.426268 -399.390483 
L 634.081563 -399.390483 
L 634.736858 -399.390483 
L 635.392153 -399.390483 
L 636.047449 -399.390483 
L 636.702744 -399.390483 
L 637.358039 -399.390483 
L 638.013335 -399.390483 
L 638.66863 -399.390483 
L 639.323925 -399.390483 
L 639.97922 -399.390483 
L 640.634516 -399.390483 
L 641.289811 -399.390483 
L 641.945106 -399.390483 
L 642.600402 -399.390483 
L 643.255697 -399.390483 
L 643.910992 -399.390483 
L 644.566288 -399.390483 
L 645.221583 -399.390483 
L 645.876878 -399.390483 
L 646.532173 -399.390483 
L 647.187469 -399.390483 
L 647.842764 -399.390483 
L 648.498059 -399.390483 
L 649.153355 -399.390483 
L 649.80865 -399.390483 
L 650.463945 -399.390483 
L 651.11924 -399.390483 
L 651.774536 -399.390483 
L 652.429831 -399.390483 
L 653.085126 -399.390483 
L 653.740422 -399.390483 
L 654.395717 -399.390483 
L 655.051012 -399.390483 
L 655.706308 -399.390483 
L 656.361603 -399.390483 
L 657.016898 -399.390483 
L 657.672193 -399.390483 
L 658.327489 -399.390483 
L 658.982784 -399.390483 
L 659.638079 -399.390483 
L 660.293375 -399.390483 
L 660.94867 -399.390483 
L 661.603965 -399.390483 
L 662.259261 -399.390483 
L 662.914556 -399.390483 
L 663.569851 -399.390483 
L 664.225146 -399.390483 
L 664.880442 -399.390483 
L 665.535737 -399.390483 
L 666.191032 -399.390483 
L 666.846328 -399.390483 
L 667.501623 -399.390483 
L 668.156918 -399.390483 
L 668.812213 -399.390483 
L 669.467509 -399.390483 
L 670.122804 -399.390483 
L 670.778099 -399.390483 
L 671.433395 -399.390483 
L 672.08869 -399.390483 
L 672.743985 -399.390483 
L 673.399281 -399.390483 
L 674.054576 -399.390483 
L 674.709871 -399.390483 
L 675.365166 -399.390483 
L 676.020462 -399.390483 
L 676.675757 -399.390483 
L 677.331052 -399.390483 
L 677.986348 -399.390483 
L 678.641643 -399.390483 
L 679.296938 -399.390483 
L 679.952233 -399.390483 
L 680.607529 -399.390483 
L 681.262824 -399.390483 
L 681.918119 -399.390483 
L 682.573415 -399.390483 
L 683.22871 -399.390483 
L 683.884005 -399.390483 
L 684.539301 -399.390483 
L 685.194596 -399.390483 
L 685.849891 -399.390483 
L 686.505186 -399.390483 
L 687.160482 -399.390483 
L 687.815777 -399.390483 
L 688.471072 -399.390483 
L 689.126368 -399.390483 
L 689.781663 -399.390483 
L 690.436958 -399.390483 
L 691.092254 -399.390483 
L 691.747549 -399.390483 
L 692.402844 -399.390483 
L 693.058139 -399.390483 
L 693.713435 -399.390483 
L 694.36873 -399.390483 
L 695.024025 -399.390483 
L 695.679321 -399.390483 
L 696.334616 -399.390483 
L 696.989911 -399.390483 
L 697.645206 -399.390483 
L 698.300502 -399.390483 
L 698.955797 -399.390483 
L 699.611092 -399.390483 
L 700.266388 -399.390483 
L 700.921683 -399.390483 
L 701.576978 -399.390483 
L 702.232274 -399.390483 
L 702.887569 -399.390483 
L 703.542864 -399.390483 
L 704.198159 -399.390483 
L 704.853455 -399.390483 
L 705.50875 -399.390483 
L 705.50875 -399.379813 
L 705.50875 -399.379813 
L 704.853455 -399.379446 
L 704.198159 -399.379067 
L 703.542864 -399.378676 
L 702.887569 -399.378272 
L 702.232274 -399.377855 
L 701.576978 -399.377425 
L 700.921683 -399.376981 
L 700.266388 -399.376523 
L 699.611092 -399.37605 
L 698.955797 -399.375562 
L 698.300502 -399.375058 
L 697.645206 -399.374538 
L 696.989911 -399.374002 
L 696.334616 -399.373449 
L 695.679321 -399.372878 
L 695.024025 -399.372289 
L 694.36873 -399.371682 
L 693.713435 -399.371056 
L 693.058139 -399.37041 
L 692.402844 -399.369744 
L 691.747549 -399.369057 
L 691.092254 -399.368348 
L 690.436958 -399.367618 
L 689.781663 -399.366865 
L 689.126368 -399.366089 
L 688.471072 -399.365288 
L 687.815777 -399.364463 
L 687.160482 -399.363613 
L 686.505186 -399.362736 
L 685.849891 -399.361833 
L 685.194596 -399.360902 
L 684.539301 -399.359942 
L 683.884005 -399.358954 
L 683.22871 -399.357935 
L 682.573415 -399.356886 
L 681.918119 -399.355805 
L 681.262824 -399.354691 
L 680.607529 -399.353543 
L 679.952233 -399.352361 
L 679.296938 -399.351144 
L 678.641643 -399.349891 
L 677.986348 -399.3486 
L 677.331052 -399.34727 
L 676.675757 -399.345901 
L 676.020462 -399.344492 
L 675.365166 -399.34304 
L 674.709871 -399.341546 
L 674.054576 -399.340008 
L 673.399281 -399.338425 
L 672.743985 -399.336795 
L 672.08869 -399.335118 
L 671.433395 -399.333392 
L 670.778099 -399.331615 
L 670.122804 -399.329787 
L 669.467509 -399.327906 
L 668.812213 -399.32597 
L 668.156918 -399.323979 
L 667.501623 -399.32193 
L 666.846328 -399.319823 
L 666.191032 -399.317655 
L 665.535737 -399.315425 
L 664.880442 -399.313132 
L 664.225146 -399.310773 
L 663.569851 -399.308348 
L 662.914556 -399.305853 
L 662.259261 -399.303288 
L 661.603965 -399.300651 
L 660.94867 -399.29794 
L 660.293375 -399.295153 
L 659.638079 -399.292287 
L 658.982784 -399.289342 
L 658.327489 -399.286315 
L 657.672193 -399.283203 
L 657.016898 -399.280005 
L 656.361603 -399.276719 
L 655.706308 -399.273342 
L 655.051012 -399.269872 
L 654.395717 -399.266307 
L 653.740422 -399.262644 
L 653.085126 -399.258881 
L 652.429831 -399.255015 
L 651.774536 -399.251044 
L 651.11924 -399.246965 
L 650.463945 -399.242776 
L 649.80865 -399.238474 
L 649.153355 -399.234056 
L 648.498059 -399.22952 
L 647.842764 -399.224861 
L 647.187469 -399.220078 
L 646.532173 -399.215168 
L 645.876878 -399.210127 
L 645.221583 -399.204952 
L 644.566288 -399.19964 
L 643.910992 -399.194188 
L 643.255697 -399.188592 
L 642.600402 -399.182849 
L 641.945106 -399.176955 
L 641.289811 -399.170908 
L 640.634516 -399.164703 
L 639.97922 -399.158336 
L 639.323925 -399.151804 
L 638.66863 -399.145103 
L 638.013335 -399.138229 
L 637.358039 -399.131178 
L 636.702744 -399.123946 
L 636.047449 -399.116528 
L 635.392153 -399.108921 
L 634.736858 -399.10112 
L 634.081563 -399.093121 
L 633.426268 -399.084919 
L 632.770972 -399.076509 
L 632.115677 -399.067888 
L 631.460382 -399.059049 
L 630.805086 -399.049989 
L 630.149791 -399.040701 
L 629.494496 -399.031182 
L 628.8392 -399.021426 
L 628.183905 -399.011428 
L 627.52861 -399.001182 
L 626.873315 -398.990683 
L 626.218019 -398.979925 
L 625.562724 -398.968903 
L 624.907429 -398.957611 
L 624.252133 -398.946043 
L 623.596838 -398.934193 
L 622.941543 -398.922055 
L 622.286247 -398.909623 
L 621.630952 -398.89689 
L 620.975657 -398.88385 
L 620.320362 -398.870497 
L 619.665066 -398.856824 
L 619.009771 -398.842823 
L 618.354476 -398.828489 
L 617.69918 -398.813814 
L 617.043885 -398.79879 
L 616.38859 -398.783412 
L 615.733295 -398.767671 
L 615.077999 -398.751559 
L 614.422704 -398.73507 
L 613.767409 -398.718195 
L 613.112113 -398.700927 
L 612.456818 -398.683256 
L 611.801523 -398.665177 
L 611.146227 -398.646679 
L 610.490932 -398.627754 
L 609.835637 -398.608394 
L 609.180342 -398.588591 
L 608.525046 -398.568335 
L 607.869751 -398.547617 
L 607.214456 -398.526428 
L 606.55916 -398.504758 
L 605.903865 -398.482599 
L 605.24857 -398.459941 
L 604.593275 -398.436773 
L 603.937979 -398.413087 
L 603.282684 -398.388871 
L 602.627389 -398.364116 
L 601.972093 -398.338812 
L 601.316798 -398.312947 
L 600.661503 -398.286511 
L 600.006207 -398.259493 
L 599.350912 -398.231882 
L 598.695617 -398.203668 
L 598.040322 -398.174837 
L 597.385026 -398.14538 
L 596.729731 -398.115284 
L 596.074436 -398.084538 
L 595.41914 -398.053128 
L 594.763845 -398.021044 
L 594.10855 -397.988273 
L 593.453255 -397.954802 
L 592.797959 -397.920618 
L 592.142664 -397.885709 
L 591.487369 -397.850061 
L 590.832073 -397.813662 
L 590.176778 -397.776496 
L 589.521483 -397.738552 
L 588.866187 -397.699815 
L 588.210892 -397.660271 
L 587.555597 -397.619906 
L 586.900302 -397.578705 
L 586.245006 -397.536654 
L 585.589711 -397.493738 
L 584.934416 -397.449942 
L 584.27912 -397.405251 
L 583.623825 -397.35965 
L 582.96853 -397.313122 
L 582.313234 -397.265653 
L 581.657939 -397.217226 
L 581.002644 -397.167825 
L 580.347349 -397.117434 
L 579.692053 -397.066036 
L 579.036758 -397.013614 
L 578.381463 -396.960152 
L 577.726167 -396.905632 
L 577.070872 -396.850037 
L 576.415577 -396.793349 
L 575.760282 -396.735551 
L 575.104986 -396.676624 
L 574.449691 -396.616551 
L 573.794396 -396.555313 
L 573.1391 -396.492892 
L 572.483805 -396.429268 
L 571.82851 -396.364423 
L 571.173214 -396.298337 
L 570.517919 -396.230992 
L 569.862624 -396.162367 
L 569.207329 -396.092442 
L 568.552033 -396.021199 
L 567.896738 -395.948615 
L 567.241443 -395.874671 
L 566.586147 -395.799347 
L 565.930852 -395.722621 
L 565.275557 -395.644472 
L 564.620262 -395.56488 
L 563.964966 -395.483822 
L 563.309671 -395.401276 
L 562.654376 -395.317222 
L 561.99908 -395.231637 
L 561.343785 -395.144498 
L 560.68849 -395.055783 
L 560.033194 -394.96547 
L 559.377899 -394.873535 
L 558.722604 -394.779955 
L 558.067309 -394.684708 
L 557.412013 -394.587769 
L 556.756718 -394.489114 
L 556.101423 -394.388721 
L 555.446127 -394.286564 
L 554.790832 -394.18262 
L 554.135537 -394.076864 
L 553.480241 -393.969271 
L 552.824946 -393.859817 
L 552.169651 -393.748475 
L 551.514356 -393.635222 
L 550.85906 -393.520032 
L 550.203765 -393.402879 
L 549.54847 -393.283736 
L 548.893174 -393.162579 
L 548.237879 -393.039381 
L 547.582584 -392.914116 
L 546.927289 -392.786757 
L 546.271993 -392.657277 
L 545.616698 -392.52565 
L 544.961403 -392.391849 
L 544.306107 -392.255846 
L 543.650812 -392.117613 
L 542.995517 -391.977125 
L 542.340221 -391.834352 
L 541.684926 -391.689267 
L 541.029631 -391.541842 
L 540.374336 -391.392049 
L 539.71904 -391.23986 
L 539.063745 -391.085246 
L 538.40845 -390.928178 
L 537.753154 -390.768628 
L 537.097859 -390.606567 
L 536.442564 -390.441967 
L 535.787269 -390.274797 
L 535.131973 -390.105029 
L 534.476678 -389.932634 
L 533.821383 -389.757582 
L 533.166087 -389.579843 
L 532.510792 -389.399388 
L 531.855497 -389.216187 
L 531.200201 -389.03021 
L 530.544906 -388.841427 
L 529.889611 -388.649809 
L 529.234316 -388.455325 
L 528.57902 -388.257945 
L 527.923725 -388.057638 
L 527.26843 -387.854374 
L 526.613134 -387.648124 
L 525.957839 -387.438856 
L 525.302544 -387.226539 
L 524.647248 -387.011144 
L 523.991953 -386.792639 
L 523.336658 -386.570995 
L 522.681363 -386.346179 
L 522.026067 -386.118162 
L 521.370772 -385.886913 
L 520.715477 -385.652401 
L 520.060181 -385.414595 
L 519.404886 -385.173464 
L 518.749591 -384.928978 
L 518.094296 -384.681105 
L 517.439 -384.429816 
L 516.783705 -384.175078 
L 516.12841 -383.916862 
L 515.473114 -383.655137 
L 514.817819 -383.389872 
L 514.162524 -383.121036 
L 513.507228 -382.8486 
L 512.851933 -382.572531 
L 512.196638 -382.2928 
L 511.541343 -382.009377 
L 510.886047 -381.722231 
L 510.230752 -381.431331 
L 509.575457 -381.136649 
L 508.920161 -380.838152 
L 508.264866 -380.535813 
L 507.609571 -380.2296 
L 506.954276 -379.919485 
L 506.29898 -379.605437 
L 505.643685 -379.287426 
L 504.98839 -378.965425 
L 504.333094 -378.639403 
L 503.677799 -378.309331 
L 503.022504 -377.975181 
L 502.367208 -377.636924 
L 501.711913 -377.294532 
L 501.056618 -376.947975 
L 500.401323 -376.597226 
L 499.746027 -376.242257 
L 499.090732 -375.88304 
L 498.435437 -375.519548 
L 497.780141 -375.151753 
L 497.124846 -374.779629 
L 496.469551 -374.403148 
L 495.814256 -374.022283 
L 495.15896 -373.63701 
L 494.503665 -373.247301 
L 493.84837 -372.85313 
L 493.193074 -372.454473 
L 492.537779 -372.051304 
L 491.882484 -371.643598 
L 491.227188 -371.23133 
L 490.571893 -370.814477 
L 489.916598 -370.393013 
L 489.261303 -369.966917 
L 488.606007 -369.536163 
L 487.950712 -369.10073 
L 487.295417 -368.660594 
L 486.640121 -368.215733 
L 485.984826 -367.766127 
L 485.329531 -367.311752 
L 484.674235 -366.852588 
L 484.01894 -366.388614 
L 483.363645 -365.91981 
L 482.70835 -365.446155 
L 482.053054 -364.967632 
L 481.397759 -364.484219 
L 480.742464 -363.9959 
L 480.087168 -363.502654 
L 479.431873 -363.004466 
L 478.776578 -362.501317 
L 478.121283 -361.993191 
L 477.465987 -361.480072 
L 476.810692 -360.961942 
L 476.155397 -360.438789 
L 475.500101 -359.910595 
L 474.844806 -359.377348 
L 474.189511 -358.839032 
L 473.534215 -358.295636 
L 472.87892 -357.747145 
L 472.223625 -357.193548 
L 471.56833 -356.634834 
L 470.913034 -356.07099 
L 470.257739 -355.502007 
L 469.602444 -354.927874 
L 468.947148 -354.348582 
L 468.291853 -353.764122 
L 467.636558 -353.174485 
L 466.981263 -352.579665 
L 466.325967 -351.979653 
L 465.670672 -351.374444 
L 465.015377 -350.764031 
L 464.360081 -350.14841 
L 463.704786 -349.527575 
L 463.049491 -348.901523 
L 462.394195 -348.27025 
L 461.7389 -347.633754 
L 461.083605 -346.992032 
L 460.42831 -346.345083 
L 459.773014 -345.692907 
L 459.117719 -345.035503 
L 458.462424 -344.372871 
L 457.807128 -343.705014 
L 457.151833 -343.031933 
L 456.496538 -342.35363 
L 455.841242 -341.67011 
L 455.185947 -340.981375 
L 454.530652 -340.287431 
L 453.875357 -339.588284 
L 453.220061 -338.883939 
L 452.564766 -338.174403 
L 451.909471 -337.459683 
L 451.254175 -336.739789 
L 450.59888 -336.014729 
L 449.943585 -335.284513 
L 449.28829 -334.549152 
L 448.632994 -333.808655 
L 447.977699 -333.063037 
L 447.322404 -332.312309 
L 446.667108 -331.556484 
L 446.011813 -330.795578 
L 445.356518 -330.029604 
L 444.701222 -329.258579 
L 444.045927 -328.482519 
L 443.390632 -327.701441 
L 442.735337 -326.915364 
L 442.080041 -326.124305 
L 441.424746 -325.328285 
L 440.769451 -324.527323 
L 440.114155 -323.721442 
L 439.45886 -322.910661 
L 438.803565 -322.095005 
L 438.14827 -321.274496 
L 437.492974 -320.449158 
L 436.837679 -319.619017 
L 436.182384 -318.784097 
L 435.527088 -317.944425 
L 434.871793 -317.100029 
L 434.216498 -316.250935 
L 433.561202 -315.397174 
L 432.905907 -314.538773 
L 432.250612 -313.675764 
L 431.595317 -312.808176 
L 430.940021 -311.936043 
L 430.284726 -311.059395 
L 429.629431 -310.178267 
L 428.974135 -309.292692 
L 428.31884 -308.402705 
L 427.663545 -307.508341 
L 427.008249 -306.609637 
L 426.352954 -305.706628 
L 425.697659 -304.799354 
L 425.042364 -303.887851 
L 424.387068 -302.972159 
L 423.731773 -302.052318 
L 423.076478 -301.128369 
L 422.421182 -300.200351 
L 421.765887 -299.268308 
L 421.110592 -298.332282 
L 420.455297 -297.392316 
L 419.800001 -296.448454 
L 419.144706 -295.50074 
L 418.489411 -294.549221 
L 417.834115 -293.593941 
L 417.17882 -292.634948 
L 416.523525 -291.672289 
L 415.868229 -290.706011 
L 415.212934 -289.736164 
L 414.557639 -288.762797 
L 413.902344 -287.785959 
L 413.247048 -286.805702 
L 412.591753 -285.822075 
L 411.936458 -284.835131 
L 411.281162 -283.844922 
L 410.625867 -282.851502 
L 409.970572 -281.854923 
L 409.315277 -280.855239 
L 408.659981 -279.852506 
L 408.004686 -278.846778 
L 407.349391 -277.838112 
L 406.694095 -276.826563 
L 406.0388 -275.812188 
L 405.383505 -274.795045 
L 404.728209 -273.775191 
L 404.072914 -272.752685 
L 403.417619 -271.727586 
L 402.762324 -270.699952 
L 402.107028 -269.669845 
L 401.451733 -268.637323 
L 400.796438 -267.602449 
L 400.141142 -266.565282 
L 399.485847 -265.525884 
L 398.830552 -264.484319 
L 398.175257 -263.440647 
L 397.519961 -262.394931 
L 396.864666 -261.347236 
L 396.209371 -260.297624 
L 395.554075 -259.246159 
L 394.89878 -258.192906 
L 394.243485 -257.137929 
L 393.588189 -256.081294 
L 392.932894 -255.023065 
L 392.277599 -253.963308 
L 391.622304 -252.902088 
L 390.967008 -251.839473 
L 390.311713 -250.775528 
L 389.656418 -249.71032 
L 389.001122 -248.643916 
L 388.345827 -247.576383 
L 387.690532 -246.507789 
L 387.035236 -245.4382 
L 386.379941 -244.367685 
L 385.724646 -243.296311 
L 385.069351 -242.224148 
L 384.414055 -241.151261 
L 383.75876 -240.077722 
L 383.103465 -239.003596 
L 382.448169 -237.928954 
L 381.792874 -236.853864 
L 381.137579 -235.778395 
L 380.482284 -234.702615 
L 379.826988 -233.626594 
L 379.171693 -232.550401 
L 378.516398 -231.474103 
L 377.861102 -230.397772 
L 377.205807 -229.321474 
L 376.550512 -228.245281 
L 375.895216 -227.16926 
L 375.239921 -226.09348 
L 374.584626 -225.018011 
L 373.929331 -223.942921 
L 373.274035 -222.868279 
L 372.61874 -221.794153 
L 371.963445 -220.720614 
L 371.308149 -219.647727 
L 370.652854 -218.575564 
L 369.997559 -217.50419 
L 369.342264 -216.433675 
L 368.686968 -215.364086 
L 368.031673 -214.295492 
L 367.376378 -213.227959 
L 366.721082 -212.161555 
L 366.065787 -211.096347 
L 365.410492 -210.032402 
L 364.755196 -208.969787 
L 364.099901 -207.908567 
L 363.444606 -206.84881 
L 362.789311 -205.790581 
L 362.134015 -204.733946 
L 361.47872 -203.678969 
L 360.823425 -202.625716 
L 360.168129 -201.574251 
L 359.512834 -200.524639 
L 358.857539 -199.476944 
L 358.202243 -198.431228 
L 357.546948 -197.387556 
L 356.891653 -196.345991 
L 356.236358 -195.306593 
L 355.581062 -194.269426 
L 354.925767 -193.234552 
L 354.270472 -192.20203 
L 353.615176 -191.171923 
L 352.959881 -190.144289 
L 352.304586 -189.11919 
L 351.649291 -188.096684 
L 350.993995 -187.07683 
L 350.3387 -186.059687 
L 349.683405 -185.045312 
L 349.028109 -184.033763 
L 348.372814 -183.025097 
L 347.717519 -182.019369 
L 347.062223 -181.016636 
L 346.406928 -180.016952 
L 345.751633 -179.020373 
L 345.096338 -178.026953 
L 344.441042 -177.036744 
L 343.785747 -176.0498 
L 343.130452 -175.066173 
L 342.475156 -174.085916 
L 341.819861 -173.109078 
L 341.164566 -172.135711 
L 340.509271 -171.165864 
L 339.853975 -170.199586 
L 339.19868 -169.236927 
L 338.543385 -168.277934 
L 337.888089 -167.322654 
L 337.232794 -166.371135 
L 336.577499 -165.423421 
L 335.922203 -164.479559 
L 335.266908 -163.539593 
L 334.611613 -162.603567 
L 333.956318 -161.671524 
L 333.301022 -160.743506 
L 332.645727 -159.819557 
L 331.990432 -158.899716 
L 331.335136 -157.984024 
L 330.679841 -157.072521 
L 330.024546 -156.165247 
L 329.369251 -155.262238 
L 328.713955 -154.363534 
L 328.05866 -153.46917 
L 327.403365 -152.579183 
L 326.748069 -151.693608 
L 326.092774 -150.81248 
L 325.437479 -149.935832 
L 324.782183 -149.063699 
L 324.126888 -148.196111 
L 323.471593 -147.333102 
L 322.816298 -146.474701 
L 322.161002 -145.62094 
L 321.505707 -144.771846 
L 320.850412 -143.92745 
L 320.195116 -143.087778 
L 319.539821 -142.252858 
L 318.884526 -141.422717 
L 318.22923 -140.597379 
L 317.573935 -139.77687 
L 316.91864 -138.961214 
L 316.263345 -138.150433 
L 315.608049 -137.344552 
L 314.952754 -136.54359 
L 314.297459 -135.74757 
L 313.642163 -134.956511 
L 312.986868 -134.170434 
L 312.331573 -133.389356 
L 311.676278 -132.613296 
L 311.020982 -131.842271 
L 310.365687 -131.076297 
L 309.710392 -130.315391 
L 309.055096 -129.559566 
L 308.399801 -128.808838 
L 307.744506 -128.06322 
L 307.08921 -127.322723 
L 306.433915 -126.587362 
L 305.77862 -125.857146 
L 305.123325 -125.132086 
L 304.468029 -124.412192 
L 303.812734 -123.697472 
L 303.157439 -122.987936 
L 302.502143 -122.283591 
L 301.846848 -121.584444 
L 301.191553 -120.8905 
L 300.536258 -120.201765 
L 299.880962 -119.518245 
L 299.225667 -118.839942 
L 298.570372 -118.166861 
L 297.915076 -117.499004 
L 297.259781 -116.836372 
L 296.604486 -116.178968 
L 295.94919 -115.526792 
L 295.293895 -114.879843 
L 294.6386 -114.238121 
L 293.983305 -113.601625 
L 293.328009 -112.970352 
L 292.672714 -112.3443 
L 292.017419 -111.723465 
L 291.362123 -111.107844 
L 290.706828 -110.497431 
L 290.051533 -109.892222 
L 289.396237 -109.29221 
L 288.740942 -108.69739 
L 288.085647 -108.107753 
L 287.430352 -107.523293 
L 286.775056 -106.944001 
L 286.119761 -106.369868 
L 285.464466 -105.800885 
L 284.80917 -105.237041 
L 284.153875 -104.678327 
L 283.49858 -104.12473 
L 282.843285 -103.576239 
L 282.187989 -103.032843 
L 281.532694 -102.494527 
L 280.877399 -101.96128 
L 280.222103 -101.433086 
L 279.566808 -100.909933 
L 278.911513 -100.391803 
L 278.256217 -99.878684 
L 277.600922 -99.370558 
L 276.945627 -98.867409 
L 276.290332 -98.369221 
L 275.635036 -97.875975 
L 274.979741 -97.387656 
L 274.324446 -96.904243 
L 273.66915 -96.42572 
L 273.013855 -95.952065 
L 272.35856 -95.483261 
L 271.703265 -95.019287 
L 271.047969 -94.560123 
L 270.392674 -94.105748 
L 269.737379 -93.656142 
L 269.082083 -93.211281 
L 268.426788 -92.771145 
L 267.771493 -92.335712 
L 267.116197 -91.904958 
L 266.460902 -91.478862 
L 265.805607 -91.057398 
L 265.150312 -90.640545 
L 264.495016 -90.228277 
L 263.839721 -89.820571 
L 263.184426 -89.417402 
L 262.52913 -89.018745 
L 261.873835 -88.624574 
L 261.21854 -88.234865 
L 260.563244 -87.849592 
L 259.907949 -87.468727 
L 259.252654 -87.092246 
L 258.597359 -86.720122 
L 257.942063 -86.352327 
L 257.286768 -85.988835 
L 256.631473 -85.629618 
L 255.976177 -85.274649 
L 255.320882 -84.9239 
L 254.665587 -84.577343 
L 254.010292 -84.234951 
L 253.354996 -83.896694 
L 252.699701 -83.562544 
L 252.044406 -83.232472 
L 251.38911 -82.90645 
L 250.733815 -82.584449 
L 250.07852 -82.266438 
L 249.423224 -81.95239 
L 248.767929 -81.642275 
L 248.112634 -81.336062 
L 247.457339 -81.033723 
L 246.802043 -80.735226 
L 246.146748 -80.440544 
L 245.491453 -80.149644 
L 244.836157 -79.862498 
L 244.180862 -79.579075 
L 243.525567 -79.299344 
L 242.870272 -79.023275 
L 242.214976 -78.750839 
L 241.559681 -78.482003 
L 240.904386 -78.216738 
L 240.24909 -77.955013 
L 239.593795 -77.696797 
L 238.9385 -77.442059 
L 238.283204 -77.19077 
L 237.627909 -76.942897 
L 236.972614 -76.698411 
L 236.317319 -76.45728 
L 235.662023 -76.219474 
L 235.006728 -75.984962 
L 234.351433 -75.753713 
L 233.696137 -75.525696 
L 233.040842 -75.30088 
L 232.385547 -75.079236 
L 231.730252 -74.860731 
L 231.074956 -74.645336 
L 230.419661 -74.433019 
L 229.764366 -74.223751 
L 229.10907 -74.017501 
L 228.453775 -73.814237 
L 227.79848 -73.61393 
L 227.143184 -73.41655 
L 226.487889 -73.222066 
L 225.832594 -73.030448 
L 225.177299 -72.841665 
L 224.522003 -72.655688 
L 223.866708 -72.472487 
L 223.211413 -72.292032 
L 222.556117 -72.114293 
L 221.900822 -71.939241 
L 221.245527 -71.766846 
L 220.590231 -71.597078 
L 219.934936 -71.429908 
L 219.279641 -71.265308 
L 218.624346 -71.103247 
L 217.96905 -70.943697 
L 217.313755 -70.786629 
L 216.65846 -70.632015 
L 216.003164 -70.479826 
L 215.347869 -70.330033 
L 214.692574 -70.182608 
L 214.037279 -70.037523 
L 213.381983 -69.89475 
L 212.726688 -69.754262 
L 212.071393 -69.616029 
L 211.416097 -69.480026 
L 210.760802 -69.346225 
L 210.105507 -69.214598 
L 209.450211 -69.085118 
L 208.794916 -68.957759 
L 208.139621 -68.832494 
L 207.484326 -68.709296 
L 206.82903 -68.588139 
L 206.173735 -68.468996 
L 205.51844 -68.351843 
L 204.863144 -68.236653 
L 204.207849 -68.1234 
L 203.552554 -68.012058 
L 202.897259 -67.902604 
L 202.241963 -67.795011 
L 201.586668 -67.689255 
L 200.931373 -67.585311 
L 200.276077 -67.483154 
L 199.620782 -67.382761 
L 198.965487 -67.284106 
L 198.310191 -67.187167 
L 197.654896 -67.09192 
L 196.999601 -66.99834 
L 196.344306 -66.906405 
L 195.68901 -66.816092 
L 195.033715 -66.727377 
L 194.37842 -66.640238 
L 193.723124 -66.554653 
L 193.067829 -66.470599 
L 192.412534 -66.388053 
L 191.757238 -66.306995 
L 191.101943 -66.227403 
L 190.446648 -66.149254 
L 189.791353 -66.072528 
L 189.136057 -65.997204 
L 188.480762 -65.92326 
L 187.825467 -65.850676 
L 187.170171 -65.779433 
L 186.514876 -65.709508 
L 185.859581 -65.640883 
L 185.204286 -65.573538 
L 184.54899 -65.507452 
L 183.893695 -65.442607 
L 183.2384 -65.378983 
L 182.583104 -65.316562 
L 181.927809 -65.255324 
L 181.272514 -65.195251 
L 180.617218 -65.136324 
L 179.961923 -65.078526 
L 179.306628 -65.021838 
L 178.651333 -64.966243 
L 177.996037 -64.911723 
L 177.340742 -64.858261 
L 176.685447 -64.805839 
L 176.030151 -64.754441 
L 175.374856 -64.70405 
L 174.719561 -64.654649 
L 174.064266 -64.606222 
L 173.40897 -64.558753 
L 172.753675 -64.512225 
L 172.09838 -64.466624 
L 171.443084 -64.421933 
L 170.787789 -64.378137 
L 170.132494 -64.335221 
L 169.477198 -64.29317 
L 168.821903 -64.251969 
L 168.166608 -64.211604 
L 167.511313 -64.17206 
L 166.856017 -64.133323 
L 166.200722 -64.095379 
L 165.545427 -64.058213 
L 164.890131 -64.021814 
L 164.234836 -63.986166 
L 163.579541 -63.951257 
L 162.924245 -63.917073 
L 162.26895 -63.883602 
L 161.613655 -63.850831 
L 160.95836 -63.818747 
L 160.303064 -63.787337 
L 159.647769 -63.756591 
L 158.992474 -63.726495 
L 158.337178 -63.697038 
L 157.681883 -63.668207 
L 157.026588 -63.639993 
L 156.371293 -63.612382 
L 155.715997 -63.585364 
L 155.060702 -63.558928 
L 154.405407 -63.533063 
L 153.750111 -63.507759 
L 153.094816 -63.483004 
L 152.439521 -63.458788 
L 151.784225 -63.435102 
L 151.12893 -63.411934 
L 150.473635 -63.389276 
L 149.81834 -63.367117 
L 149.163044 -63.345447 
L 148.507749 -63.324258 
L 147.852454 -63.30354 
L 147.197158 -63.283284 
L 146.541863 -63.263481 
L 145.886568 -63.244121 
L 145.231273 -63.225196 
L 144.575977 -63.206698 
L 143.920682 -63.188619 
L 143.265387 -63.170948 
L 142.610091 -63.15368 
L 141.954796 -63.136805 
L 141.299501 -63.120316 
L 140.644205 -63.104204 
L 139.98891 -63.088463 
L 139.333615 -63.073085 
L 138.67832 -63.058061 
L 138.023024 -63.043386 
L 137.367729 -63.029052 
L 136.712434 -63.015051 
L 136.057138 -63.001378 
L 135.401843 -62.988025 
L 134.746548 -62.974985 
L 134.091253 -62.962252 
L 133.435957 -62.94982 
L 132.780662 -62.937682 
L 132.125367 -62.925832 
L 131.470071 -62.914264 
L 130.814776 -62.902972 
L 130.159481 -62.89195 
L 129.504185 -62.881192 
L 128.84889 -62.870693 
L 128.193595 -62.860447 
L 127.5383 -62.850449 
L 126.883004 -62.840693 
L 126.227709 -62.831174 
L 125.572414 -62.821886 
L 124.917118 -62.812826 
L 124.261823 -62.803987 
L 123.606528 -62.795366 
L 122.951232 -62.786956 
L 122.295937 -62.778754 
L 121.640642 -62.770755 
L 120.985347 -62.762954 
L 120.330051 -62.755347 
L 119.674756 -62.747929 
L 119.019461 -62.740697 
L 118.364165 -62.733646 
L 117.70887 -62.726772 
L 117.053575 -62.720071 
L 116.39828 -62.713539 
L 115.742984 -62.707172 
L 115.087689 -62.700967 
L 114.432394 -62.69492 
L 113.777098 -62.689026 
L 113.121803 -62.683283 
L 112.466508 -62.677687 
L 111.811212 -62.672235 
L 111.155917 -62.666923 
L 110.500622 -62.661748 
L 109.845327 -62.656707 
L 109.190031 -62.651797 
L 108.534736 -62.647014 
L 107.879441 -62.642355 
L 107.224145 -62.637819 
L 106.56885 -62.633401 
L 105.913555 -62.629099 
L 105.25826 -62.62491 
L 104.602964 -62.620831 
L 103.947669 -62.61686 
L 103.292374 -62.612994 
L 102.637078 -62.609231 
L 101.981783 -62.605568 
L 101.326488 -62.602003 
L 100.671192 -62.598533 
L 100.015897 -62.595156 
L 99.360602 -62.59187 
L 98.705307 -62.588672 
L 98.050011 -62.58556 
L 97.394716 -62.582533 
L 96.739421 -62.579588 
L 96.084125 -62.576722 
L 95.42883 -62.573935 
L 94.773535 -62.571224 
L 94.118239 -62.568587 
L 93.462944 -62.566022 
L 92.807649 -62.563527 
L 92.152354 -62.561102 
L 91.497058 -62.558743 
L 90.841763 -62.55645 
L 90.186468 -62.55422 
L 89.531172 -62.552052 
L 88.875877 -62.549945 
L 88.220582 -62.547896 
L 87.565287 -62.545905 
L 86.909991 -62.543969 
L 86.254696 -62.542088 
L 85.599401 -62.54026 
L 84.944105 -62.538483 
L 84.28881 -62.536757 
L 83.633515 -62.53508 
L 82.978219 -62.53345 
L 82.322924 -62.531867 
L 81.667629 -62.530329 
L 81.012334 -62.528835 
L 80.357038 -62.527383 
L 79.701743 -62.525974 
L 79.046448 -62.524605 
L 78.391152 -62.523275 
L 77.735857 -62.521984 
L 77.080562 -62.520731 
L 76.425267 -62.519514 
L 75.769971 -62.518332 
L 75.114676 -62.517184 
L 74.459381 -62.51607 
L 73.804085 -62.514989 
L 73.14879 -62.51394 
L 72.493495 -62.512921 
L 71.838199 -62.511933 
L 71.182904 -62.510973 
L 70.527609 -62.510042 
L 69.872314 -62.509139 
L 69.217018 -62.508262 
L 68.561723 -62.507412 
L 67.906428 -62.506587 
L 67.251132 -62.505786 
L 66.595837 -62.50501 
L 65.940542 -62.504257 
L 65.285246 -62.503527 
L 64.629951 -62.502818 
L 63.974656 -62.502131 
L 63.319361 -62.501465 
L 62.664065 -62.500819 
L 62.00877 -62.500193 
L 61.353475 -62.499586 
L 60.698179 -62.498997 
L 60.042884 -62.498426 
L 59.387589 -62.497873 
L 58.732294 -62.497337 
L 58.076998 -62.496817 
L 57.421703 -62.496313 
L 56.766408 -62.495825 
L 56.111112 -62.495352 
L 55.455817 -62.494894 
L 54.800522 -62.49445 
L 54.145226 -62.49402 
L 53.489931 -62.493603 
L 52.834636 -62.493199 
L 52.179341 -62.492808 
L 51.524045 -62.492429 
L 50.86875 -62.492062 
z
" style="stroke: #b2b2b2; stroke-opacity: 0.3"/>
    </defs>
    <g clip-path="url(#p838fc1f47f)">
     <use xlink:href="#m3e35bc9eac" x="0" y="423.435937" style="fill: #b2b2b2; fill-opacity: 0.3; stroke: #b2b2b2; stroke-opacity: 0.3"/>
    </g>
   </g>
   <g id="line2d_12">
    <path d="M 50.86875 360.943875 
L 106.56885 360.802537 
L 130.814776 360.532966 
L 147.852454 360.132397 
L 160.95836 359.617191 
L 172.09838 358.969314 
L 181.927809 358.180614 
L 190.446648 357.286684 
L 198.310191 356.24877 
L 205.51844 355.084094 
L 212.071393 353.819908 
L 218.624346 352.332691 
L 224.522003 350.780249 
L 230.419661 349.002918 
L 236.317319 346.978657 
L 241.559681 344.953935 
L 246.802043 342.700711 
L 252.044406 340.203465 
L 257.286768 337.447103 
L 262.52913 334.417193 
L 267.771493 331.100225 
L 273.013855 327.483872 
L 277.600922 324.06538 
L 282.187989 320.403095 
L 287.430352 315.912644 
L 292.672714 311.091638 
L 297.915076 305.936934 
L 303.157439 300.448001 
L 308.399801 294.627099 
L 313.642163 288.479426 
L 318.884526 282.013221 
L 324.782183 274.372239 
L 330.679841 266.363416 
L 337.232794 257.064803 
L 343.785747 247.386137 
L 350.993995 236.359107 
L 359.512834 222.911298 
L 370.652854 204.860374 
L 398.830552 158.951619 
L 407.349391 145.597826 
L 414.557639 134.67314 
L 421.110592 125.103655 
L 427.663545 115.927596 
L 433.561202 108.038764 
L 439.45886 100.525276 
L 444.701222 94.177359 
L 449.943585 88.151424 
L 455.185947 82.454562 
L 460.42831 77.090854 
L 465.670672 72.061494 
L 470.913034 67.364947 
L 476.155397 62.997149 
L 481.397759 58.951718 
L 486.640121 55.220204 
L 491.882484 51.79234 
L 497.124846 48.656309 
L 502.367208 45.799013 
L 507.609571 43.206337 
L 512.851933 40.863406 
L 518.094296 38.754832 
L 523.336658 36.864943 
L 529.234316 34.980613 
L 535.131973 33.330908 
L 541.684926 31.74667 
L 548.237879 30.396556 
L 555.446127 29.149373 
L 563.309671 28.034661 
L 571.82851 27.071514 
L 581.002644 26.268112 
L 591.487369 25.585876 
L 603.282684 25.047066 
L 617.69918 24.622124 
L 636.047449 24.319409 
L 662.259261 24.132649 
L 705.50875 24.056125 
L 705.50875 24.056125 
" clip-path="url(#p838fc1f47f)" style="fill: none; stroke: #6ab1d0; stroke-width: 2.5; stroke-linecap: round"/>
   </g>
   <g id="patch_3">
    <path d="M 50.86875 377.8 
L 50.86875 7.2 
" style="fill: none; stroke: #cccccc; stroke-width: 0.8; stroke-linejoin: miter; stroke-linecap: square"/>
   </g>
   <g id="patch_4">
    <path d="M 705.50875 377.8 
L 705.50875 7.2 
" style="fill: none; stroke: #cccccc; stroke-width: 0.8; stroke-linejoin: miter; stroke-linecap: square"/>
   </g>
   <g id="patch_5">
    <path d="M 50.86875 377.8 
L 705.50875 377.8 
" style="fill: none; stroke: #cccccc; stroke-width: 0.8; stroke-linejoin: miter; stroke-linecap: square"/>
   </g>
   <g id="patch_6">
    <path d="M 50.86875 7.2 
L 705.50875 7.2 
" style="fill: none; stroke: #cccccc; stroke-width: 0.8; stroke-linejoin: miter; stroke-linecap: square"/>
   </g>
   <g id="line2d_13">
    <path d="M 50.86875 360.954545 
L 411.936458 360.954545 
L 412.591753 24.045455 
L 705.50875 24.045455 
L 705.50875 24.045455 
" clip-path="url(#p838fc1f47f)" style="fill: none; stroke: #876cad; stroke-width: 2.5; stroke-linecap: round"/>
   </g>
   <g id="line2d_14">
    <path d="M 412.284583 377.8 
L 412.284583 7.2 
" clip-path="url(#p838fc1f47f)" style="fill: none; stroke-dasharray: 5.55,2.4; stroke-dashoffset: 0; stroke: #876cad; stroke-opacity: 0.6; stroke-width: 1.5"/>
   </g>
   <g id="legend_1">
    <g id="patch_7">
     <path d="M 64.86875 108.071875 
L 260.015625 108.071875 
Q 264.015625 108.071875 264.015625 104.071875 
L 264.015625 21.2 
Q 264.015625 17.2 260.015625 17.2 
L 64.86875 17.2 
Q 60.86875 17.2 60.86875 21.2 
L 60.86875 104.071875 
Q 60.86875 108.071875 64.86875 108.071875 
z
" style="fill: #ffffff; opacity: 0.8; stroke: #cccccc; stroke-linejoin: miter"/>
    </g>
    <g id="patch_8">
     <path d="M 68.86875 39.515625 
L 108.86875 39.515625 
L 108.86875 25.515625 
L 68.86875 25.515625 
z
" style="fill: #b2b2b2; fill-opacity: 0.3; stroke: #b2b2b2; stroke-opacity: 0.3; stroke-linejoin: miter"/>
    </g>
    <g id="text_14">
     <!-- CRPS area -->
     <g style="fill: #262626" transform="translate(124.86875 39.515625) scale(0.2 -0.2)">
      <defs>
       <path id="ArialMT-52" d="M 503 0 
L 503 4581 
L 2534 4581 
Q 3147 4581 3465 4457 
Q 3784 4334 3975 4021 
Q 4166 3709 4166 3331 
Q 4166 2844 3850 2509 
Q 3534 2175 2875 2084 
Q 3116 1969 3241 1856 
Q 3506 1613 3744 1247 
L 4541 0 
L 3778 0 
L 3172 953 
Q 2906 1366 2734 1584 
Q 2563 1803 2427 1890 
Q 2291 1978 2150 2013 
Q 2047 2034 1813 2034 
L 1109 2034 
L 1109 0 
L 503 0 
z
M 1109 2559 
L 2413 2559 
Q 2828 2559 3062 2645 
Q 3297 2731 3419 2920 
Q 3541 3109 3541 3331 
Q 3541 3656 3305 3865 
Q 3069 4075 2559 4075 
L 1109 4075 
L 1109 2559 
z
" transform="scale(0.015625)"/>
       <path id="ArialMT-53" d="M 288 1472 
L 859 1522 
Q 900 1178 1048 958 
Q 1197 738 1509 602 
Q 1822 466 2213 466 
Q 2559 466 2825 569 
Q 3091 672 3220 851 
Q 3350 1031 3350 1244 
Q 3350 1459 3225 1620 
Q 3100 1781 2813 1891 
Q 2628 1963 1997 2114 
Q 1366 2266 1113 2400 
Q 784 2572 623 2826 
Q 463 3081 463 3397 
Q 463 3744 659 4045 
Q 856 4347 1234 4503 
Q 1613 4659 2075 4659 
Q 2584 4659 2973 4495 
Q 3363 4331 3572 4012 
Q 3781 3694 3797 3291 
L 3216 3247 
Q 3169 3681 2898 3903 
Q 2628 4125 2100 4125 
Q 1550 4125 1298 3923 
Q 1047 3722 1047 3438 
Q 1047 3191 1225 3031 
Q 1400 2872 2139 2705 
Q 2878 2538 3153 2413 
Q 3553 2228 3743 1945 
Q 3934 1663 3934 1294 
Q 3934 928 3725 604 
Q 3516 281 3123 101 
Q 2731 -78 2241 -78 
Q 1619 -78 1198 103 
Q 778 284 539 648 
Q 300 1013 288 1472 
z
" transform="scale(0.015625)"/>
      </defs>
      <use xlink:href="#ArialMT-43"/>
      <use xlink:href="#ArialMT-52" transform="translate(72.216797 0)"/>
      <use xlink:href="#ArialMT-50" transform="translate(144.433594 0)"/>
      <use xlink:href="#ArialMT-53" transform="translate(211.132812 0)"/>
      <use xlink:href="#ArialMT-20" transform="translate(277.832031 0)"/>
      <use xlink:href="#ArialMT-61" transform="translate(305.615234 0)"/>
      <use xlink:href="#ArialMT-72" transform="translate(361.230469 0)"/>
      <use xlink:href="#ArialMT-65" transform="translate(394.53125 0)"/>
      <use xlink:href="#ArialMT-61" transform="translate(450.146484 0)"/>
     </g>
    </g>
    <g id="line2d_15">
     <path d="M 68.86875 60.80625 
L 88.86875 60.80625 
L 108.86875 60.80625 
" style="fill: none; stroke: #876cad; stroke-width: 2.5; stroke-linecap: round"/>
    </g>
    <g id="text_15">
     <!-- Ideal CDF -->
     <g style="fill: #262626" transform="translate(124.86875 67.80625) scale(0.2 -0.2)">
      <defs>
       <path id="ArialMT-49" d="M 597 0 
L 597 4581 
L 1203 4581 
L 1203 0 
L 597 0 
z
" transform="scale(0.015625)"/>
       <path id="ArialMT-64" d="M 2575 0 
L 2575 419 
Q 2259 -75 1647 -75 
Q 1250 -75 917 144 
Q 584 363 401 755 
Q 219 1147 219 1656 
Q 219 2153 384 2558 
Q 550 2963 881 3178 
Q 1213 3394 1622 3394 
Q 1922 3394 2156 3267 
Q 2391 3141 2538 2938 
L 2538 4581 
L 3097 4581 
L 3097 0 
L 2575 0 
z
M 797 1656 
Q 797 1019 1065 703 
Q 1334 388 1700 388 
Q 2069 388 2326 689 
Q 2584 991 2584 1609 
Q 2584 2291 2321 2609 
Q 2059 2928 1675 2928 
Q 1300 2928 1048 2622 
Q 797 2316 797 1656 
z
" transform="scale(0.015625)"/>
       <path id="ArialMT-44" d="M 494 0 
L 494 4581 
L 2072 4581 
Q 2606 4581 2888 4516 
Q 3281 4425 3559 4188 
Q 3922 3881 4101 3404 
Q 4281 2928 4281 2316 
Q 4281 1794 4159 1391 
Q 4038 988 3847 723 
Q 3656 459 3429 307 
Q 3203 156 2883 78 
Q 2563 0 2147 0 
L 494 0 
z
M 1100 541 
L 2078 541 
Q 2531 541 2789 625 
Q 3047 709 3200 863 
Q 3416 1078 3536 1442 
Q 3656 1806 3656 2325 
Q 3656 3044 3420 3430 
Q 3184 3816 2847 3947 
Q 2603 4041 2063 4041 
L 1100 4041 
L 1100 541 
z
" transform="scale(0.015625)"/>
       <path id="ArialMT-46" d="M 525 0 
L 525 4581 
L 3616 4581 
L 3616 4041 
L 1131 4041 
L 1131 2622 
L 3281 2622 
L 3281 2081 
L 1131 2081 
L 1131 0 
L 525 0 
z
" transform="scale(0.015625)"/>
      </defs>
      <use xlink:href="#ArialMT-49"/>
      <use xlink:href="#ArialMT-64" transform="translate(27.783203 0)"/>
      <use xlink:href="#ArialMT-65" transform="translate(83.398438 0)"/>
      <use xlink:href="#ArialMT-61" transform="translate(139.013672 0)"/>
      <use xlink:href="#ArialMT-6c" transform="translate(194.628906 0)"/>
      <use xlink:href="#ArialMT-20" transform="translate(216.845703 0)"/>
      <use xlink:href="#ArialMT-43" transform="translate(244.628906 0)"/>
      <use xlink:href="#ArialMT-44" transform="translate(316.845703 0)"/>
      <use xlink:href="#ArialMT-46" transform="translate(389.0625 0)"/>
     </g>
    </g>
    <g id="line2d_16">
     <path d="M 68.86875 89.096875 
L 88.86875 89.096875 
L 108.86875 89.096875 
" style="fill: none; stroke: #6ab1d0; stroke-width: 2.5; stroke-linecap: round"/>
    </g>
    <g id="text_16">
     <!-- Predicted CDF -->
     <g style="fill: #262626" transform="translate(124.86875 96.096875) scale(0.2 -0.2)">
      <defs>
       <path id="ArialMT-63" d="M 2588 1216 
L 3141 1144 
Q 3050 572 2676 248 
Q 2303 -75 1759 -75 
Q 1078 -75 664 370 
Q 250 816 250 1647 
Q 250 2184 428 2587 
Q 606 2991 970 3192 
Q 1334 3394 1763 3394 
Q 2303 3394 2647 3120 
Q 2991 2847 3088 2344 
L 2541 2259 
Q 2463 2594 2264 2762 
Q 2066 2931 1784 2931 
Q 1359 2931 1093 2626 
Q 828 2322 828 1663 
Q 828 994 1084 691 
Q 1341 388 1753 388 
Q 2084 388 2306 591 
Q 2528 794 2588 1216 
z
" transform="scale(0.015625)"/>
      </defs>
      <use xlink:href="#ArialMT-50"/>
      <use xlink:href="#ArialMT-72" transform="translate(66.699219 0)"/>
      <use xlink:href="#ArialMT-65" transform="translate(100 0)"/>
      <use xlink:href="#ArialMT-64" transform="translate(155.615234 0)"/>
      <use xlink:href="#ArialMT-69" transform="translate(211.230469 0)"/>
      <use xlink:href="#ArialMT-63" transform="translate(233.447266 0)"/>
      <use xlink:href="#ArialMT-74" transform="translate(283.447266 0)"/>
      <use xlink:href="#ArialMT-65" transform="translate(311.230469 0)"/>
      <use xlink:href="#ArialMT-64" transform="translate(366.845703 0)"/>
      <use xlink:href="#ArialMT-20" transform="translate(422.460938 0)"/>
      <use xlink:href="#ArialMT-43" transform="translate(450.244141 0)"/>
      <use xlink:href="#ArialMT-44" transform="translate(522.460938 0)"/>
      <use xlink:href="#ArialMT-46" transform="translate(594.677734 0)"/>
     </g>
    </g>
   </g>
  </g>
 </g>
 <defs>
  <clipPath id="p838fc1f47f">
   <rect x="50.86875" y="7.2" width="654.64" height="370.6"/>
  </clipPath>
 </defs>
</svg>
