<?xml version="1.0" encoding="utf-8" standalone="no"?>
<!DOCTYPE svg PUBLIC "-//W3C//DTD SVG 1.1//EN"
  "http://www.w3.org/Graphics/SVG/1.1/DTD/svg11.dtd">
<svg xmlns:xlink="http://www.w3.org/1999/xlink" width="864pt" height="288pt" viewBox="0 0 864 288" xmlns="http://www.w3.org/2000/svg" version="1.1">
 <metadata>
  <rdf:RDF xmlns:dc="http://purl.org/dc/elements/1.1/" xmlns:cc="http://creativecommons.org/ns#" xmlns:rdf="http://www.w3.org/1999/02/22-rdf-syntax-ns#">
   <cc:Work>
    <dc:type rdf:resource="http://purl.org/dc/dcmitype/StillImage"/>
    <dc:date>2026-01-08T18:02:40.657145</dc:date>
    <dc:format>image/svg+xml</dc:format>
    <dc:creator>
     <cc:Agent>
      <dc:title>Matplotlib v3.10.3, https://matplotlib.org/</dc:title>
     </cc:Agent>
    </dc:creator>
   </cc:Work>
  </rdf:RDF>
 </metadata>
 <defs>
  <style type="text/css">*{stroke-linejoin: round; stroke-linecap: butt}</style>
 </defs>
 <g id="figure_1">
  <g id="patch_1">
   <path d="M 0 288 
L 864 288 
L 864 0 
L 0 0 
z
" style="fill: #ffffff"/>
  </g>
  <g id="axes_1">
   <g id="patch_2">
    <path d="M 10.8 277.2 
L 426.6 277.2 
L 426.6 26.88 
L 10.8 26.88 
z
" style="fill: #ffffff"/>
   </g>
   <g id="line2d_1">
    <path d="M 259.786957 38.258182 
L 259.786957 210.246609 
" clip-path="url(#p4aa67de975)" style="fill: none; stroke: #000000; stroke-opacity: 0.2; stroke-width: 1.5; stroke-linecap: square"/>
   </g>
   <g id="line2d_2">
    <path d="M 276.221739 38.258182 
L 276.221739 265.821818 
" clip-path="url(#p4aa67de975)" style="fill: none; stroke: #000000; stroke-opacity: 0.2; stroke-width: 1.5; stroke-linecap: square"/>
   </g>
   <g id="line2d_3">
    <path d="M 292.656522 38.258182 
L 292.656522 258.240924 
" clip-path="url(#p4aa67de975)" style="fill: none; stroke: #000000; stroke-opacity: 0.2; stroke-width: 1.5; stroke-linecap: square"/>
   </g>
   <g id="line2d_4">
    <path d="M 309.091304 38.258182 
L 309.091304 245.459102 
" clip-path="url(#p4aa67de975)" style="fill: none; stroke: #000000; stroke-opacity: 0.2; stroke-width: 1.5; stroke-linecap: square"/>
   </g>
   <g id="line2d_5">
    <path d="M 325.526087 38.258182 
L 325.526087 228.861459 
" clip-path="url(#p4aa67de975)" style="fill: none; stroke: #000000; stroke-opacity: 0.2; stroke-width: 1.5; stroke-linecap: square"/>
   </g>
   <g id="line2d_6">
    <path d="M 341.96087 93.833391 
L 341.96087 210.246609 
" clip-path="url(#p4aa67de975)" style="fill: none; stroke: #000000; stroke-opacity: 0.2; stroke-width: 1.5; stroke-linecap: square"/>
   </g>
   <g id="line2d_7">
    <path d="M 358.395652 86.252497 
L 358.395652 210.246609 
" clip-path="url(#p4aa67de975)" style="fill: none; stroke: #000000; stroke-opacity: 0.2; stroke-width: 1.5; stroke-linecap: square"/>
   </g>
   <g id="line2d_8">
    <path d="M 374.830435 73.470675 
L 374.830435 210.246609 
" clip-path="url(#p4aa67de975)" style="fill: none; stroke: #000000; stroke-opacity: 0.2; stroke-width: 1.5; stroke-linecap: square"/>
   </g>
   <g id="line2d_9">
    <path d="M 391.265217 56.873032 
L 391.265217 210.246609 
" clip-path="url(#p4aa67de975)" style="fill: none; stroke: #000000; stroke-opacity: 0.2; stroke-width: 1.5; stroke-linecap: square"/>
   </g>
   <g id="line2d_10">
    <path d="M 407.7 38.258182 
L 407.7 210.246609 
" clip-path="url(#p4aa67de975)" style="fill: none; stroke: #000000; stroke-opacity: 0.2; stroke-width: 1.5; stroke-linecap: square"/>
   </g>
   <g id="line2d_11">
    <path d="M 29.7 38.258182 
L 46.134783 38.258182 
L 62.569565 38.258182 
L 79.004348 38.258182 
L 95.43913 38.258182 
L 111.873913 38.258182 
L 128.308696 38.258182 
L 144.743478 38.258182 
L 161.178261 38.258182 
L 177.613043 38.258182 
L 194.047826 38.258182 
L 210.482609 38.258182 
L 226.917391 38.258182 
L 243.352174 38.258182 
L 259.786957 38.258182 
L 276.221739 38.258182 
L 292.656522 38.258182 
L 309.091304 38.258182 
L 325.526087 38.258182 
L 341.96087 93.833391 
L 358.395652 86.252497 
L 374.830435 73.470675 
L 391.265217 56.873032 
L 407.7 38.258182 
" clip-path="url(#p4aa67de975)" style="fill: none; stroke: #6ab1d0; stroke-width: 1.5; stroke-linecap: square"/>
    <defs>
     <path id="mb7681875ac" d="M 0 3 
C 0.795609 3 1.55874 2.683901 2.12132 2.12132 
C 2.683901 1.55874 3 0.795609 3 0 
C 3 -0.795609 2.683901 -1.55874 2.12132 -2.12132 
C 1.55874 -2.683901 0.795609 -3 0 -3 
C -0.795609 -3 -1.55874 -2.683901 -2.12132 -2.12132 
C -2.683901 -1.55874 -3 -0.795609 -3 0 
C -3 0.795609 -2.683901 1.55874 -2.12132 2.12132 
C -1.55874 2.683901 -0.795609 3 0 3 
z
" style="stroke: #6ab1d0"/>
    </defs>
    <g clip-path="url(#p4aa67de975)">
     <use xlink:href="#mb7681875ac" x="29.7" y="38.258182" style="fill: #6ab1d0; stroke: #6ab1d0"/>
     <use xlink:href="#mb7681875ac" x="46.134783" y="38.258182" style="fill: #6ab1d0; stroke: #6ab1d0"/>
     <use xlink:href="#mb7681875ac" x="62.569565" y="38.258182" style="fill: #6ab1d0; stroke: #6ab1d0"/>
     <use xlink:href="#mb7681875ac" x="79.004348" y="38.258182" style="fill: #6ab1d0; stroke: #6ab1d0"/>
     <use xlink:href="#mb7681875ac" x="95.43913" y="38.258182" style="fill: #6ab1d0; stroke: #6ab1d0"/>
     <use xlink:href="#mb7681875ac" x="111.873913" y="38.258182" style="fill: #6ab1d0; stroke: #6ab1d0"/>
     <use xlink:href="#mb7681875ac" x="128.308696" y="38.258182" style="fill: #6ab1d0; stroke: #6ab1d0"/>
     <use xlink:href="#mb7681875ac" x="144.743478" y="38.258182" style="fill: #6ab1d0; stroke: #6ab1d0"/>
     <use xlink:href="#mb7681875ac" x="161.178261" y="38.258182" style="fill: #6ab1d0; stroke: #6ab1d0"/>
     <use xlink:href="#mb7681875ac" x="177.613043" y="38.258182" style="fill: #6ab1d0; stroke: #6ab1d0"/>
     <use xlink:href="#mb7681875ac" x="194.047826" y="38.258182" style="fill: #6ab1d0; stroke: #6ab1d0"/>
     <use xlink:href="#mb7681875ac" x="210.482609" y="38.258182" style="fill: #6ab1d0; stroke: #6ab1d0"/>
     <use xlink:href="#mb7681875ac" x="226.917391" y="38.258182" style="fill: #6ab1d0; stroke: #6ab1d0"/>
     <use xlink:href="#mb7681875ac" x="243.352174" y="38.258182" style="fill: #6ab1d0; stroke: #6ab1d0"/>
     <use xlink:href="#mb7681875ac" x="259.786957" y="38.258182" style="fill: #6ab1d0; stroke: #6ab1d0"/>
     <use xlink:href="#mb7681875ac" x="276.221739" y="38.258182" style="fill: #6ab1d0; stroke: #6ab1d0"/>
     <use xlink:href="#mb7681875ac" x="292.656522" y="38.258182" style="fill: #6ab1d0; stroke: #6ab1d0"/>
     <use xlink:href="#mb7681875ac" x="309.091304" y="38.258182" style="fill: #6ab1d0; stroke: #6ab1d0"/>
     <use xlink:href="#mb7681875ac" x="325.526087" y="38.258182" style="fill: #6ab1d0; stroke: #6ab1d0"/>
     <use xlink:href="#mb7681875ac" x="341.96087" y="93.833391" style="fill: #6ab1d0; stroke: #6ab1d0"/>
     <use xlink:href="#mb7681875ac" x="358.395652" y="86.252497" style="fill: #6ab1d0; stroke: #6ab1d0"/>
     <use xlink:href="#mb7681875ac" x="374.830435" y="73.470675" style="fill: #6ab1d0; stroke: #6ab1d0"/>
     <use xlink:href="#mb7681875ac" x="391.265217" y="56.873032" style="fill: #6ab1d0; stroke: #6ab1d0"/>
     <use xlink:href="#mb7681875ac" x="407.7" y="38.258182" style="fill: #6ab1d0; stroke: #6ab1d0"/>
    </g>
   </g>
   <g id="line2d_12">
    <path d="M 29.7 210.246609 
L 46.134783 210.246609 
L 62.569565 210.246609 
L 79.004348 210.246609 
L 95.43913 210.246609 
L 111.873913 210.246609 
L 128.308696 210.246609 
L 144.743478 210.246609 
L 161.178261 210.246609 
L 177.613043 210.246609 
L 194.047826 210.246609 
L 210.482609 210.246609 
L 226.917391 210.246609 
L 243.352174 210.246609 
L 259.786957 210.246609 
L 276.221739 265.821818 
L 292.656522 258.240924 
L 309.091304 245.459102 
L 325.526087 228.861459 
L 341.96087 210.246609 
L 358.395652 210.246609 
L 374.830435 210.246609 
L 391.265217 210.246609 
L 407.7 210.246609 
" clip-path="url(#p4aa67de975)" style="fill: none; stroke: #6ab1d0; stroke-width: 1.5; stroke-linecap: square"/>
    <g clip-path="url(#p4aa67de975)">
     <use xlink:href="#mb7681875ac" x="29.7" y="210.246609" style="fill: #6ab1d0; stroke: #6ab1d0"/>
     <use xlink:href="#mb7681875ac" x="46.134783" y="210.246609" style="fill: #6ab1d0; stroke: #6ab1d0"/>
     <use xlink:href="#mb7681875ac" x="62.569565" y="210.246609" style="fill: #6ab1d0; stroke: #6ab1d0"/>
     <use xlink:href="#mb7681875ac" x="79.004348" y="210.246609" style="fill: #6ab1d0; stroke: #6ab1d0"/>
     <use xlink:href="#mb7681875ac" x="95.43913" y="210.246609" style="fill: #6ab1d0; stroke: #6ab1d0"/>
     <use xlink:href="#mb7681875ac" x="111.873913" y="210.246609" style="fill: #6ab1d0; stroke: #6ab1d0"/>
     <use xlink:href="#mb7681875ac" x="128.308696" y="210.246609" style="fill: #6ab1d0; stroke: #6ab1d0"/>
     <use xlink:href="#mb7681875ac" x="144.743478" y="210.246609" style="fill: #6ab1d0; stroke: #6ab1d0"/>
     <use xlink:href="#mb7681875ac" x="161.178261" y="210.246609" style="fill: #6ab1d0; stroke: #6ab1d0"/>
     <use xlink:href="#mb7681875ac" x="177.613043" y="210.246609" style="fill: #6ab1d0; stroke: #6ab1d0"/>
     <use xlink:href="#mb7681875ac" x="194.047826" y="210.246609" style="fill: #6ab1d0; stroke: #6ab1d0"/>
     <use xlink:href="#mb7681875ac" x="210.482609" y="210.246609" style="fill: #6ab1d0; stroke: #6ab1d0"/>
     <use xlink:href="#mb7681875ac" x="226.917391" y="210.246609" style="fill: #6ab1d0; stroke: #6ab1d0"/>
     <use xlink:href="#mb7681875ac" x="243.352174" y="210.246609" style="fill: #6ab1d0; stroke: #6ab1d0"/>
     <use xlink:href="#mb7681875ac" x="259.786957" y="210.246609" style="fill: #6ab1d0; stroke: #6ab1d0"/>
     <use xlink:href="#mb7681875ac" x="276.221739" y="265.821818" style="fill: #6ab1d0; stroke: #6ab1d0"/>
     <use xlink:href="#mb7681875ac" x="292.656522" y="258.240924" style="fill: #6ab1d0; stroke: #6ab1d0"/>
     <use xlink:href="#mb7681875ac" x="309.091304" y="245.459102" style="fill: #6ab1d0; stroke: #6ab1d0"/>
     <use xlink:href="#mb7681875ac" x="325.526087" y="228.861459" style="fill: #6ab1d0; stroke: #6ab1d0"/>
     <use xlink:href="#mb7681875ac" x="341.96087" y="210.246609" style="fill: #6ab1d0; stroke: #6ab1d0"/>
     <use xlink:href="#mb7681875ac" x="358.395652" y="210.246609" style="fill: #6ab1d0; stroke: #6ab1d0"/>
     <use xlink:href="#mb7681875ac" x="374.830435" y="210.246609" style="fill: #6ab1d0; stroke: #6ab1d0"/>
     <use xlink:href="#mb7681875ac" x="391.265217" y="210.246609" style="fill: #6ab1d0; stroke: #6ab1d0"/>
     <use xlink:href="#mb7681875ac" x="407.7" y="210.246609" style="fill: #6ab1d0; stroke: #6ab1d0"/>
    </g>
   </g>
   <g id="matplotlib.axis_1"/>
   <g id="matplotlib.axis_2"/>
   <g id="line2d_13">
    <path d="M 29.7 38.258182 
L 46.134783 38.258182 
L 62.569565 38.258182 
L 79.004348 38.258182 
L 95.43913 38.258182 
L 111.873913 38.258182 
L 128.308696 38.258182 
L 144.743478 38.258182 
L 161.178261 38.258182 
L 177.613043 38.258182 
L 194.047826 38.258182 
L 210.482609 38.258182 
L 226.917391 38.258182 
L 243.352174 38.258182 
" clip-path="url(#p4aa67de975)" style="fill: none; stroke: #876cad; stroke-width: 1.5; stroke-linecap: square"/>
    <defs>
     <path id="m1e5524d06f" d="M 0 3 
C 0.795609 3 1.55874 2.683901 2.12132 2.12132 
C 2.683901 1.55874 3 0.795609 3 0 
C 3 -0.795609 2.683901 -1.55874 2.12132 -2.12132 
C 1.55874 -2.683901 0.795609 -3 0 -3 
C -0.795609 -3 -1.55874 -2.683901 -2.12132 -2.12132 
C -2.683901 -1.55874 -3 -0.795609 -3 0 
C -3 0.795609 -2.683901 1.55874 -2.12132 2.12132 
C -1.55874 2.683901 -0.795609 3 0 3 
z
" style="stroke: #876cad"/>
    </defs>
    <g clip-path="url(#p4aa67de975)">
     <use xlink:href="#m1e5524d06f" x="29.7" y="38.258182" style="fill: #876cad; stroke: #876cad"/>
     <use xlink:href="#m1e5524d06f" x="46.134783" y="38.258182" style="fill: #876cad; stroke: #876cad"/>
     <use xlink:href="#m1e5524d06f" x="62.569565" y="38.258182" style="fill: #876cad; stroke: #876cad"/>
     <use xlink:href="#m1e5524d06f" x="79.004348" y="38.258182" style="fill: #876cad; stroke: #876cad"/>
     <use xlink:href="#m1e5524d06f" x="95.43913" y="38.258182" style="fill: #876cad; stroke: #876cad"/>
     <use xlink:href="#m1e5524d06f" x="111.873913" y="38.258182" style="fill: #876cad; stroke: #876cad"/>
     <use xlink:href="#m1e5524d06f" x="128.308696" y="38.258182" style="fill: #876cad; stroke: #876cad"/>
     <use xlink:href="#m1e5524d06f" x="144.743478" y="38.258182" style="fill: #876cad; stroke: #876cad"/>
     <use xlink:href="#m1e5524d06f" x="161.178261" y="38.258182" style="fill: #876cad; stroke: #876cad"/>
     <use xlink:href="#m1e5524d06f" x="177.613043" y="38.258182" style="fill: #876cad; stroke: #876cad"/>
     <use xlink:href="#m1e5524d06f" x="194.047826" y="38.258182" style="fill: #876cad; stroke: #876cad"/>
     <use xlink:href="#m1e5524d06f" x="210.482609" y="38.258182" style="fill: #876cad; stroke: #876cad"/>
     <use xlink:href="#m1e5524d06f" x="226.917391" y="38.258182" style="fill: #876cad; stroke: #876cad"/>
     <use xlink:href="#m1e5524d06f" x="243.352174" y="38.258182" style="fill: #876cad; stroke: #876cad"/>
    </g>
   </g>
   <g id="line2d_14">
    <path d="M 29.7 210.246609 
L 46.134783 210.246609 
L 62.569565 210.246609 
L 79.004348 210.246609 
L 95.43913 210.246609 
L 111.873913 210.246609 
L 128.308696 210.246609 
L 144.743478 210.246609 
L 161.178261 210.246609 
L 177.613043 210.246609 
L 194.047826 210.246609 
L 210.482609 210.246609 
L 226.917391 210.246609 
L 243.352174 210.246609 
" clip-path="url(#p4aa67de975)" style="fill: none; stroke: #876cad; stroke-width: 1.5; stroke-linecap: square"/>
    <g clip-path="url(#p4aa67de975)">
     <use xlink:href="#m1e5524d06f" x="29.7" y="210.246609" style="fill: #876cad; stroke: #876cad"/>
     <use xlink:href="#m1e5524d06f" x="46.134783" y="210.246609" style="fill: #876cad; stroke: #876cad"/>
     <use xlink:href="#m1e5524d06f" x="62.569565" y="210.246609" style="fill: #876cad; stroke: #876cad"/>
     <use xlink:href="#m1e5524d06f" x="79.004348" y="210.246609" style="fill: #876cad; stroke: #876cad"/>
     <use xlink:href="#m1e5524d06f" x="95.43913" y="210.246609" style="fill: #876cad; stroke: #876cad"/>
     <use xlink:href="#m1e5524d06f" x="111.873913" y="210.246609" style="fill: #876cad; stroke: #876cad"/>
     <use xlink:href="#m1e5524d06f" x="128.308696" y="210.246609" style="fill: #876cad; stroke: #876cad"/>
     <use xlink:href="#m1e5524d06f" x="144.743478" y="210.246609" style="fill: #876cad; stroke: #876cad"/>
     <use xlink:href="#m1e5524d06f" x="161.178261" y="210.246609" style="fill: #876cad; stroke: #876cad"/>
     <use xlink:href="#m1e5524d06f" x="177.613043" y="210.246609" style="fill: #876cad; stroke: #876cad"/>
     <use xlink:href="#m1e5524d06f" x="194.047826" y="210.246609" style="fill: #876cad; stroke: #876cad"/>
     <use xlink:href="#m1e5524d06f" x="210.482609" y="210.246609" style="fill: #876cad; stroke: #876cad"/>
     <use xlink:href="#m1e5524d06f" x="226.917391" y="210.246609" style="fill: #876cad; stroke: #876cad"/>
     <use xlink:href="#m1e5524d06f" x="243.352174" y="210.246609" style="fill: #876cad; stroke: #876cad"/>
    </g>
   </g>
   <g id="patch_3">
    <path d="M 10.8 277.2 
L 10.8 26.88 
" style="fill: none; stroke: #000000; stroke-width: 0.8; stroke-linejoin: miter; stroke-linecap: square"/>
   </g>
   <g id="patch_4">
    <path d="M 426.6 277.2 
L 426.6 26.88 
" style="fill: none; stroke: #000000; stroke-width: 0.8; stroke-linejoin: miter; stroke-linecap: square"/>
   </g>
   <g id="patch_5">
    <path d="M 10.8 277.2 
L 426.6 277.2 
" style="fill: none; stroke: #000000; stroke-width: 0.8; stroke-linejoin: miter; stroke-linecap: square"/>
   </g>
   <g id="patch_6">
    <path d="M 10.8 26.88 
L 426.6 26.88 
" style="fill: none; stroke: #000000; stroke-width: 0.8; stroke-linejoin: miter; stroke-linecap: square"/>
   </g>
   <g id="text_1">
    <!-- Mean Squared Error -->
    <g transform="translate(158.985938 20.88) scale(0.12 -0.12)">
     <defs>
      <path id="DejaVuSans-4d" d="M 628 4666 
L 1569 4666 
L 2759 1491 
L 3956 4666 
L 4897 4666 
L 4897 0 
L 4281 0 
L 4281 4097 
L 3078 897 
L 2444 897 
L 1241 4097 
L 1241 0 
L 628 0 
L 628 4666 
z
" transform="scale(0.015625)"/>
      <path id="DejaVuSans-65" d="M 3597 1894 
L 3597 1613 
L 953 1613 
Q 991 1019 1311 708 
Q 1631 397 2203 397 
Q 2534 397 2845 478 
Q 3156 559 3463 722 
L 3463 178 
Q 3153 47 2828 -22 
Q 2503 -91 2169 -91 
Q 1331 -91 842 396 
Q 353 884 353 1716 
Q 353 2575 817 3079 
Q 1281 3584 2069 3584 
Q 2775 3584 3186 3129 
Q 3597 2675 3597 1894 
z
M 3022 2063 
Q 3016 2534 2758 2815 
Q 2500 3097 2075 3097 
Q 1594 3097 1305 2825 
Q 1016 2553 972 2059 
L 3022 2063 
z
" transform="scale(0.015625)"/>
      <path id="DejaVuSans-61" d="M 2194 1759 
Q 1497 1759 1228 1600 
Q 959 1441 959 1056 
Q 959 750 1161 570 
Q 1363 391 1709 391 
Q 2188 391 2477 730 
Q 2766 1069 2766 1631 
L 2766 1759 
L 2194 1759 
z
M 3341 1997 
L 3341 0 
L 2766 0 
L 2766 531 
Q 2569 213 2275 61 
Q 1981 -91 1556 -91 
Q 1019 -91 701 211 
Q 384 513 384 1019 
Q 384 1609 779 1909 
Q 1175 2209 1959 2209 
L 2766 2209 
L 2766 2266 
Q 2766 2663 2505 2880 
Q 2244 3097 1772 3097 
Q 1472 3097 1187 3025 
Q 903 2953 641 2809 
L 641 3341 
Q 956 3463 1253 3523 
Q 1550 3584 1831 3584 
Q 2591 3584 2966 3190 
Q 3341 2797 3341 1997 
z
" transform="scale(0.015625)"/>
      <path id="DejaVuSans-6e" d="M 3513 2113 
L 3513 0 
L 2938 0 
L 2938 2094 
Q 2938 2591 2744 2837 
Q 2550 3084 2163 3084 
Q 1697 3084 1428 2787 
Q 1159 2491 1159 1978 
L 1159 0 
L 581 0 
L 581 3500 
L 1159 3500 
L 1159 2956 
Q 1366 3272 1645 3428 
Q 1925 3584 2291 3584 
Q 2894 3584 3203 3211 
Q 3513 2838 3513 2113 
z
" transform="scale(0.015625)"/>
      <path id="DejaVuSans-20" transform="scale(0.015625)"/>
      <path id="DejaVuSans-53" d="M 3425 4513 
L 3425 3897 
Q 3066 4069 2747 4153 
Q 2428 4238 2131 4238 
Q 1616 4238 1336 4038 
Q 1056 3838 1056 3469 
Q 1056 3159 1242 3001 
Q 1428 2844 1947 2747 
L 2328 2669 
Q 3034 2534 3370 2195 
Q 3706 1856 3706 1288 
Q 3706 609 3251 259 
Q 2797 -91 1919 -91 
Q 1588 -91 1214 -16 
Q 841 59 441 206 
L 441 856 
Q 825 641 1194 531 
Q 1563 422 1919 422 
Q 2459 422 2753 634 
Q 3047 847 3047 1241 
Q 3047 1584 2836 1778 
Q 2625 1972 2144 2069 
L 1759 2144 
Q 1053 2284 737 2584 
Q 422 2884 422 3419 
Q 422 4038 858 4394 
Q 1294 4750 2059 4750 
Q 2388 4750 2728 4690 
Q 3069 4631 3425 4513 
z
" transform="scale(0.015625)"/>
      <path id="DejaVuSans-71" d="M 947 1747 
Q 947 1113 1208 752 
Q 1469 391 1925 391 
Q 2381 391 2643 752 
Q 2906 1113 2906 1747 
Q 2906 2381 2643 2742 
Q 2381 3103 1925 3103 
Q 1469 3103 1208 2742 
Q 947 2381 947 1747 
z
M 2906 525 
Q 2725 213 2448 61 
Q 2172 -91 1784 -91 
Q 1150 -91 751 415 
Q 353 922 353 1747 
Q 353 2572 751 3078 
Q 1150 3584 1784 3584 
Q 2172 3584 2448 3432 
Q 2725 3281 2906 2969 
L 2906 3500 
L 3481 3500 
L 3481 -1331 
L 2906 -1331 
L 2906 525 
z
" transform="scale(0.015625)"/>
      <path id="DejaVuSans-75" d="M 544 1381 
L 544 3500 
L 1119 3500 
L 1119 1403 
Q 1119 906 1312 657 
Q 1506 409 1894 409 
Q 2359 409 2629 706 
Q 2900 1003 2900 1516 
L 2900 3500 
L 3475 3500 
L 3475 0 
L 2900 0 
L 2900 538 
Q 2691 219 2414 64 
Q 2138 -91 1772 -91 
Q 1169 -91 856 284 
Q 544 659 544 1381 
z
M 1991 3584 
L 1991 3584 
z
" transform="scale(0.015625)"/>
      <path id="DejaVuSans-72" d="M 2631 2963 
Q 2534 3019 2420 3045 
Q 2306 3072 2169 3072 
Q 1681 3072 1420 2755 
Q 1159 2438 1159 1844 
L 1159 0 
L 581 0 
L 581 3500 
L 1159 3500 
L 1159 2956 
Q 1341 3275 1631 3429 
Q 1922 3584 2338 3584 
Q 2397 3584 2469 3576 
Q 2541 3569 2628 3553 
L 2631 2963 
z
" transform="scale(0.015625)"/>
      <path id="DejaVuSans-64" d="M 2906 2969 
L 2906 4863 
L 3481 4863 
L 3481 0 
L 2906 0 
L 2906 525 
Q 2725 213 2448 61 
Q 2172 -91 1784 -91 
Q 1150 -91 751 415 
Q 353 922 353 1747 
Q 353 2572 751 3078 
Q 1150 3584 1784 3584 
Q 2172 3584 2448 3432 
Q 2725 3281 2906 2969 
z
M 947 1747 
Q 947 1113 1208 752 
Q 1469 391 1925 391 
Q 2381 391 2643 752 
Q 2906 1113 2906 1747 
Q 2906 2381 2643 2742 
Q 2381 3103 1925 3103 
Q 1469 3103 1208 2742 
Q 947 2381 947 1747 
z
" transform="scale(0.015625)"/>
      <path id="DejaVuSans-45" d="M 628 4666 
L 3578 4666 
L 3578 4134 
L 1259 4134 
L 1259 2753 
L 3481 2753 
L 3481 2222 
L 1259 2222 
L 1259 531 
L 3634 531 
L 3634 0 
L 628 0 
L 628 4666 
z
" transform="scale(0.015625)"/>
      <path id="DejaVuSans-6f" d="M 1959 3097 
Q 1497 3097 1228 2736 
Q 959 2375 959 1747 
Q 959 1119 1226 758 
Q 1494 397 1959 397 
Q 2419 397 2687 759 
Q 2956 1122 2956 1747 
Q 2956 2369 2687 2733 
Q 2419 3097 1959 3097 
z
M 1959 3584 
Q 2709 3584 3137 3096 
Q 3566 2609 3566 1747 
Q 3566 888 3137 398 
Q 2709 -91 1959 -91 
Q 1206 -91 779 398 
Q 353 888 353 1747 
Q 353 2609 779 3096 
Q 1206 3584 1959 3584 
z
" transform="scale(0.015625)"/>
     </defs>
     <use xlink:href="#DejaVuSans-4d"/>
     <use xlink:href="#DejaVuSans-65" transform="translate(86.279297 0)"/>
     <use xlink:href="#DejaVuSans-61" transform="translate(147.802734 0)"/>
     <use xlink:href="#DejaVuSans-6e" transform="translate(209.082031 0)"/>
     <use xlink:href="#DejaVuSans-20" transform="translate(272.460938 0)"/>
     <use xlink:href="#DejaVuSans-53" transform="translate(304.248047 0)"/>
     <use xlink:href="#DejaVuSans-71" transform="translate(367.724609 0)"/>
     <use xlink:href="#DejaVuSans-75" transform="translate(431.201172 0)"/>
     <use xlink:href="#DejaVuSans-61" transform="translate(494.580078 0)"/>
     <use xlink:href="#DejaVuSans-72" transform="translate(555.859375 0)"/>
     <use xlink:href="#DejaVuSans-65" transform="translate(594.722656 0)"/>
     <use xlink:href="#DejaVuSans-64" transform="translate(656.246094 0)"/>
     <use xlink:href="#DejaVuSans-20" transform="translate(719.722656 0)"/>
     <use xlink:href="#DejaVuSans-45" transform="translate(751.509766 0)"/>
     <use xlink:href="#DejaVuSans-72" transform="translate(814.693359 0)"/>
     <use xlink:href="#DejaVuSans-72" transform="translate(854.056641 0)"/>
     <use xlink:href="#DejaVuSans-6f" transform="translate(892.919922 0)"/>
     <use xlink:href="#DejaVuSans-72" transform="translate(954.101562 0)"/>
    </g>
   </g>
  </g>
  <g id="axes_2">
   <g id="patch_7">
    <path d="M 437.4 277.2 
L 853.2 277.2 
L 853.2 26.88 
L 437.4 26.88 
z
" style="fill: #ffffff"/>
   </g>
   <g id="line2d_15">
    <path d="M 686.386957 38.258182 
L 686.386957 210.246609 
" clip-path="url(#pfab301b212)" style="fill: none; stroke: #000000; stroke-opacity: 0.2; stroke-width: 1.5; stroke-linecap: square"/>
   </g>
   <g id="line2d_16">
    <path d="M 702.821739 38.258182 
L 686.386957 210.246609 
" clip-path="url(#pfab301b212)" style="fill: none; stroke: #000000; stroke-opacity: 0.2; stroke-width: 1.5; stroke-linecap: square"/>
   </g>
   <g id="line2d_17">
    <path d="M 719.256522 38.258182 
L 686.386957 210.246609 
" clip-path="url(#pfab301b212)" style="fill: none; stroke: #000000; stroke-opacity: 0.2; stroke-width: 1.5; stroke-linecap: square"/>
   </g>
   <g id="line2d_18">
    <path d="M 735.691304 38.258182 
L 686.386957 210.246609 
" clip-path="url(#pfab301b212)" style="fill: none; stroke: #000000; stroke-opacity: 0.2; stroke-width: 1.5; stroke-linecap: square"/>
   </g>
   <g id="line2d_19">
    <path d="M 752.126087 38.258182 
L 686.386957 210.246609 
" clip-path="url(#pfab301b212)" style="fill: none; stroke: #000000; stroke-opacity: 0.2; stroke-width: 1.5; stroke-linecap: square"/>
   </g>
   <g id="line2d_20">
    <path d="M 768.56087 93.833391 
L 702.821739 265.821818 
" clip-path="url(#pfab301b212)" style="fill: none; stroke: #000000; stroke-opacity: 0.2; stroke-width: 1.5; stroke-linecap: square"/>
   </g>
   <g id="line2d_21">
    <path d="M 784.995652 86.252497 
L 719.256522 258.240924 
" clip-path="url(#pfab301b212)" style="fill: none; stroke: #000000; stroke-opacity: 0.2; stroke-width: 1.5; stroke-linecap: square"/>
   </g>
   <g id="line2d_22">
    <path d="M 801.430435 73.470675 
L 735.691304 245.459102 
" clip-path="url(#pfab301b212)" style="fill: none; stroke: #000000; stroke-opacity: 0.2; stroke-width: 1.5; stroke-linecap: square"/>
   </g>
   <g id="line2d_23">
    <path d="M 817.865217 56.873032 
L 752.126087 228.861459 
" clip-path="url(#pfab301b212)" style="fill: none; stroke: #000000; stroke-opacity: 0.2; stroke-width: 1.5; stroke-linecap: square"/>
   </g>
   <g id="line2d_24">
    <path d="M 834.3 38.258182 
L 768.56087 210.246609 
" clip-path="url(#pfab301b212)" style="fill: none; stroke: #000000; stroke-opacity: 0.2; stroke-width: 1.5; stroke-linecap: square"/>
   </g>
   <g id="line2d_25">
    <path d="M 834.3 38.258182 
L 784.995652 210.246609 
" clip-path="url(#pfab301b212)" style="fill: none; stroke: #000000; stroke-opacity: 0.2; stroke-width: 1.5; stroke-linecap: square"/>
   </g>
   <g id="line2d_26">
    <path d="M 834.3 38.258182 
L 801.430435 210.246609 
" clip-path="url(#pfab301b212)" style="fill: none; stroke: #000000; stroke-opacity: 0.2; stroke-width: 1.5; stroke-linecap: square"/>
   </g>
   <g id="line2d_27">
    <path d="M 834.3 38.258182 
L 817.865217 210.246609 
" clip-path="url(#pfab301b212)" style="fill: none; stroke: #000000; stroke-opacity: 0.2; stroke-width: 1.5; stroke-linecap: square"/>
   </g>
   <g id="line2d_28">
    <path d="M 834.3 38.258182 
L 834.3 210.246609 
" clip-path="url(#pfab301b212)" style="fill: none; stroke: #000000; stroke-opacity: 0.2; stroke-width: 1.5; stroke-linecap: square"/>
   </g>
   <g id="line2d_29">
    <path d="M 456.3 38.258182 
L 472.734783 38.258182 
L 489.169565 38.258182 
L 505.604348 38.258182 
L 522.03913 38.258182 
L 538.473913 38.258182 
L 554.908696 38.258182 
L 571.343478 38.258182 
L 587.778261 38.258182 
L 604.213043 38.258182 
L 620.647826 38.258182 
L 637.082609 38.258182 
L 653.517391 38.258182 
L 669.952174 38.258182 
L 686.386957 38.258182 
L 702.821739 38.258182 
L 719.256522 38.258182 
L 735.691304 38.258182 
L 752.126087 38.258182 
L 768.56087 93.833391 
L 784.995652 86.252497 
L 801.430435 73.470675 
L 817.865217 56.873032 
L 834.3 38.258182 
" clip-path="url(#pfab301b212)" style="fill: none; stroke: #6ab1d0; stroke-width: 1.5; stroke-linecap: square"/>
    <g clip-path="url(#pfab301b212)">
     <use xlink:href="#mb7681875ac" x="456.3" y="38.258182" style="fill: #6ab1d0; stroke: #6ab1d0"/>
     <use xlink:href="#mb7681875ac" x="472.734783" y="38.258182" style="fill: #6ab1d0; stroke: #6ab1d0"/>
     <use xlink:href="#mb7681875ac" x="489.169565" y="38.258182" style="fill: #6ab1d0; stroke: #6ab1d0"/>
     <use xlink:href="#mb7681875ac" x="505.604348" y="38.258182" style="fill: #6ab1d0; stroke: #6ab1d0"/>
     <use xlink:href="#mb7681875ac" x="522.03913" y="38.258182" style="fill: #6ab1d0; stroke: #6ab1d0"/>
     <use xlink:href="#mb7681875ac" x="538.473913" y="38.258182" style="fill: #6ab1d0; stroke: #6ab1d0"/>
     <use xlink:href="#mb7681875ac" x="554.908696" y="38.258182" style="fill: #6ab1d0; stroke: #6ab1d0"/>
     <use xlink:href="#mb7681875ac" x="571.343478" y="38.258182" style="fill: #6ab1d0; stroke: #6ab1d0"/>
     <use xlink:href="#mb7681875ac" x="587.778261" y="38.258182" style="fill: #6ab1d0; stroke: #6ab1d0"/>
     <use xlink:href="#mb7681875ac" x="604.213043" y="38.258182" style="fill: #6ab1d0; stroke: #6ab1d0"/>
     <use xlink:href="#mb7681875ac" x="620.647826" y="38.258182" style="fill: #6ab1d0; stroke: #6ab1d0"/>
     <use xlink:href="#mb7681875ac" x="637.082609" y="38.258182" style="fill: #6ab1d0; stroke: #6ab1d0"/>
     <use xlink:href="#mb7681875ac" x="653.517391" y="38.258182" style="fill: #6ab1d0; stroke: #6ab1d0"/>
     <use xlink:href="#mb7681875ac" x="669.952174" y="38.258182" style="fill: #6ab1d0; stroke: #6ab1d0"/>
     <use xlink:href="#mb7681875ac" x="686.386957" y="38.258182" style="fill: #6ab1d0; stroke: #6ab1d0"/>
     <use xlink:href="#mb7681875ac" x="702.821739" y="38.258182" style="fill: #6ab1d0; stroke: #6ab1d0"/>
     <use xlink:href="#mb7681875ac" x="719.256522" y="38.258182" style="fill: #6ab1d0; stroke: #6ab1d0"/>
     <use xlink:href="#mb7681875ac" x="735.691304" y="38.258182" style="fill: #6ab1d0; stroke: #6ab1d0"/>
     <use xlink:href="#mb7681875ac" x="752.126087" y="38.258182" style="fill: #6ab1d0; stroke: #6ab1d0"/>
     <use xlink:href="#mb7681875ac" x="768.56087" y="93.833391" style="fill: #6ab1d0; stroke: #6ab1d0"/>
     <use xlink:href="#mb7681875ac" x="784.995652" y="86.252497" style="fill: #6ab1d0; stroke: #6ab1d0"/>
     <use xlink:href="#mb7681875ac" x="801.430435" y="73.470675" style="fill: #6ab1d0; stroke: #6ab1d0"/>
     <use xlink:href="#mb7681875ac" x="817.865217" y="56.873032" style="fill: #6ab1d0; stroke: #6ab1d0"/>
     <use xlink:href="#mb7681875ac" x="834.3" y="38.258182" style="fill: #6ab1d0; stroke: #6ab1d0"/>
    </g>
   </g>
   <g id="line2d_30">
    <path d="M 456.3 210.246609 
L 472.734783 210.246609 
L 489.169565 210.246609 
L 505.604348 210.246609 
L 522.03913 210.246609 
L 538.473913 210.246609 
L 554.908696 210.246609 
L 571.343478 210.246609 
L 587.778261 210.246609 
L 604.213043 210.246609 
L 620.647826 210.246609 
L 637.082609 210.246609 
L 653.517391 210.246609 
L 669.952174 210.246609 
L 686.386957 210.246609 
L 702.821739 265.821818 
L 719.256522 258.240924 
L 735.691304 245.459102 
L 752.126087 228.861459 
L 768.56087 210.246609 
L 784.995652 210.246609 
L 801.430435 210.246609 
L 817.865217 210.246609 
L 834.3 210.246609 
" clip-path="url(#pfab301b212)" style="fill: none; stroke: #6ab1d0; stroke-width: 1.5; stroke-linecap: square"/>
    <g clip-path="url(#pfab301b212)">
     <use xlink:href="#mb7681875ac" x="456.3" y="210.246609" style="fill: #6ab1d0; stroke: #6ab1d0"/>
     <use xlink:href="#mb7681875ac" x="472.734783" y="210.246609" style="fill: #6ab1d0; stroke: #6ab1d0"/>
     <use xlink:href="#mb7681875ac" x="489.169565" y="210.246609" style="fill: #6ab1d0; stroke: #6ab1d0"/>
     <use xlink:href="#mb7681875ac" x="505.604348" y="210.246609" style="fill: #6ab1d0; stroke: #6ab1d0"/>
     <use xlink:href="#mb7681875ac" x="522.03913" y="210.246609" style="fill: #6ab1d0; stroke: #6ab1d0"/>
     <use xlink:href="#mb7681875ac" x="538.473913" y="210.246609" style="fill: #6ab1d0; stroke: #6ab1d0"/>
     <use xlink:href="#mb7681875ac" x="554.908696" y="210.246609" style="fill: #6ab1d0; stroke: #6ab1d0"/>
     <use xlink:href="#mb7681875ac" x="571.343478" y="210.246609" style="fill: #6ab1d0; stroke: #6ab1d0"/>
     <use xlink:href="#mb7681875ac" x="587.778261" y="210.246609" style="fill: #6ab1d0; stroke: #6ab1d0"/>
     <use xlink:href="#mb7681875ac" x="604.213043" y="210.246609" style="fill: #6ab1d0; stroke: #6ab1d0"/>
     <use xlink:href="#mb7681875ac" x="620.647826" y="210.246609" style="fill: #6ab1d0; stroke: #6ab1d0"/>
     <use xlink:href="#mb7681875ac" x="637.082609" y="210.246609" style="fill: #6ab1d0; stroke: #6ab1d0"/>
     <use xlink:href="#mb7681875ac" x="653.517391" y="210.246609" style="fill: #6ab1d0; stroke: #6ab1d0"/>
     <use xlink:href="#mb7681875ac" x="669.952174" y="210.246609" style="fill: #6ab1d0; stroke: #6ab1d0"/>
     <use xlink:href="#mb7681875ac" x="686.386957" y="210.246609" style="fill: #6ab1d0; stroke: #6ab1d0"/>
     <use xlink:href="#mb7681875ac" x="702.821739" y="265.821818" style="fill: #6ab1d0; stroke: #6ab1d0"/>
     <use xlink:href="#mb7681875ac" x="719.256522" y="258.240924" style="fill: #6ab1d0; stroke: #6ab1d0"/>
     <use xlink:href="#mb7681875ac" x="735.691304" y="245.459102" style="fill: #6ab1d0; stroke: #6ab1d0"/>
     <use xlink:href="#mb7681875ac" x="752.126087" y="228.861459" style="fill: #6ab1d0; stroke: #6ab1d0"/>
     <use xlink:href="#mb7681875ac" x="768.56087" y="210.246609" style="fill: #6ab1d0; stroke: #6ab1d0"/>
     <use xlink:href="#mb7681875ac" x="784.995652" y="210.246609" style="fill: #6ab1d0; stroke: #6ab1d0"/>
     <use xlink:href="#mb7681875ac" x="801.430435" y="210.246609" style="fill: #6ab1d0; stroke: #6ab1d0"/>
     <use xlink:href="#mb7681875ac" x="817.865217" y="210.246609" style="fill: #6ab1d0; stroke: #6ab1d0"/>
     <use xlink:href="#mb7681875ac" x="834.3" y="210.246609" style="fill: #6ab1d0; stroke: #6ab1d0"/>
    </g>
   </g>
   <g id="matplotlib.axis_3"/>
   <g id="matplotlib.axis_4"/>
   <g id="line2d_31">
    <path d="M 456.3 38.258182 
L 472.734783 38.258182 
L 489.169565 38.258182 
L 505.604348 38.258182 
L 522.03913 38.258182 
L 538.473913 38.258182 
L 554.908696 38.258182 
L 571.343478 38.258182 
L 587.778261 38.258182 
L 604.213043 38.258182 
L 620.647826 38.258182 
L 637.082609 38.258182 
L 653.517391 38.258182 
L 669.952174 38.258182 
" clip-path="url(#pfab301b212)" style="fill: none; stroke: #876cad; stroke-width: 1.5; stroke-linecap: square"/>
    <g clip-path="url(#pfab301b212)">
     <use xlink:href="#m1e5524d06f" x="456.3" y="38.258182" style="fill: #876cad; stroke: #876cad"/>
     <use xlink:href="#m1e5524d06f" x="472.734783" y="38.258182" style="fill: #876cad; stroke: #876cad"/>
     <use xlink:href="#m1e5524d06f" x="489.169565" y="38.258182" style="fill: #876cad; stroke: #876cad"/>
     <use xlink:href="#m1e5524d06f" x="505.604348" y="38.258182" style="fill: #876cad; stroke: #876cad"/>
     <use xlink:href="#m1e5524d06f" x="522.03913" y="38.258182" style="fill: #876cad; stroke: #876cad"/>
     <use xlink:href="#m1e5524d06f" x="538.473913" y="38.258182" style="fill: #876cad; stroke: #876cad"/>
     <use xlink:href="#m1e5524d06f" x="554.908696" y="38.258182" style="fill: #876cad; stroke: #876cad"/>
     <use xlink:href="#m1e5524d06f" x="571.343478" y="38.258182" style="fill: #876cad; stroke: #876cad"/>
     <use xlink:href="#m1e5524d06f" x="587.778261" y="38.258182" style="fill: #876cad; stroke: #876cad"/>
     <use xlink:href="#m1e5524d06f" x="604.213043" y="38.258182" style="fill: #876cad; stroke: #876cad"/>
     <use xlink:href="#m1e5524d06f" x="620.647826" y="38.258182" style="fill: #876cad; stroke: #876cad"/>
     <use xlink:href="#m1e5524d06f" x="637.082609" y="38.258182" style="fill: #876cad; stroke: #876cad"/>
     <use xlink:href="#m1e5524d06f" x="653.517391" y="38.258182" style="fill: #876cad; stroke: #876cad"/>
     <use xlink:href="#m1e5524d06f" x="669.952174" y="38.258182" style="fill: #876cad; stroke: #876cad"/>
    </g>
   </g>
   <g id="line2d_32">
    <path d="M 456.3 210.246609 
L 472.734783 210.246609 
L 489.169565 210.246609 
L 505.604348 210.246609 
L 522.03913 210.246609 
L 538.473913 210.246609 
L 554.908696 210.246609 
L 571.343478 210.246609 
L 587.778261 210.246609 
L 604.213043 210.246609 
L 620.647826 210.246609 
L 637.082609 210.246609 
L 653.517391 210.246609 
L 669.952174 210.246609 
" clip-path="url(#pfab301b212)" style="fill: none; stroke: #876cad; stroke-width: 1.5; stroke-linecap: square"/>
    <g clip-path="url(#pfab301b212)">
     <use xlink:href="#m1e5524d06f" x="456.3" y="210.246609" style="fill: #876cad; stroke: #876cad"/>
     <use xlink:href="#m1e5524d06f" x="472.734783" y="210.246609" style="fill: #876cad; stroke: #876cad"/>
     <use xlink:href="#m1e5524d06f" x="489.169565" y="210.246609" style="fill: #876cad; stroke: #876cad"/>
     <use xlink:href="#m1e5524d06f" x="505.604348" y="210.246609" style="fill: #876cad; stroke: #876cad"/>
     <use xlink:href="#m1e5524d06f" x="522.03913" y="210.246609" style="fill: #876cad; stroke: #876cad"/>
     <use xlink:href="#m1e5524d06f" x="538.473913" y="210.246609" style="fill: #876cad; stroke: #876cad"/>
     <use xlink:href="#m1e5524d06f" x="554.908696" y="210.246609" style="fill: #876cad; stroke: #876cad"/>
     <use xlink:href="#m1e5524d06f" x="571.343478" y="210.246609" style="fill: #876cad; stroke: #876cad"/>
     <use xlink:href="#m1e5524d06f" x="587.778261" y="210.246609" style="fill: #876cad; stroke: #876cad"/>
     <use xlink:href="#m1e5524d06f" x="604.213043" y="210.246609" style="fill: #876cad; stroke: #876cad"/>
     <use xlink:href="#m1e5524d06f" x="620.647826" y="210.246609" style="fill: #876cad; stroke: #876cad"/>
     <use xlink:href="#m1e5524d06f" x="637.082609" y="210.246609" style="fill: #876cad; stroke: #876cad"/>
     <use xlink:href="#m1e5524d06f" x="653.517391" y="210.246609" style="fill: #876cad; stroke: #876cad"/>
     <use xlink:href="#m1e5524d06f" x="669.952174" y="210.246609" style="fill: #876cad; stroke: #876cad"/>
    </g>
   </g>
   <g id="patch_8">
    <path d="M 437.4 277.2 
L 437.4 26.88 
" style="fill: none; stroke: #000000; stroke-width: 0.8; stroke-linejoin: miter; stroke-linecap: square"/>
   </g>
   <g id="patch_9">
    <path d="M 853.2 277.2 
L 853.2 26.88 
" style="fill: none; stroke: #000000; stroke-width: 0.8; stroke-linejoin: miter; stroke-linecap: square"/>
   </g>
   <g id="patch_10">
    <path d="M 437.4 277.2 
L 853.2 277.2 
" style="fill: none; stroke: #000000; stroke-width: 0.8; stroke-linejoin: miter; stroke-linecap: square"/>
   </g>
   <g id="patch_11">
    <path d="M 437.4 26.88 
L 853.2 26.88 
" style="fill: none; stroke: #000000; stroke-width: 0.8; stroke-linejoin: miter; stroke-linecap: square"/>
   </g>
   <g id="text_2">
    <!-- Dynamic Time Warping -->
    <g transform="translate(575.564063 20.88) scale(0.12 -0.12)">
     <defs>
      <path id="DejaVuSans-44" d="M 1259 4147 
L 1259 519 
L 2022 519 
Q 2988 519 3436 956 
Q 3884 1394 3884 2338 
Q 3884 3275 3436 3711 
Q 2988 4147 2022 4147 
L 1259 4147 
z
M 628 4666 
L 1925 4666 
Q 3281 4666 3915 4102 
Q 4550 3538 4550 2338 
Q 4550 1131 3912 565 
Q 3275 0 1925 0 
L 628 0 
L 628 4666 
z
" transform="scale(0.015625)"/>
      <path id="DejaVuSans-79" d="M 2059 -325 
Q 1816 -950 1584 -1140 
Q 1353 -1331 966 -1331 
L 506 -1331 
L 506 -850 
L 844 -850 
Q 1081 -850 1212 -737 
Q 1344 -625 1503 -206 
L 1606 56 
L 191 3500 
L 800 3500 
L 1894 763 
L 2988 3500 
L 3597 3500 
L 2059 -325 
z
" transform="scale(0.015625)"/>
      <path id="DejaVuSans-6d" d="M 3328 2828 
Q 3544 3216 3844 3400 
Q 4144 3584 4550 3584 
Q 5097 3584 5394 3201 
Q 5691 2819 5691 2113 
L 5691 0 
L 5113 0 
L 5113 2094 
Q 5113 2597 4934 2840 
Q 4756 3084 4391 3084 
Q 3944 3084 3684 2787 
Q 3425 2491 3425 1978 
L 3425 0 
L 2847 0 
L 2847 2094 
Q 2847 2600 2669 2842 
Q 2491 3084 2119 3084 
Q 1678 3084 1418 2786 
Q 1159 2488 1159 1978 
L 1159 0 
L 581 0 
L 581 3500 
L 1159 3500 
L 1159 2956 
Q 1356 3278 1631 3431 
Q 1906 3584 2284 3584 
Q 2666 3584 2933 3390 
Q 3200 3197 3328 2828 
z
" transform="scale(0.015625)"/>
      <path id="DejaVuSans-69" d="M 603 3500 
L 1178 3500 
L 1178 0 
L 603 0 
L 603 3500 
z
M 603 4863 
L 1178 4863 
L 1178 4134 
L 603 4134 
L 603 4863 
z
" transform="scale(0.015625)"/>
      <path id="DejaVuSans-63" d="M 3122 3366 
L 3122 2828 
Q 2878 2963 2633 3030 
Q 2388 3097 2138 3097 
Q 1578 3097 1268 2742 
Q 959 2388 959 1747 
Q 959 1106 1268 751 
Q 1578 397 2138 397 
Q 2388 397 2633 464 
Q 2878 531 3122 666 
L 3122 134 
Q 2881 22 2623 -34 
Q 2366 -91 2075 -91 
Q 1284 -91 818 406 
Q 353 903 353 1747 
Q 353 2603 823 3093 
Q 1294 3584 2113 3584 
Q 2378 3584 2631 3529 
Q 2884 3475 3122 3366 
z
" transform="scale(0.015625)"/>
      <path id="DejaVuSans-54" d="M -19 4666 
L 3928 4666 
L 3928 4134 
L 2272 4134 
L 2272 0 
L 1638 0 
L 1638 4134 
L -19 4134 
L -19 4666 
z
" transform="scale(0.015625)"/>
      <path id="DejaVuSans-57" d="M 213 4666 
L 850 4666 
L 1831 722 
L 2809 4666 
L 3519 4666 
L 4500 722 
L 5478 4666 
L 6119 4666 
L 4947 0 
L 4153 0 
L 3169 4050 
L 2175 0 
L 1381 0 
L 213 4666 
z
" transform="scale(0.015625)"/>
      <path id="DejaVuSans-70" d="M 1159 525 
L 1159 -1331 
L 581 -1331 
L 581 3500 
L 1159 3500 
L 1159 2969 
Q 1341 3281 1617 3432 
Q 1894 3584 2278 3584 
Q 2916 3584 3314 3078 
Q 3713 2572 3713 1747 
Q 3713 922 3314 415 
Q 2916 -91 2278 -91 
Q 1894 -91 1617 61 
Q 1341 213 1159 525 
z
M 3116 1747 
Q 3116 2381 2855 2742 
Q 2594 3103 2138 3103 
Q 1681 3103 1420 2742 
Q 1159 2381 1159 1747 
Q 1159 1113 1420 752 
Q 1681 391 2138 391 
Q 2594 391 2855 752 
Q 3116 1113 3116 1747 
z
" transform="scale(0.015625)"/>
      <path id="DejaVuSans-67" d="M 2906 1791 
Q 2906 2416 2648 2759 
Q 2391 3103 1925 3103 
Q 1463 3103 1205 2759 
Q 947 2416 947 1791 
Q 947 1169 1205 825 
Q 1463 481 1925 481 
Q 2391 481 2648 825 
Q 2906 1169 2906 1791 
z
M 3481 434 
Q 3481 -459 3084 -895 
Q 2688 -1331 1869 -1331 
Q 1566 -1331 1297 -1286 
Q 1028 -1241 775 -1147 
L 775 -588 
Q 1028 -725 1275 -790 
Q 1522 -856 1778 -856 
Q 2344 -856 2625 -561 
Q 2906 -266 2906 331 
L 2906 616 
Q 2728 306 2450 153 
Q 2172 0 1784 0 
Q 1141 0 747 490 
Q 353 981 353 1791 
Q 353 2603 747 3093 
Q 1141 3584 1784 3584 
Q 2172 3584 2450 3431 
Q 2728 3278 2906 2969 
L 2906 3500 
L 3481 3500 
L 3481 434 
z
" transform="scale(0.015625)"/>
     </defs>
     <use xlink:href="#DejaVuSans-44"/>
     <use xlink:href="#DejaVuSans-79" transform="translate(77.001953 0)"/>
     <use xlink:href="#DejaVuSans-6e" transform="translate(136.181641 0)"/>
     <use xlink:href="#DejaVuSans-61" transform="translate(199.560547 0)"/>
     <use xlink:href="#DejaVuSans-6d" transform="translate(260.839844 0)"/>
     <use xlink:href="#DejaVuSans-69" transform="translate(358.251953 0)"/>
     <use xlink:href="#DejaVuSans-63" transform="translate(386.035156 0)"/>
     <use xlink:href="#DejaVuSans-20" transform="translate(441.015625 0)"/>
     <use xlink:href="#DejaVuSans-54" transform="translate(472.802734 0)"/>
     <use xlink:href="#DejaVuSans-69" transform="translate(530.761719 0)"/>
     <use xlink:href="#DejaVuSans-6d" transform="translate(558.544922 0)"/>
     <use xlink:href="#DejaVuSans-65" transform="translate(655.957031 0)"/>
     <use xlink:href="#DejaVuSans-20" transform="translate(717.480469 0)"/>
     <use xlink:href="#DejaVuSans-57" transform="translate(749.267578 0)"/>
     <use xlink:href="#DejaVuSans-61" transform="translate(841.769531 0)"/>
     <use xlink:href="#DejaVuSans-72" transform="translate(903.048828 0)"/>
     <use xlink:href="#DejaVuSans-70" transform="translate(944.162109 0)"/>
     <use xlink:href="#DejaVuSans-69" transform="translate(1007.638672 0)"/>
     <use xlink:href="#DejaVuSans-6e" transform="translate(1035.421875 0)"/>
     <use xlink:href="#DejaVuSans-67" transform="translate(1098.800781 0)"/>
    </g>
   </g>
  </g>
 </g>
 <defs>
  <clipPath id="p4aa67de975">
   <rect x="10.8" y="26.88" width="415.8" height="250.32"/>
  </clipPath>
  <clipPath id="pfab301b212">
   <rect x="437.4" y="26.88" width="415.8" height="250.32"/>
  </clipPath>
 </defs>
</svg>
