<?xml version="1.0" encoding="utf-8" standalone="no"?>
<!DOCTYPE svg PUBLIC "-//W3C//DTD SVG 1.1//EN"
  "http://www.w3.org/Graphics/SVG/1.1/DTD/svg11.dtd">
<svg xmlns:xlink="http://www.w3.org/1999/xlink" width="460.8pt" height="345.6pt" viewBox="0 0 460.8 345.6" xmlns="http://www.w3.org/2000/svg" version="1.1">
 <metadata>
  <rdf:RDF xmlns:dc="http://purl.org/dc/elements/1.1/" xmlns:cc="http://creativecommons.org/ns#" xmlns:rdf="http://www.w3.org/1999/02/22-rdf-syntax-ns#">
   <cc:Work>
    <dc:type rdf:resource="http://purl.org/dc/dcmitype/StillImage"/>
    <dc:date>2026-01-28T12:12:18.335835</dc:date>
    <dc:format>image/svg+xml</dc:format>
    <dc:creator>
     <cc:Agent>
      <dc:title>Matplotlib v3.10.8, https://matplotlib.org/</dc:title>
     </cc:Agent>
    </dc:creator>
   </cc:Work>
  </rdf:RDF>
 </metadata>
 <defs>
  <style type="text/css">*{stroke-linejoin: round; stroke-linecap: butt}</style>
 </defs>
 <g id="figure_1">
  <g id="patch_1">
   <path d="M 0 345.6 
L 460.8 345.6 
L 460.8 0 
L 0 0 
z
" style="fill: #ffffff"/>
  </g>
  <g id="axes_1">
   <g id="patch_2">
    <path d="M 33.64 157.11 
L 450 157.11 
L 450 26.88 
L 33.64 26.88 
z
" style="fill: #ffffff"/>
   </g>
   <g id="matplotlib.axis_1">
    <g id="xtick_1">
     <g id="line2d_1">
      <defs>
       <path id="m8c1e43f9a4" d="M 0 0 
L 0 3.5 
" style="stroke: #000000; stroke-width: 0.8"/>
      </defs>
      <g>
       <use xlink:href="#m8c1e43f9a4" x="52.565455" y="157.11" style="stroke: #000000; stroke-width: 0.8"/>
      </g>
     </g>
    </g>
    <g id="xtick_2">
     <g id="line2d_2">
      <g>
       <use xlink:href="#m8c1e43f9a4" x="121.636457" y="157.11" style="stroke: #000000; stroke-width: 0.8"/>
      </g>
     </g>
    </g>
    <g id="xtick_3">
     <g id="line2d_3">
      <g>
       <use xlink:href="#m8c1e43f9a4" x="190.707459" y="157.11" style="stroke: #000000; stroke-width: 0.8"/>
      </g>
     </g>
    </g>
    <g id="xtick_4">
     <g id="line2d_4">
      <g>
       <use xlink:href="#m8c1e43f9a4" x="259.778461" y="157.11" style="stroke: #000000; stroke-width: 0.8"/>
      </g>
     </g>
    </g>
    <g id="xtick_5">
     <g id="line2d_5">
      <g>
       <use xlink:href="#m8c1e43f9a4" x="328.849463" y="157.11" style="stroke: #000000; stroke-width: 0.8"/>
      </g>
     </g>
    </g>
    <g id="xtick_6">
     <g id="line2d_6">
      <g>
       <use xlink:href="#m8c1e43f9a4" x="397.920464" y="157.11" style="stroke: #000000; stroke-width: 0.8"/>
      </g>
     </g>
    </g>
   </g>
   <g id="matplotlib.axis_2">
    <g id="ytick_1">
     <g id="line2d_7">
      <defs>
       <path id="me10672d903" d="M 0 0 
L -3.5 0 
" style="stroke: #000000; stroke-width: 0.8"/>
      </defs>
      <g>
       <use xlink:href="#me10672d903" x="33.64" y="151.190455" style="stroke: #000000; stroke-width: 0.8"/>
      </g>
     </g>
     <g id="text_1">
      <!-- 0.0 -->
      <g transform="translate(10.736875 154.989673) scale(0.1 -0.1)">
       <defs>
        <path id="DejaVuSans-30" d="M 2034 4250 
Q 1547 4250 1301 3770 
Q 1056 3291 1056 2328 
Q 1056 1369 1301 889 
Q 1547 409 2034 409 
Q 2525 409 2770 889 
Q 3016 1369 3016 2328 
Q 3016 3291 2770 3770 
Q 2525 4250 2034 4250 
z
M 2034 4750 
Q 2819 4750 3233 4129 
Q 3647 3509 3647 2328 
Q 3647 1150 3233 529 
Q 2819 -91 2034 -91 
Q 1250 -91 836 529 
Q 422 1150 422 2328 
Q 422 3509 836 4129 
Q 1250 4750 2034 4750 
z
" transform="scale(0.015625)"/>
        <path id="DejaVuSans-2e" d="M 684 794 
L 1344 794 
L 1344 0 
L 684 0 
L 684 794 
z
" transform="scale(0.015625)"/>
       </defs>
       <use xlink:href="#DejaVuSans-30"/>
       <use xlink:href="#DejaVuSans-2e" transform="translate(63.623047 0)"/>
       <use xlink:href="#DejaVuSans-30" transform="translate(95.410156 0)"/>
      </g>
     </g>
    </g>
    <g id="ytick_2">
     <g id="line2d_8">
      <g>
       <use xlink:href="#me10672d903" x="33.64" y="127.512273" style="stroke: #000000; stroke-width: 0.8"/>
      </g>
     </g>
     <g id="text_2">
      <!-- 0.2 -->
      <g transform="translate(10.736875 131.311491) scale(0.1 -0.1)">
       <defs>
        <path id="DejaVuSans-32" d="M 1228 531 
L 3431 531 
L 3431 0 
L 469 0 
L 469 531 
Q 828 903 1448 1529 
Q 2069 2156 2228 2338 
Q 2531 2678 2651 2914 
Q 2772 3150 2772 3378 
Q 2772 3750 2511 3984 
Q 2250 4219 1831 4219 
Q 1534 4219 1204 4116 
Q 875 4013 500 3803 
L 500 4441 
Q 881 4594 1212 4672 
Q 1544 4750 1819 4750 
Q 2544 4750 2975 4387 
Q 3406 4025 3406 3419 
Q 3406 3131 3298 2873 
Q 3191 2616 2906 2266 
Q 2828 2175 2409 1742 
Q 1991 1309 1228 531 
z
" transform="scale(0.015625)"/>
       </defs>
       <use xlink:href="#DejaVuSans-30"/>
       <use xlink:href="#DejaVuSans-2e" transform="translate(63.623047 0)"/>
       <use xlink:href="#DejaVuSans-32" transform="translate(95.410156 0)"/>
      </g>
     </g>
    </g>
    <g id="ytick_3">
     <g id="line2d_9">
      <g>
       <use xlink:href="#me10672d903" x="33.64" y="103.834091" style="stroke: #000000; stroke-width: 0.8"/>
      </g>
     </g>
     <g id="text_3">
      <!-- 0.4 -->
      <g transform="translate(10.736875 107.63331) scale(0.1 -0.1)">
       <defs>
        <path id="DejaVuSans-34" d="M 2419 4116 
L 825 1625 
L 2419 1625 
L 2419 4116 
z
M 2253 4666 
L 3047 4666 
L 3047 1625 
L 3713 1625 
L 3713 1100 
L 3047 1100 
L 3047 0 
L 2419 0 
L 2419 1100 
L 313 1100 
L 313 1709 
L 2253 4666 
z
" transform="scale(0.015625)"/>
       </defs>
       <use xlink:href="#DejaVuSans-30"/>
       <use xlink:href="#DejaVuSans-2e" transform="translate(63.623047 0)"/>
       <use xlink:href="#DejaVuSans-34" transform="translate(95.410156 0)"/>
      </g>
     </g>
    </g>
    <g id="ytick_4">
     <g id="line2d_10">
      <g>
       <use xlink:href="#me10672d903" x="33.64" y="80.155909" style="stroke: #000000; stroke-width: 0.8"/>
      </g>
     </g>
     <g id="text_4">
      <!-- 0.6 -->
      <g transform="translate(10.736875 83.955128) scale(0.1 -0.1)">
       <defs>
        <path id="DejaVuSans-36" d="M 2113 2584 
Q 1688 2584 1439 2293 
Q 1191 2003 1191 1497 
Q 1191 994 1439 701 
Q 1688 409 2113 409 
Q 2538 409 2786 701 
Q 3034 994 3034 1497 
Q 3034 2003 2786 2293 
Q 2538 2584 2113 2584 
z
M 3366 4563 
L 3366 3988 
Q 3128 4100 2886 4159 
Q 2644 4219 2406 4219 
Q 1781 4219 1451 3797 
Q 1122 3375 1075 2522 
Q 1259 2794 1537 2939 
Q 1816 3084 2150 3084 
Q 2853 3084 3261 2657 
Q 3669 2231 3669 1497 
Q 3669 778 3244 343 
Q 2819 -91 2113 -91 
Q 1303 -91 875 529 
Q 447 1150 447 2328 
Q 447 3434 972 4092 
Q 1497 4750 2381 4750 
Q 2619 4750 2861 4703 
Q 3103 4656 3366 4563 
z
" transform="scale(0.015625)"/>
       </defs>
       <use xlink:href="#DejaVuSans-30"/>
       <use xlink:href="#DejaVuSans-2e" transform="translate(63.623047 0)"/>
       <use xlink:href="#DejaVuSans-36" transform="translate(95.410156 0)"/>
      </g>
     </g>
    </g>
    <g id="ytick_5">
     <g id="line2d_11">
      <g>
       <use xlink:href="#me10672d903" x="33.64" y="56.477727" style="stroke: #000000; stroke-width: 0.8"/>
      </g>
     </g>
     <g id="text_5">
      <!-- 0.8 -->
      <g transform="translate(10.736875 60.276946) scale(0.1 -0.1)">
       <defs>
        <path id="DejaVuSans-38" d="M 2034 2216 
Q 1584 2216 1326 1975 
Q 1069 1734 1069 1313 
Q 1069 891 1326 650 
Q 1584 409 2034 409 
Q 2484 409 2743 651 
Q 3003 894 3003 1313 
Q 3003 1734 2745 1975 
Q 2488 2216 2034 2216 
z
M 1403 2484 
Q 997 2584 770 2862 
Q 544 3141 544 3541 
Q 544 4100 942 4425 
Q 1341 4750 2034 4750 
Q 2731 4750 3128 4425 
Q 3525 4100 3525 3541 
Q 3525 3141 3298 2862 
Q 3072 2584 2669 2484 
Q 3125 2378 3379 2068 
Q 3634 1759 3634 1313 
Q 3634 634 3220 271 
Q 2806 -91 2034 -91 
Q 1263 -91 848 271 
Q 434 634 434 1313 
Q 434 1759 690 2068 
Q 947 2378 1403 2484 
z
M 1172 3481 
Q 1172 3119 1398 2916 
Q 1625 2713 2034 2713 
Q 2441 2713 2670 2916 
Q 2900 3119 2900 3481 
Q 2900 3844 2670 4047 
Q 2441 4250 2034 4250 
Q 1625 4250 1398 4047 
Q 1172 3844 1172 3481 
z
" transform="scale(0.015625)"/>
       </defs>
       <use xlink:href="#DejaVuSans-30"/>
       <use xlink:href="#DejaVuSans-2e" transform="translate(63.623047 0)"/>
       <use xlink:href="#DejaVuSans-38" transform="translate(95.410156 0)"/>
      </g>
     </g>
    </g>
    <g id="ytick_6">
     <g id="line2d_12">
      <g>
       <use xlink:href="#me10672d903" x="33.64" y="32.799545" style="stroke: #000000; stroke-width: 0.8"/>
      </g>
     </g>
     <g id="text_6">
      <!-- 1.0 -->
      <g transform="translate(10.736875 36.598764) scale(0.1 -0.1)">
       <defs>
        <path id="DejaVuSans-31" d="M 794 531 
L 1825 531 
L 1825 4091 
L 703 3866 
L 703 4441 
L 1819 4666 
L 2450 4666 
L 2450 531 
L 3481 531 
L 3481 0 
L 794 0 
L 794 531 
z
" transform="scale(0.015625)"/>
       </defs>
       <use xlink:href="#DejaVuSans-31"/>
       <use xlink:href="#DejaVuSans-2e" transform="translate(63.623047 0)"/>
       <use xlink:href="#DejaVuSans-30" transform="translate(95.410156 0)"/>
      </g>
     </g>
    </g>
   </g>
   <g id="line2d_13">
    <path d="M 52.565455 98.683779 
L 53.946875 98.099956 
L 55.328295 98.604974 
L 56.709715 99.288087 
L 58.091135 98.708863 
L 59.472555 99.62191 
L 60.853975 98.680853 
L 62.235395 99.284116 
L 63.616815 98.570275 
L 64.998235 99.181273 
L 66.379655 98.61459 
L 67.761075 99.09118 
L 69.142495 97.369393 
L 70.523915 99.222452 
L 73.286755 98.972242 
L 74.668175 97.967012 
L 76.049595 98.612081 
L 77.431015 97.275538 
L 78.812435 98.644272 
L 80.193855 97.987288 
L 81.575275 99.259032 
L 82.956695 99.292059 
L 85.719536 98.641973 
L 87.100956 98.889465 
L 88.482376 98.778052 
L 89.863796 100.201343 
L 91.245216 99.304183 
L 92.626636 100.04248 
L 95.389476 97.956561 
L 96.770896 99.254642 
L 98.152316 98.360199 
L 99.533736 99.476424 
L 100.915156 99.24231 
L 102.296576 98.399915 
L 103.677996 100.201761 
L 105.059416 98.04937 
L 106.440836 98.583653 
L 107.822256 98.704682 
L 109.203676 100.002346 
L 110.585096 98.677717 
L 111.966516 99.921033 
L 113.347936 98.436287 
L 114.729356 98.608946 
L 116.110776 98.113961 
L 117.492196 98.463879 
L 118.873616 99.614803 
L 120.255036 99.083446 
L 121.636457 99.36522 
L 123.017877 97.780766 
L 124.399297 99.421449 
L 125.780717 98.66204 
L 128.543557 98.563795 
L 131.306397 98.667475 
L 132.687817 98.763838 
L 134.069237 97.813793 
L 135.450657 99.818399 
L 136.832077 98.688796 
L 138.213497 98.377758 
L 139.594917 100.129646 
L 140.976337 98.968897 
L 142.357757 98.440885 
L 143.739177 98.383402 
L 145.120597 98.800627 
L 146.502017 98.430434 
L 147.883437 98.835745 
L 149.264857 97.157854 
L 150.646277 98.978722 
L 152.027697 97.5987 
L 153.409117 98.639674 
L 154.790537 97.867514 
L 156.171958 99.5592 
L 157.553378 98.424163 
L 158.934798 98.210115 
L 160.316218 98.64469 
L 163.079058 98.851422 
L 164.460478 97.329677 
L 165.841898 98.33637 
L 167.223318 99.066097 
L 168.604738 97.702379 
L 169.986158 98.838253 
L 171.367578 97.404928 
L 172.748998 98.398034 
L 174.130418 99.036414 
L 175.511838 99.10644 
L 176.893258 97.19527 
L 178.274678 97.268013 
L 179.656098 89.994574 
L 181.037518 64.910869 
L 182.418938 37.764029 
L 183.800358 32.799545 
L 185.181778 33.140266 
L 186.563198 44.112297 
L 189.326038 136.669079 
L 190.707459 148.456331 
L 192.088879 151.190455 
L 193.470299 150.565452 
L 194.851719 150.538278 
L 196.233139 150.651155 
L 197.614559 148.755245 
L 198.995979 150.667877 
L 200.377399 150.268628 
L 201.758819 150.847644 
L 203.140239 150.460937 
L 204.521659 149.114778 
L 205.903079 150.623981 
L 207.284499 150.525736 
L 208.665919 148.903657 
L 210.047339 147.77489 
L 211.428759 147.563769 
L 212.810179 149.112688 
L 214.191599 149.980166 
L 216.954439 148.149055 
L 219.717279 147.394454 
L 221.098699 148.537853 
L 222.480119 147.946295 
L 223.861539 146.763181 
L 225.24296 147.402815 
L 226.62438 146.526976 
L 228.0058 146.593866 
L 229.38722 146.775722 
L 230.76864 146.037843 
L 232.15006 145.605149 
L 233.53148 146.108914 
L 234.9129 144.014424 
L 236.29432 145.901973 
L 237.67574 143.585911 
L 239.05716 144.672872 
L 240.43858 143.092598 
L 241.82 144.202552 
L 243.20142 142.271107 
L 244.58284 142.183314 
L 247.34568 143.257733 
L 248.7271 141.092173 
L 250.10852 141.301204 
L 251.48994 140.285314 
L 252.87136 138.928703 
L 254.25278 140.178708 
L 255.6342 140.153624 
L 257.01562 138.257714 
L 258.39704 137.421591 
L 259.778461 138.036141 
L 261.159881 137.27945 
L 262.541301 138.16574 
L 263.922721 137.089231 
L 265.304141 135.201683 
L 266.685561 135.985548 
L 268.066981 134.635209 
L 269.448401 132.649625 
L 270.829821 133.5587 
L 272.211241 132.516681 
L 273.592661 131.74912 
L 274.974081 130.630177 
L 276.355501 130.711281 
L 277.736921 129.552623 
L 279.118341 129.033599 
L 280.499761 128.33251 
L 281.881181 127.449354 
L 283.262601 127.244086 
L 284.644021 127.707926 
L 286.025441 125.939733 
L 287.406861 125.812016 
L 291.551121 123.913388 
L 292.932541 124.625138 
L 294.313962 122.680524 
L 295.695382 122.124502 
L 297.076802 121.046112 
L 298.458222 121.113001 
L 299.839642 119.49343 
L 301.221062 118.681763 
L 302.602482 117.183848 
L 303.983902 117.971267 
L 305.365322 117.482762 
L 306.746742 116.648938 
L 308.128162 116.032088 
L 309.509582 115.604411 
L 310.891002 115.591451 
L 312.272422 114.06239 
L 313.653842 114.03208 
L 315.035262 113.776059 
L 316.416682 112.745642 
L 319.179522 112.550867 
L 320.560942 110.855313 
L 321.942362 110.636583 
L 324.705202 109.694146 
L 326.086622 108.986284 
L 327.468042 109.120482 
L 328.849463 108.655597 
L 331.612303 109.453259 
L 332.993723 109.170858 
L 334.375143 107.22708 
L 335.756563 107.295642 
L 337.137983 107.57658 
L 338.519403 106.183598 
L 339.900823 106.031005 
L 341.282243 106.441124 
L 342.663663 107.062364 
L 344.045083 105.680043 
L 345.426503 105.048142 
L 346.807923 105.325108 
L 348.189343 104.847055 
L 349.570763 104.937356 
L 350.952183 103.567577 
L 353.715023 104.055873 
L 355.096443 103.557752 
L 356.477863 102.828025 
L 357.859283 103.382584 
L 359.240703 103.350602 
L 360.622123 104.370046 
L 362.003543 103.845797 
L 363.384964 102.162471 
L 364.766384 103.374014 
L 366.147804 101.203437 
L 367.529224 101.094323 
L 368.910644 102.426477 
L 370.292064 101.732285 
L 371.673484 102.173341 
L 373.054904 101.267192 
L 374.436324 101.033913 
L 375.817744 102.278065 
L 377.199164 100.363342 
L 378.580584 100.129855 
L 379.962004 100.760501 
L 381.343424 101.852478 
L 384.106264 101.057743 
L 385.487684 100.363969 
L 386.869104 100.584079 
L 388.250524 101.001513 
L 389.631944 99.543314 
L 391.013364 100.663092 
L 392.394784 101.046246 
L 393.776204 101.708247 
L 395.157624 99.289969 
L 396.539044 99.786417 
L 397.920464 100.055858 
L 399.301885 99.823624 
L 400.683305 98.855602 
L 402.064725 99.455939 
L 403.446145 101.159541 
L 404.827565 100.474547 
L 406.208985 98.968897 
L 407.590405 99.695698 
L 408.971825 98.405977 
L 410.353245 100.612507 
L 411.734665 100.29687 
L 413.116085 100.584915 
L 414.497505 98.653888 
L 415.878925 100.417481 
L 417.260345 100.776178 
L 418.641765 99.135495 
L 420.023185 98.125249 
L 421.404605 99.237084 
L 422.786025 99.354559 
L 424.167445 99.73395 
L 425.548865 99.20134 
L 426.930285 100.079896 
L 428.311705 98.623787 
L 429.693125 98.766137 
L 431.074545 99.027844 
L 431.074545 99.027844 
" clip-path="url(#pfce4120f90)" style="fill: none; stroke: #1f77b4; stroke-width: 1.5; stroke-linecap: square"/>
   </g>
   <g id="line2d_14">
    <path d="M 176.893258 96.670548 
L 178.274678 94.678979 
L 179.656098 89.323418 
L 181.037518 68.364501 
L 182.418938 42.294231 
L 183.800358 32.827975 
L 185.181778 32.799545 
L 186.563198 42.818724 
L 187.944618 92.084599 
L 189.326038 138.04505 
L 190.707459 149.712721 
L 192.088879 151.190455 
L 193.470299 150.506182 
L 194.851719 149.313815 
L 196.233139 147.520187 
L 197.614559 147.311978 
L 198.995979 147.877716 
L 200.377399 148.608385 
L 201.758819 149.665733 
L 203.140239 150.487176 
" clip-path="url(#pfce4120f90)" style="fill: none; stroke: #ff7f0e; stroke-width: 2; stroke-linecap: square"/>
   </g>
   <g id="line2d_15">
    <path d="M 176.893258 157.11 
L 176.893258 26.88 
" clip-path="url(#pfce4120f90)" style="fill: none; stroke-dasharray: 5.55,2.4; stroke-dashoffset: 0; stroke: #000000; stroke-opacity: 0.25; stroke-width: 1.5"/>
   </g>
   <g id="patch_3">
    <path d="M 33.64 157.11 
L 33.64 26.88 
" style="fill: none; stroke: #000000; stroke-width: 0.8; stroke-linejoin: miter; stroke-linecap: square"/>
   </g>
   <g id="patch_4">
    <path d="M 450 157.11 
L 450 26.88 
" style="fill: none; stroke: #000000; stroke-width: 0.8; stroke-linejoin: miter; stroke-linecap: square"/>
   </g>
   <g id="patch_5">
    <path d="M 33.64 157.11 
L 450 157.11 
" style="fill: none; stroke: #000000; stroke-width: 0.8; stroke-linejoin: miter; stroke-linecap: square"/>
   </g>
   <g id="patch_6">
    <path d="M 33.64 26.88 
L 450 26.88 
" style="fill: none; stroke: #000000; stroke-width: 0.8; stroke-linejoin: miter; stroke-linecap: square"/>
   </g>
   <g id="text_7">
    <!-- The aligned extracted shapelet -->
    <g transform="translate(148.214375 20.88) scale(0.12 -0.12)">
     <defs>
      <path id="DejaVuSans-54" d="M -19 4666 
L 3928 4666 
L 3928 4134 
L 2272 4134 
L 2272 0 
L 1638 0 
L 1638 4134 
L -19 4134 
L -19 4666 
z
" transform="scale(0.015625)"/>
      <path id="DejaVuSans-68" d="M 3513 2113 
L 3513 0 
L 2938 0 
L 2938 2094 
Q 2938 2591 2744 2837 
Q 2550 3084 2163 3084 
Q 1697 3084 1428 2787 
Q 1159 2491 1159 1978 
L 1159 0 
L 581 0 
L 581 4863 
L 1159 4863 
L 1159 2956 
Q 1366 3272 1645 3428 
Q 1925 3584 2291 3584 
Q 2894 3584 3203 3211 
Q 3513 2838 3513 2113 
z
" transform="scale(0.015625)"/>
      <path id="DejaVuSans-65" d="M 3597 1894 
L 3597 1613 
L 953 1613 
Q 991 1019 1311 708 
Q 1631 397 2203 397 
Q 2534 397 2845 478 
Q 3156 559 3463 722 
L 3463 178 
Q 3153 47 2828 -22 
Q 2503 -91 2169 -91 
Q 1331 -91 842 396 
Q 353 884 353 1716 
Q 353 2575 817 3079 
Q 1281 3584 2069 3584 
Q 2775 3584 3186 3129 
Q 3597 2675 3597 1894 
z
M 3022 2063 
Q 3016 2534 2758 2815 
Q 2500 3097 2075 3097 
Q 1594 3097 1305 2825 
Q 1016 2553 972 2059 
L 3022 2063 
z
" transform="scale(0.015625)"/>
      <path id="DejaVuSans-20" transform="scale(0.015625)"/>
      <path id="DejaVuSans-61" d="M 2194 1759 
Q 1497 1759 1228 1600 
Q 959 1441 959 1056 
Q 959 750 1161 570 
Q 1363 391 1709 391 
Q 2188 391 2477 730 
Q 2766 1069 2766 1631 
L 2766 1759 
L 2194 1759 
z
M 3341 1997 
L 3341 0 
L 2766 0 
L 2766 531 
Q 2569 213 2275 61 
Q 1981 -91 1556 -91 
Q 1019 -91 701 211 
Q 384 513 384 1019 
Q 384 1609 779 1909 
Q 1175 2209 1959 2209 
L 2766 2209 
L 2766 2266 
Q 2766 2663 2505 2880 
Q 2244 3097 1772 3097 
Q 1472 3097 1187 3025 
Q 903 2953 641 2809 
L 641 3341 
Q 956 3463 1253 3523 
Q 1550 3584 1831 3584 
Q 2591 3584 2966 3190 
Q 3341 2797 3341 1997 
z
" transform="scale(0.015625)"/>
      <path id="DejaVuSans-6c" d="M 603 4863 
L 1178 4863 
L 1178 0 
L 603 0 
L 603 4863 
z
" transform="scale(0.015625)"/>
      <path id="DejaVuSans-69" d="M 603 3500 
L 1178 3500 
L 1178 0 
L 603 0 
L 603 3500 
z
M 603 4863 
L 1178 4863 
L 1178 4134 
L 603 4134 
L 603 4863 
z
" transform="scale(0.015625)"/>
      <path id="DejaVuSans-67" d="M 2906 1791 
Q 2906 2416 2648 2759 
Q 2391 3103 1925 3103 
Q 1463 3103 1205 2759 
Q 947 2416 947 1791 
Q 947 1169 1205 825 
Q 1463 481 1925 481 
Q 2391 481 2648 825 
Q 2906 1169 2906 1791 
z
M 3481 434 
Q 3481 -459 3084 -895 
Q 2688 -1331 1869 -1331 
Q 1566 -1331 1297 -1286 
Q 1028 -1241 775 -1147 
L 775 -588 
Q 1028 -725 1275 -790 
Q 1522 -856 1778 -856 
Q 2344 -856 2625 -561 
Q 2906 -266 2906 331 
L 2906 616 
Q 2728 306 2450 153 
Q 2172 0 1784 0 
Q 1141 0 747 490 
Q 353 981 353 1791 
Q 353 2603 747 3093 
Q 1141 3584 1784 3584 
Q 2172 3584 2450 3431 
Q 2728 3278 2906 2969 
L 2906 3500 
L 3481 3500 
L 3481 434 
z
" transform="scale(0.015625)"/>
      <path id="DejaVuSans-6e" d="M 3513 2113 
L 3513 0 
L 2938 0 
L 2938 2094 
Q 2938 2591 2744 2837 
Q 2550 3084 2163 3084 
Q 1697 3084 1428 2787 
Q 1159 2491 1159 1978 
L 1159 0 
L 581 0 
L 581 3500 
L 1159 3500 
L 1159 2956 
Q 1366 3272 1645 3428 
Q 1925 3584 2291 3584 
Q 2894 3584 3203 3211 
Q 3513 2838 3513 2113 
z
" transform="scale(0.015625)"/>
      <path id="DejaVuSans-64" d="M 2906 2969 
L 2906 4863 
L 3481 4863 
L 3481 0 
L 2906 0 
L 2906 525 
Q 2725 213 2448 61 
Q 2172 -91 1784 -91 
Q 1150 -91 751 415 
Q 353 922 353 1747 
Q 353 2572 751 3078 
Q 1150 3584 1784 3584 
Q 2172 3584 2448 3432 
Q 2725 3281 2906 2969 
z
M 947 1747 
Q 947 1113 1208 752 
Q 1469 391 1925 391 
Q 2381 391 2643 752 
Q 2906 1113 2906 1747 
Q 2906 2381 2643 2742 
Q 2381 3103 1925 3103 
Q 1469 3103 1208 2742 
Q 947 2381 947 1747 
z
" transform="scale(0.015625)"/>
      <path id="DejaVuSans-78" d="M 3513 3500 
L 2247 1797 
L 3578 0 
L 2900 0 
L 1881 1375 
L 863 0 
L 184 0 
L 1544 1831 
L 300 3500 
L 978 3500 
L 1906 2253 
L 2834 3500 
L 3513 3500 
z
" transform="scale(0.015625)"/>
      <path id="DejaVuSans-74" d="M 1172 4494 
L 1172 3500 
L 2356 3500 
L 2356 3053 
L 1172 3053 
L 1172 1153 
Q 1172 725 1289 603 
Q 1406 481 1766 481 
L 2356 481 
L 2356 0 
L 1766 0 
Q 1100 0 847 248 
Q 594 497 594 1153 
L 594 3053 
L 172 3053 
L 172 3500 
L 594 3500 
L 594 4494 
L 1172 4494 
z
" transform="scale(0.015625)"/>
      <path id="DejaVuSans-72" d="M 2631 2963 
Q 2534 3019 2420 3045 
Q 2306 3072 2169 3072 
Q 1681 3072 1420 2755 
Q 1159 2438 1159 1844 
L 1159 0 
L 581 0 
L 581 3500 
L 1159 3500 
L 1159 2956 
Q 1341 3275 1631 3429 
Q 1922 3584 2338 3584 
Q 2397 3584 2469 3576 
Q 2541 3569 2628 3553 
L 2631 2963 
z
" transform="scale(0.015625)"/>
      <path id="DejaVuSans-63" d="M 3122 3366 
L 3122 2828 
Q 2878 2963 2633 3030 
Q 2388 3097 2138 3097 
Q 1578 3097 1268 2742 
Q 959 2388 959 1747 
Q 959 1106 1268 751 
Q 1578 397 2138 397 
Q 2388 397 2633 464 
Q 2878 531 3122 666 
L 3122 134 
Q 2881 22 2623 -34 
Q 2366 -91 2075 -91 
Q 1284 -91 818 406 
Q 353 903 353 1747 
Q 353 2603 823 3093 
Q 1294 3584 2113 3584 
Q 2378 3584 2631 3529 
Q 2884 3475 3122 3366 
z
" transform="scale(0.015625)"/>
      <path id="DejaVuSans-73" d="M 2834 3397 
L 2834 2853 
Q 2591 2978 2328 3040 
Q 2066 3103 1784 3103 
Q 1356 3103 1142 2972 
Q 928 2841 928 2578 
Q 928 2378 1081 2264 
Q 1234 2150 1697 2047 
L 1894 2003 
Q 2506 1872 2764 1633 
Q 3022 1394 3022 966 
Q 3022 478 2636 193 
Q 2250 -91 1575 -91 
Q 1294 -91 989 -36 
Q 684 19 347 128 
L 347 722 
Q 666 556 975 473 
Q 1284 391 1588 391 
Q 1994 391 2212 530 
Q 2431 669 2431 922 
Q 2431 1156 2273 1281 
Q 2116 1406 1581 1522 
L 1381 1569 
Q 847 1681 609 1914 
Q 372 2147 372 2553 
Q 372 3047 722 3315 
Q 1072 3584 1716 3584 
Q 2034 3584 2315 3537 
Q 2597 3491 2834 3397 
z
" transform="scale(0.015625)"/>
      <path id="DejaVuSans-70" d="M 1159 525 
L 1159 -1331 
L 581 -1331 
L 581 3500 
L 1159 3500 
L 1159 2969 
Q 1341 3281 1617 3432 
Q 1894 3584 2278 3584 
Q 2916 3584 3314 3078 
Q 3713 2572 3713 1747 
Q 3713 922 3314 415 
Q 2916 -91 2278 -91 
Q 1894 -91 1617 61 
Q 1341 213 1159 525 
z
M 3116 1747 
Q 3116 2381 2855 2742 
Q 2594 3103 2138 3103 
Q 1681 3103 1420 2742 
Q 1159 2381 1159 1747 
Q 1159 1113 1420 752 
Q 1681 391 2138 391 
Q 2594 391 2855 752 
Q 3116 1113 3116 1747 
z
" transform="scale(0.015625)"/>
     </defs>
     <use xlink:href="#DejaVuSans-54"/>
     <use xlink:href="#DejaVuSans-68" transform="translate(61.083984 0)"/>
     <use xlink:href="#DejaVuSans-65" transform="translate(124.462891 0)"/>
     <use xlink:href="#DejaVuSans-20" transform="translate(185.986328 0)"/>
     <use xlink:href="#DejaVuSans-61" transform="translate(217.773438 0)"/>
     <use xlink:href="#DejaVuSans-6c" transform="translate(279.052734 0)"/>
     <use xlink:href="#DejaVuSans-69" transform="translate(306.835938 0)"/>
     <use xlink:href="#DejaVuSans-67" transform="translate(334.619141 0)"/>
     <use xlink:href="#DejaVuSans-6e" transform="translate(398.095703 0)"/>
     <use xlink:href="#DejaVuSans-65" transform="translate(461.474609 0)"/>
     <use xlink:href="#DejaVuSans-64" transform="translate(522.998047 0)"/>
     <use xlink:href="#DejaVuSans-20" transform="translate(586.474609 0)"/>
     <use xlink:href="#DejaVuSans-65" transform="translate(618.261719 0)"/>
     <use xlink:href="#DejaVuSans-78" transform="translate(678.035156 0)"/>
     <use xlink:href="#DejaVuSans-74" transform="translate(737.214844 0)"/>
     <use xlink:href="#DejaVuSans-72" transform="translate(776.423828 0)"/>
     <use xlink:href="#DejaVuSans-61" transform="translate(817.537109 0)"/>
     <use xlink:href="#DejaVuSans-63" transform="translate(878.816406 0)"/>
     <use xlink:href="#DejaVuSans-74" transform="translate(933.796875 0)"/>
     <use xlink:href="#DejaVuSans-65" transform="translate(973.005859 0)"/>
     <use xlink:href="#DejaVuSans-64" transform="translate(1034.529297 0)"/>
     <use xlink:href="#DejaVuSans-20" transform="translate(1098.005859 0)"/>
     <use xlink:href="#DejaVuSans-73" transform="translate(1129.792969 0)"/>
     <use xlink:href="#DejaVuSans-68" transform="translate(1181.892578 0)"/>
     <use xlink:href="#DejaVuSans-61" transform="translate(1245.271484 0)"/>
     <use xlink:href="#DejaVuSans-70" transform="translate(1306.550781 0)"/>
     <use xlink:href="#DejaVuSans-65" transform="translate(1370.027344 0)"/>
     <use xlink:href="#DejaVuSans-6c" transform="translate(1431.550781 0)"/>
     <use xlink:href="#DejaVuSans-65" transform="translate(1459.333984 0)"/>
     <use xlink:href="#DejaVuSans-74" transform="translate(1520.857422 0)"/>
    </g>
   </g>
  </g>
  <g id="axes_2">
   <g id="patch_7">
    <path d="M 33.64 317.72 
L 450 317.72 
L 450 187.49 
L 33.64 187.49 
z
" style="fill: #ffffff"/>
   </g>
   <g id="matplotlib.axis_3">
    <g id="xtick_7">
     <g id="line2d_16">
      <g>
       <use xlink:href="#m8c1e43f9a4" x="52.565455" y="317.72" style="stroke: #000000; stroke-width: 0.8"/>
      </g>
     </g>
     <g id="text_8">
      <!-- 0 -->
      <g transform="translate(49.384205 332.318437) scale(0.1 -0.1)">
       <use xlink:href="#DejaVuSans-30"/>
      </g>
     </g>
    </g>
    <g id="xtick_8">
     <g id="line2d_17">
      <g>
       <use xlink:href="#m8c1e43f9a4" x="121.636457" y="317.72" style="stroke: #000000; stroke-width: 0.8"/>
      </g>
     </g>
     <g id="text_9">
      <!-- 50 -->
      <g transform="translate(115.273957 332.318437) scale(0.1 -0.1)">
       <defs>
        <path id="DejaVuSans-35" d="M 691 4666 
L 3169 4666 
L 3169 4134 
L 1269 4134 
L 1269 2991 
Q 1406 3038 1543 3061 
Q 1681 3084 1819 3084 
Q 2600 3084 3056 2656 
Q 3513 2228 3513 1497 
Q 3513 744 3044 326 
Q 2575 -91 1722 -91 
Q 1428 -91 1123 -41 
Q 819 9 494 109 
L 494 744 
Q 775 591 1075 516 
Q 1375 441 1709 441 
Q 2250 441 2565 725 
Q 2881 1009 2881 1497 
Q 2881 1984 2565 2268 
Q 2250 2553 1709 2553 
Q 1456 2553 1204 2497 
Q 953 2441 691 2322 
L 691 4666 
z
" transform="scale(0.015625)"/>
       </defs>
       <use xlink:href="#DejaVuSans-35"/>
       <use xlink:href="#DejaVuSans-30" transform="translate(63.623047 0)"/>
      </g>
     </g>
    </g>
    <g id="xtick_9">
     <g id="line2d_18">
      <g>
       <use xlink:href="#m8c1e43f9a4" x="190.707459" y="317.72" style="stroke: #000000; stroke-width: 0.8"/>
      </g>
     </g>
     <g id="text_10">
      <!-- 100 -->
      <g transform="translate(181.163709 332.318437) scale(0.1 -0.1)">
       <use xlink:href="#DejaVuSans-31"/>
       <use xlink:href="#DejaVuSans-30" transform="translate(63.623047 0)"/>
       <use xlink:href="#DejaVuSans-30" transform="translate(127.246094 0)"/>
      </g>
     </g>
    </g>
    <g id="xtick_10">
     <g id="line2d_19">
      <g>
       <use xlink:href="#m8c1e43f9a4" x="259.778461" y="317.72" style="stroke: #000000; stroke-width: 0.8"/>
      </g>
     </g>
     <g id="text_11">
      <!-- 150 -->
      <g transform="translate(250.234711 332.318437) scale(0.1 -0.1)">
       <use xlink:href="#DejaVuSans-31"/>
       <use xlink:href="#DejaVuSans-35" transform="translate(63.623047 0)"/>
       <use xlink:href="#DejaVuSans-30" transform="translate(127.246094 0)"/>
      </g>
     </g>
    </g>
    <g id="xtick_11">
     <g id="line2d_20">
      <g>
       <use xlink:href="#m8c1e43f9a4" x="328.849463" y="317.72" style="stroke: #000000; stroke-width: 0.8"/>
      </g>
     </g>
     <g id="text_12">
      <!-- 200 -->
      <g transform="translate(319.305713 332.318437) scale(0.1 -0.1)">
       <use xlink:href="#DejaVuSans-32"/>
       <use xlink:href="#DejaVuSans-30" transform="translate(63.623047 0)"/>
       <use xlink:href="#DejaVuSans-30" transform="translate(127.246094 0)"/>
      </g>
     </g>
    </g>
    <g id="xtick_12">
     <g id="line2d_21">
      <g>
       <use xlink:href="#m8c1e43f9a4" x="397.920464" y="317.72" style="stroke: #000000; stroke-width: 0.8"/>
      </g>
     </g>
     <g id="text_13">
      <!-- 250 -->
      <g transform="translate(388.376714 332.318437) scale(0.1 -0.1)">
       <use xlink:href="#DejaVuSans-32"/>
       <use xlink:href="#DejaVuSans-35" transform="translate(63.623047 0)"/>
       <use xlink:href="#DejaVuSans-30" transform="translate(127.246094 0)"/>
      </g>
     </g>
    </g>
   </g>
   <g id="matplotlib.axis_4">
    <g id="ytick_7">
     <g id="line2d_22">
      <g>
       <use xlink:href="#me10672d903" x="33.64" y="315.233351" style="stroke: #000000; stroke-width: 0.8"/>
      </g>
     </g>
     <g id="text_14">
      <!-- 0.0 -->
      <g transform="translate(10.736875 319.03257) scale(0.1 -0.1)">
       <use xlink:href="#DejaVuSans-30"/>
       <use xlink:href="#DejaVuSans-2e" transform="translate(63.623047 0)"/>
       <use xlink:href="#DejaVuSans-30" transform="translate(95.410156 0)"/>
      </g>
     </g>
    </g>
    <g id="ytick_8">
     <g id="line2d_23">
      <g>
       <use xlink:href="#me10672d903" x="33.64" y="291.083591" style="stroke: #000000; stroke-width: 0.8"/>
      </g>
     </g>
     <g id="text_15">
      <!-- 0.5 -->
      <g transform="translate(10.736875 294.882809) scale(0.1 -0.1)">
       <use xlink:href="#DejaVuSans-30"/>
       <use xlink:href="#DejaVuSans-2e" transform="translate(63.623047 0)"/>
       <use xlink:href="#DejaVuSans-35" transform="translate(95.410156 0)"/>
      </g>
     </g>
    </g>
    <g id="ytick_9">
     <g id="line2d_24">
      <g>
       <use xlink:href="#me10672d903" x="33.64" y="266.93383" style="stroke: #000000; stroke-width: 0.8"/>
      </g>
     </g>
     <g id="text_16">
      <!-- 1.0 -->
      <g transform="translate(10.736875 270.733049) scale(0.1 -0.1)">
       <use xlink:href="#DejaVuSans-31"/>
       <use xlink:href="#DejaVuSans-2e" transform="translate(63.623047 0)"/>
       <use xlink:href="#DejaVuSans-30" transform="translate(95.410156 0)"/>
      </g>
     </g>
    </g>
    <g id="ytick_10">
     <g id="line2d_25">
      <g>
       <use xlink:href="#me10672d903" x="33.64" y="242.78407" style="stroke: #000000; stroke-width: 0.8"/>
      </g>
     </g>
     <g id="text_17">
      <!-- 1.5 -->
      <g transform="translate(10.736875 246.583289) scale(0.1 -0.1)">
       <use xlink:href="#DejaVuSans-31"/>
       <use xlink:href="#DejaVuSans-2e" transform="translate(63.623047 0)"/>
       <use xlink:href="#DejaVuSans-35" transform="translate(95.410156 0)"/>
      </g>
     </g>
    </g>
    <g id="ytick_11">
     <g id="line2d_26">
      <g>
       <use xlink:href="#me10672d903" x="33.64" y="218.63431" style="stroke: #000000; stroke-width: 0.8"/>
      </g>
     </g>
     <g id="text_18">
      <!-- 2.0 -->
      <g transform="translate(10.736875 222.433528) scale(0.1 -0.1)">
       <use xlink:href="#DejaVuSans-32"/>
       <use xlink:href="#DejaVuSans-2e" transform="translate(63.623047 0)"/>
       <use xlink:href="#DejaVuSans-30" transform="translate(95.410156 0)"/>
      </g>
     </g>
    </g>
    <g id="ytick_12">
     <g id="line2d_27">
      <g>
       <use xlink:href="#me10672d903" x="33.64" y="194.484549" style="stroke: #000000; stroke-width: 0.8"/>
      </g>
     </g>
     <g id="text_19">
      <!-- 2.5 -->
      <g transform="translate(10.736875 198.283768) scale(0.1 -0.1)">
       <use xlink:href="#DejaVuSans-32"/>
       <use xlink:href="#DejaVuSans-2e" transform="translate(63.623047 0)"/>
       <use xlink:href="#DejaVuSans-35" transform="translate(95.410156 0)"/>
      </g>
     </g>
    </g>
   </g>
   <g id="line2d_28">
    <path d="M 52.565455 230.097992 
L 53.946875 230.02704 
L 64.998235 230.676562 
L 67.761075 231.172718 
L 70.523915 231.227992 
L 73.286755 230.956273 
L 78.812435 230.715082 
L 81.575275 230.310402 
L 84.338115 230.343086 
L 85.719536 230.583415 
L 88.482376 230.689094 
L 91.245216 230.5006 
L 94.008056 230.486473 
L 95.389476 230.634328 
L 100.915156 230.366393 
L 102.296576 230.250888 
L 105.059416 230.419396 
L 106.440836 230.558139 
L 111.966516 230.320603 
L 113.347936 230.460351 
L 124.399297 230.543704 
L 125.780717 230.334314 
L 127.162137 230.297111 
L 128.543557 230.095042 
L 131.306397 229.976629 
L 135.450657 230.134262 
L 136.832077 230.262422 
L 139.594917 230.349444 
L 140.976337 230.488063 
L 143.739177 230.564886 
L 146.502017 230.241829 
L 149.264857 230.298553 
L 152.027697 229.973502 
L 153.409117 229.136527 
L 154.790537 224.89268 
L 158.934798 199.427052 
L 160.316218 193.668469 
L 161.697638 193.409545 
L 164.460478 196.866123 
L 165.841898 198.442112 
L 167.223318 200.194859 
L 168.604738 202.977564 
L 169.986158 208.861773 
L 171.367578 219.788398 
L 172.748998 235.959928 
L 174.130418 257.128035 
L 176.893258 311.800455 
L 178.274678 282.930006 
L 179.656098 256.533744 
L 181.037518 235.955419 
L 182.418938 221.327566 
L 183.800358 213.684374 
L 185.181778 210.74581 
L 187.944618 210.078663 
L 189.326038 207.826624 
L 190.707459 206.822704 
L 192.088879 206.636412 
L 197.614559 206.971137 
L 198.995979 207.182194 
L 201.758819 207.905215 
L 203.140239 208.117126 
L 207.284499 208.427118 
L 210.047339 208.929752 
L 212.810179 209.10468 
L 215.573019 209.657981 
L 218.335859 210.175516 
L 221.098699 210.59405 
L 230.76864 212.825115 
L 233.53148 213.554623 
L 234.9129 213.923399 
L 236.29432 214.078503 
L 241.82 215.535597 
L 243.20142 216.043149 
L 245.96426 216.63969 
L 248.7271 217.567257 
L 251.48994 218.143302 
L 254.25278 218.436871 
L 257.01562 219.161951 
L 261.159881 220.658273 
L 262.541301 221.152473 
L 265.304141 222.294421 
L 272.211241 224.645507 
L 274.974081 225.108166 
L 277.736921 225.462799 
L 281.881181 225.941959 
L 283.262601 225.996675 
L 287.406861 226.695939 
L 290.169701 227.467624 
L 292.932541 228.397149 
L 295.695382 228.878121 
L 298.458222 229.080503 
L 301.221062 229.240558 
L 305.365322 229.661541 
L 306.746742 229.887494 
L 309.509582 230.012114 
L 312.272422 230.460948 
L 315.035262 230.926418 
L 316.416682 231.22464 
L 317.798102 231.304826 
L 320.560942 231.119349 
L 321.942362 230.845857 
L 324.705202 230.650928 
L 326.086622 230.620071 
L 330.230883 230.854885 
L 332.993723 230.698643 
L 335.756563 230.889682 
L 337.137983 230.83238 
L 338.519403 230.974149 
L 341.282243 230.945493 
L 345.426503 231.225979 
L 346.807923 231.208189 
L 349.570763 230.947998 
L 352.333603 230.33476 
L 353.715023 230.243627 
L 355.096443 230.400218 
L 356.477863 230.721383 
L 357.859283 230.928265 
L 363.384964 230.804277 
L 364.766384 230.78475 
L 366.147804 230.895206 
L 367.529224 231.196926 
L 370.292064 231.09765 
L 375.817744 230.515563 
L 378.580584 230.810479 
L 381.343424 230.666788 
L 382.724844 230.346437 
L 385.487684 230.50999 
L 386.869104 230.658915 
L 388.250524 230.680325 
L 391.013364 231.225324 
L 392.394784 231.085375 
L 393.776204 230.773709 
L 396.539044 230.731179 
L 399.301885 230.889875 
L 400.683305 230.877241 
L 403.446145 230.470728 
L 403.446145 230.470728 
" clip-path="url(#p73ca527b45)" style="fill: none; stroke: #1f77b4; stroke-width: 1.5; stroke-linecap: square"/>
   </g>
   <g id="line2d_29">
    <path d="M 176.893258 317.72 
L 176.893258 187.49 
" clip-path="url(#p73ca527b45)" style="fill: none; stroke-dasharray: 5.55,2.4; stroke-dashoffset: 0; stroke: #000000; stroke-opacity: 0.25; stroke-width: 1.5"/>
   </g>
   <g id="patch_8">
    <path d="M 33.64 317.72 
L 33.64 187.49 
" style="fill: none; stroke: #000000; stroke-width: 0.8; stroke-linejoin: miter; stroke-linecap: square"/>
   </g>
   <g id="patch_9">
    <path d="M 450 317.72 
L 450 187.49 
" style="fill: none; stroke: #000000; stroke-width: 0.8; stroke-linejoin: miter; stroke-linecap: square"/>
   </g>
   <g id="patch_10">
    <path d="M 33.64 317.72 
L 450 317.72 
" style="fill: none; stroke: #000000; stroke-width: 0.8; stroke-linejoin: miter; stroke-linecap: square"/>
   </g>
   <g id="patch_11">
    <path d="M 33.64 187.49 
L 450 187.49 
" style="fill: none; stroke: #000000; stroke-width: 0.8; stroke-linejoin: miter; stroke-linecap: square"/>
   </g>
   <g id="text_20">
    <!-- The distances between the time series and the shapelet -->
    <g transform="translate(72.787813 181.49) scale(0.12 -0.12)">
     <defs>
      <path id="DejaVuSans-62" d="M 3116 1747 
Q 3116 2381 2855 2742 
Q 2594 3103 2138 3103 
Q 1681 3103 1420 2742 
Q 1159 2381 1159 1747 
Q 1159 1113 1420 752 
Q 1681 391 2138 391 
Q 2594 391 2855 752 
Q 3116 1113 3116 1747 
z
M 1159 2969 
Q 1341 3281 1617 3432 
Q 1894 3584 2278 3584 
Q 2916 3584 3314 3078 
Q 3713 2572 3713 1747 
Q 3713 922 3314 415 
Q 2916 -91 2278 -91 
Q 1894 -91 1617 61 
Q 1341 213 1159 525 
L 1159 0 
L 581 0 
L 581 4863 
L 1159 4863 
L 1159 2969 
z
" transform="scale(0.015625)"/>
      <path id="DejaVuSans-77" d="M 269 3500 
L 844 3500 
L 1563 769 
L 2278 3500 
L 2956 3500 
L 3675 769 
L 4391 3500 
L 4966 3500 
L 4050 0 
L 3372 0 
L 2619 2869 
L 1863 0 
L 1184 0 
L 269 3500 
z
" transform="scale(0.015625)"/>
      <path id="DejaVuSans-6d" d="M 3328 2828 
Q 3544 3216 3844 3400 
Q 4144 3584 4550 3584 
Q 5097 3584 5394 3201 
Q 5691 2819 5691 2113 
L 5691 0 
L 5113 0 
L 5113 2094 
Q 5113 2597 4934 2840 
Q 4756 3084 4391 3084 
Q 3944 3084 3684 2787 
Q 3425 2491 3425 1978 
L 3425 0 
L 2847 0 
L 2847 2094 
Q 2847 2600 2669 2842 
Q 2491 3084 2119 3084 
Q 1678 3084 1418 2786 
Q 1159 2488 1159 1978 
L 1159 0 
L 581 0 
L 581 3500 
L 1159 3500 
L 1159 2956 
Q 1356 3278 1631 3431 
Q 1906 3584 2284 3584 
Q 2666 3584 2933 3390 
Q 3200 3197 3328 2828 
z
" transform="scale(0.015625)"/>
     </defs>
     <use xlink:href="#DejaVuSans-54"/>
     <use xlink:href="#DejaVuSans-68" transform="translate(61.083984 0)"/>
     <use xlink:href="#DejaVuSans-65" transform="translate(124.462891 0)"/>
     <use xlink:href="#DejaVuSans-20" transform="translate(185.986328 0)"/>
     <use xlink:href="#DejaVuSans-64" transform="translate(217.773438 0)"/>
     <use xlink:href="#DejaVuSans-69" transform="translate(281.25 0)"/>
     <use xlink:href="#DejaVuSans-73" transform="translate(309.033203 0)"/>
     <use xlink:href="#DejaVuSans-74" transform="translate(361.132812 0)"/>
     <use xlink:href="#DejaVuSans-61" transform="translate(400.341797 0)"/>
     <use xlink:href="#DejaVuSans-6e" transform="translate(461.621094 0)"/>
     <use xlink:href="#DejaVuSans-63" transform="translate(525 0)"/>
     <use xlink:href="#DejaVuSans-65" transform="translate(579.980469 0)"/>
     <use xlink:href="#DejaVuSans-73" transform="translate(641.503906 0)"/>
     <use xlink:href="#DejaVuSans-20" transform="translate(693.603516 0)"/>
     <use xlink:href="#DejaVuSans-62" transform="translate(725.390625 0)"/>
     <use xlink:href="#DejaVuSans-65" transform="translate(788.867188 0)"/>
     <use xlink:href="#DejaVuSans-74" transform="translate(850.390625 0)"/>
     <use xlink:href="#DejaVuSans-77" transform="translate(889.599609 0)"/>
     <use xlink:href="#DejaVuSans-65" transform="translate(971.386719 0)"/>
     <use xlink:href="#DejaVuSans-65" transform="translate(1032.910156 0)"/>
     <use xlink:href="#DejaVuSans-6e" transform="translate(1094.433594 0)"/>
     <use xlink:href="#DejaVuSans-20" transform="translate(1157.8125 0)"/>
     <use xlink:href="#DejaVuSans-74" transform="translate(1189.599609 0)"/>
     <use xlink:href="#DejaVuSans-68" transform="translate(1228.808594 0)"/>
     <use xlink:href="#DejaVuSans-65" transform="translate(1292.1875 0)"/>
     <use xlink:href="#DejaVuSans-20" transform="translate(1353.710938 0)"/>
     <use xlink:href="#DejaVuSans-74" transform="translate(1385.498047 0)"/>
     <use xlink:href="#DejaVuSans-69" transform="translate(1424.707031 0)"/>
     <use xlink:href="#DejaVuSans-6d" transform="translate(1452.490234 0)"/>
     <use xlink:href="#DejaVuSans-65" transform="translate(1549.902344 0)"/>
     <use xlink:href="#DejaVuSans-20" transform="translate(1611.425781 0)"/>
     <use xlink:href="#DejaVuSans-73" transform="translate(1643.212891 0)"/>
     <use xlink:href="#DejaVuSans-65" transform="translate(1695.3125 0)"/>
     <use xlink:href="#DejaVuSans-72" transform="translate(1756.835938 0)"/>
     <use xlink:href="#DejaVuSans-69" transform="translate(1797.949219 0)"/>
     <use xlink:href="#DejaVuSans-65" transform="translate(1825.732422 0)"/>
     <use xlink:href="#DejaVuSans-73" transform="translate(1887.255859 0)"/>
     <use xlink:href="#DejaVuSans-20" transform="translate(1939.355469 0)"/>
     <use xlink:href="#DejaVuSans-61" transform="translate(1971.142578 0)"/>
     <use xlink:href="#DejaVuSans-6e" transform="translate(2032.421875 0)"/>
     <use xlink:href="#DejaVuSans-64" transform="translate(2095.800781 0)"/>
     <use xlink:href="#DejaVuSans-20" transform="translate(2159.277344 0)"/>
     <use xlink:href="#DejaVuSans-74" transform="translate(2191.064453 0)"/>
     <use xlink:href="#DejaVuSans-68" transform="translate(2230.273438 0)"/>
     <use xlink:href="#DejaVuSans-65" transform="translate(2293.652344 0)"/>
     <use xlink:href="#DejaVuSans-20" transform="translate(2355.175781 0)"/>
     <use xlink:href="#DejaVuSans-73" transform="translate(2386.962891 0)"/>
     <use xlink:href="#DejaVuSans-68" transform="translate(2439.0625 0)"/>
     <use xlink:href="#DejaVuSans-61" transform="translate(2502.441406 0)"/>
     <use xlink:href="#DejaVuSans-70" transform="translate(2563.720703 0)"/>
     <use xlink:href="#DejaVuSans-65" transform="translate(2627.197266 0)"/>
     <use xlink:href="#DejaVuSans-6c" transform="translate(2688.720703 0)"/>
     <use xlink:href="#DejaVuSans-65" transform="translate(2716.503906 0)"/>
     <use xlink:href="#DejaVuSans-74" transform="translate(2778.027344 0)"/>
    </g>
   </g>
  </g>
 </g>
 <defs>
  <clipPath id="pfce4120f90">
   <rect x="33.64" y="26.88" width="416.36" height="130.23"/>
  </clipPath>
  <clipPath id="p73ca527b45">
   <rect x="33.64" y="187.49" width="416.36" height="130.23"/>
  </clipPath>
 </defs>
</svg>
