<?xml version="1.0" encoding="utf-8" standalone="no"?>
<!DOCTYPE svg PUBLIC "-//W3C//DTD SVG 1.1//EN"
  "http://www.w3.org/Graphics/SVG/1.1/DTD/svg11.dtd">
<svg xmlns:xlink="http://www.w3.org/1999/xlink" width="1440pt" height="864pt" viewBox="0 0 1440 864" xmlns="http://www.w3.org/2000/svg" version="1.1">
 <metadata>
  <rdf:RDF xmlns:dc="http://purl.org/dc/elements/1.1/" xmlns:cc="http://creativecommons.org/ns#" xmlns:rdf="http://www.w3.org/1999/02/22-rdf-syntax-ns#">
   <cc:Work>
    <dc:type rdf:resource="http://purl.org/dc/dcmitype/StillImage"/>
    <dc:date>2026-01-08T16:46:23.231465</dc:date>
    <dc:format>image/svg+xml</dc:format>
    <dc:creator>
     <cc:Agent>
      <dc:title>Matplotlib v3.10.3, https://matplotlib.org/</dc:title>
     </cc:Agent>
    </dc:creator>
   </cc:Work>
  </rdf:RDF>
 </metadata>
 <defs>
  <style type="text/css">*{stroke-linejoin: round; stroke-linecap: butt}</style>
 </defs>
 <g id="figure_1">
  <g id="patch_1">
   <path d="M 0 864 
L 1440 864 
L 1440 0 
L 0 0 
z
" style="fill: #ffffff"/>
  </g>
  <g id="axes_1">
   <g id="patch_2">
    <path d="M 90.83 221.63 
L 1418.4 221.63 
L 1418.4 44.88 
L 90.83 44.88 
z
" style="fill: #eaeaf2"/>
   </g>
   <g id="matplotlib.axis_1">
    <g id="xtick_1">
     <g id="line2d_1">
      <path d="M 136.712308 221.63 
L 136.712308 44.88 
" clip-path="url(#pe190458777)" style="fill: none; stroke: #ffffff; stroke-width: 0.8; stroke-linecap: round"/>
     </g>
    </g>
    <g id="xtick_2">
     <g id="line2d_2">
      <path d="M 320.367243 221.63 
L 320.367243 44.88 
" clip-path="url(#pe190458777)" style="fill: none; stroke: #ffffff; stroke-width: 0.8; stroke-linecap: round"/>
     </g>
    </g>
    <g id="xtick_3">
     <g id="line2d_3">
      <path d="M 504.022178 221.63 
L 504.022178 44.88 
" clip-path="url(#pe190458777)" style="fill: none; stroke: #ffffff; stroke-width: 0.8; stroke-linecap: round"/>
     </g>
    </g>
    <g id="xtick_4">
     <g id="line2d_4">
      <path d="M 687.677113 221.63 
L 687.677113 44.88 
" clip-path="url(#pe190458777)" style="fill: none; stroke: #ffffff; stroke-width: 0.8; stroke-linecap: round"/>
     </g>
    </g>
    <g id="xtick_5">
     <g id="line2d_5">
      <path d="M 871.332048 221.63 
L 871.332048 44.88 
" clip-path="url(#pe190458777)" style="fill: none; stroke: #ffffff; stroke-width: 0.8; stroke-linecap: round"/>
     </g>
    </g>
    <g id="xtick_6">
     <g id="line2d_6">
      <path d="M 1054.986983 221.63 
L 1054.986983 44.88 
" clip-path="url(#pe190458777)" style="fill: none; stroke: #ffffff; stroke-width: 0.8; stroke-linecap: round"/>
     </g>
    </g>
    <g id="xtick_7">
     <g id="line2d_7">
      <path d="M 1238.641918 221.63 
L 1238.641918 44.88 
" clip-path="url(#pe190458777)" style="fill: none; stroke: #ffffff; stroke-width: 0.8; stroke-linecap: round"/>
     </g>
    </g>
   </g>
   <g id="matplotlib.axis_2">
    <g id="ytick_1">
     <g id="line2d_8">
      <path d="M 90.83 186.170724 
L 1418.4 186.170724 
" clip-path="url(#pe190458777)" style="fill: none; stroke: #ffffff; stroke-width: 0.8; stroke-linecap: round"/>
     </g>
     <g id="text_1">
      <!-- 320 -->
      <g style="fill: #262626" transform="translate(50.464375 193.328537) scale(0.2 -0.2)">
       <defs>
        <path id="ArialMT-33" d="M 269 1209 
L 831 1284 
Q 928 806 1161 595 
Q 1394 384 1728 384 
Q 2125 384 2398 659 
Q 2672 934 2672 1341 
Q 2672 1728 2419 1979 
Q 2166 2231 1775 2231 
Q 1616 2231 1378 2169 
L 1441 2663 
Q 1497 2656 1531 2656 
Q 1891 2656 2178 2843 
Q 2466 3031 2466 3422 
Q 2466 3731 2256 3934 
Q 2047 4138 1716 4138 
Q 1388 4138 1169 3931 
Q 950 3725 888 3313 
L 325 3413 
Q 428 3978 793 4289 
Q 1159 4600 1703 4600 
Q 2078 4600 2393 4439 
Q 2709 4278 2876 4000 
Q 3044 3722 3044 3409 
Q 3044 3113 2884 2869 
Q 2725 2625 2413 2481 
Q 2819 2388 3044 2092 
Q 3269 1797 3269 1353 
Q 3269 753 2831 336 
Q 2394 -81 1725 -81 
Q 1122 -81 723 278 
Q 325 638 269 1209 
z
" transform="scale(0.015625)"/>
        <path id="ArialMT-32" d="M 3222 541 
L 3222 0 
L 194 0 
Q 188 203 259 391 
Q 375 700 629 1000 
Q 884 1300 1366 1694 
Q 2113 2306 2375 2664 
Q 2638 3022 2638 3341 
Q 2638 3675 2398 3904 
Q 2159 4134 1775 4134 
Q 1369 4134 1125 3890 
Q 881 3647 878 3216 
L 300 3275 
Q 359 3922 746 4261 
Q 1134 4600 1788 4600 
Q 2447 4600 2831 4234 
Q 3216 3869 3216 3328 
Q 3216 3053 3103 2787 
Q 2991 2522 2730 2228 
Q 2469 1934 1863 1422 
Q 1356 997 1212 845 
Q 1069 694 975 541 
L 3222 541 
z
" transform="scale(0.015625)"/>
        <path id="ArialMT-30" d="M 266 2259 
Q 266 3072 433 3567 
Q 600 4063 929 4331 
Q 1259 4600 1759 4600 
Q 2128 4600 2406 4451 
Q 2684 4303 2865 4023 
Q 3047 3744 3150 3342 
Q 3253 2941 3253 2259 
Q 3253 1453 3087 958 
Q 2922 463 2592 192 
Q 2263 -78 1759 -78 
Q 1097 -78 719 397 
Q 266 969 266 2259 
z
M 844 2259 
Q 844 1131 1108 757 
Q 1372 384 1759 384 
Q 2147 384 2411 759 
Q 2675 1134 2675 2259 
Q 2675 3391 2411 3762 
Q 2147 4134 1753 4134 
Q 1366 4134 1134 3806 
Q 844 3388 844 2259 
z
" transform="scale(0.015625)"/>
       </defs>
       <use xlink:href="#ArialMT-33"/>
       <use xlink:href="#ArialMT-32" transform="translate(55.615234 0)"/>
       <use xlink:href="#ArialMT-30" transform="translate(111.230469 0)"/>
      </g>
     </g>
    </g>
    <g id="ytick_2">
     <g id="line2d_9">
      <path d="M 90.83 101.131392 
L 1418.4 101.131392 
" clip-path="url(#pe190458777)" style="fill: none; stroke: #ffffff; stroke-width: 0.8; stroke-linecap: round"/>
     </g>
     <g id="text_2">
      <!-- 340 -->
      <g style="fill: #262626" transform="translate(50.464375 108.289205) scale(0.2 -0.2)">
       <defs>
        <path id="ArialMT-34" d="M 2069 0 
L 2069 1097 
L 81 1097 
L 81 1613 
L 2172 4581 
L 2631 4581 
L 2631 1613 
L 3250 1613 
L 3250 1097 
L 2631 1097 
L 2631 0 
L 2069 0 
z
M 2069 1613 
L 2069 3678 
L 634 1613 
L 2069 1613 
z
" transform="scale(0.015625)"/>
       </defs>
       <use xlink:href="#ArialMT-33"/>
       <use xlink:href="#ArialMT-34" transform="translate(55.615234 0)"/>
       <use xlink:href="#ArialMT-30" transform="translate(111.230469 0)"/>
      </g>
     </g>
    </g>
   </g>
   <g id="line2d_10">
    <path d="M 90.83 204.964417 
L 94.726854 201.520324 
L 98.246592 199.819537 
L 102.143446 195.440012 
L 105.914594 193.016391 
L 109.811448 193.739225 
L 113.582596 200.287254 
L 117.47945 207.388038 
L 121.376303 211.597485 
L 125.147452 213.595909 
L 129.044305 207.345518 
L 136.712308 200.967568 
L 140.609161 198.501428 
L 144.254605 195.567571 
L 148.151458 189.487258 
L 151.922607 185.830567 
L 155.81946 187.446314 
L 159.590609 193.526627 
L 163.487462 203.221111 
L 167.384316 210.662052 
L 171.155464 211.469926 
L 175.052318 207.217959 
L 178.823467 202.200639 
L 182.72032 199.266782 
L 190.136912 192.378596 
L 194.033766 188.339227 
L 197.804914 183.449466 
L 201.701768 186.808519 
L 205.472916 191.698281 
L 213.266623 206.707723 
L 217.037772 205.432133 
L 220.934626 202.370717 
L 224.705774 198.20379 
L 228.602628 194.164422 
L 232.499481 191.613242 
L 236.01922 187.063637 
L 239.916073 183.279387 
L 243.687222 180.728207 
L 247.584075 182.386474 
L 251.355224 187.063637 
L 255.252077 196.545523 
L 259.148931 201.222686 
L 262.92008 204.921897 
L 266.816933 199.564419 
L 270.588082 195.227413 
L 274.484935 190.975447 
L 278.381789 189.359699 
L 281.901527 185.617969 
L 285.798381 179.835294 
L 289.569529 176.221123 
L 293.466383 179.282539 
L 297.237531 186.808519 
L 301.134385 195.227413 
L 305.031239 201.647883 
L 308.802387 202.158119 
L 312.699241 198.373869 
L 316.470389 192.718753 
L 320.367243 187.99907 
L 324.264096 185.192772 
L 327.90954 182.386474 
L 335.577542 176.816398 
L 339.474395 178.091988 
L 343.245544 184.384898 
L 351.039251 200.074655 
L 354.8104 198.288829 
L 358.707253 194.929776 
L 362.478402 190.805368 
L 366.375255 187.318755 
L 370.272109 182.854191 
L 373.791847 180.940806 
L 377.688701 175.583328 
L 381.459849 175.158131 
L 385.356703 176.178603 
L 389.127852 179.325058 
L 393.024705 189.402219 
L 396.921559 193.696705 
L 400.692707 195.69513 
L 404.589561 188.891983 
L 408.360709 188.296708 
L 412.257563 184.682536 
L 416.154416 180.217971 
L 419.674155 176.731359 
L 423.571008 171.50144 
L 427.342157 170.013251 
L 431.239011 171.288841 
L 435.010159 176.986477 
L 438.907013 185.788047 
L 442.803866 193.569146 
L 446.575015 196.120326 
L 450.471868 188.424267 
L 454.243017 183.194348 
L 458.13987 177.411673 
L 462.036724 176.688839 
L 465.556462 174.350257 
L 469.453316 168.737661 
L 473.224465 166.484119 
L 477.121318 170.055771 
L 480.892467 176.221123 
L 484.78932 183.066789 
L 488.686174 190.422691 
L 492.457322 190.465211 
L 496.354176 184.427418 
L 500.125324 179.027421 
L 507.919031 173.882541 
L 511.564475 170.906164 
L 515.461328 166.39908 
L 519.232477 163.635301 
L 523.129331 164.273096 
L 526.900479 169.673094 
L 530.797333 178.517185 
L 534.694186 186.213244 
L 538.465335 186.766 
L 542.362188 182.428994 
L 546.133337 176.136083 
L 550.03019 170.906164 
L 553.927044 168.184906 
L 557.446783 163.465223 
L 561.343636 159.255776 
L 565.114785 156.279399 
L 569.011638 159.638453 
L 572.782787 163.252624 
L 576.67964 172.73451 
L 580.576494 178.219547 
L 584.347642 180.600648 
L 588.244496 176.221123 
L 592.015644 170.268369 
L 595.912498 166.569158 
L 599.809351 162.444751 
L 603.32909 158.320343 
L 607.225944 152.962865 
L 610.997092 152.920346 
L 614.893946 154.153416 
L 618.665094 159.425854 
L 622.561948 166.35656 
L 626.458801 172.904589 
L 630.22995 173.032148 
L 634.126803 169.120338 
L 637.897952 164.485695 
L 641.794805 160.148689 
L 645.691659 158.022706 
L 649.211398 155.726644 
L 653.108251 152.41011 
L 656.8794 147.26523 
L 660.776253 148.795938 
L 664.547402 154.153416 
L 668.444255 162.147113 
L 672.341109 170.863645 
L 676.112257 170.098291 
L 680.009111 164.358136 
L 683.780259 159.553413 
L 687.677113 156.704596 
L 691.573966 152.835306 
L 695.21941 152.32507 
L 699.116264 143.948696 
L 702.887412 142.588067 
L 706.784266 146.882553 
L 710.555414 151.602236 
L 714.452268 158.873099 
L 718.349121 165.03845 
L 722.12027 163.677821 
L 726.017123 158.277823 
L 729.788272 153.303023 
L 737.581979 144.926648 
L 741.101718 141.695154 
L 744.998571 136.422715 
L 748.76972 132.340827 
L 752.666573 134.211692 
L 756.437722 139.314052 
L 760.334575 146.244758 
L 764.231429 153.940818 
L 768.002577 155.258927 
L 771.899431 150.879402 
L 775.670579 148.710899 
L 779.567433 146.03216 
L 783.464287 139.866808 
L 786.984025 136.762872 
L 790.880879 131.532954 
L 794.652027 129.662088 
L 798.548881 133.27626 
L 802.320029 137.910903 
L 806.216883 145.436884 
L 810.113736 153.940818 
L 813.884885 154.068377 
L 817.781738 149.77389 
L 821.552887 144.799089 
L 825.449741 141.737673 
L 829.346594 139.484131 
L 832.866333 136.720353 
L 836.763186 131.405395 
L 840.534335 128.21642 
L 844.431188 128.641616 
L 848.202337 135.572322 
L 852.09919 143.310901 
L 855.996044 149.646331 
L 859.767193 150.836882 
L 863.664046 146.03216 
L 867.435195 140.9298 
L 871.332048 136.762872 
L 875.228902 133.23374 
L 878.874345 129.364451 
L 882.771199 124.687287 
L 886.542347 123.07154 
L 890.439201 125.410122 
L 894.210349 130.72508 
L 898.107203 139.909328 
L 902.004056 146.925073 
L 905.775205 148.625859 
L 917.340061 131.745552 
L 921.236914 129.959726 
L 924.756653 124.34713 
L 928.653506 118.904613 
L 932.424655 116.225874 
L 936.321508 118.266818 
L 940.092657 123.879414 
L 943.98951 133.446338 
L 947.886364 138.208541 
L 951.657513 140.547123 
L 955.554366 134.934527 
L 959.325515 128.599097 
L 963.222368 123.879414 
L 967.119222 122.136107 
L 970.63896 116.778629 
L 974.535814 112.229025 
L 978.306962 111.080994 
L 982.203816 111.506191 
L 985.974964 117.118787 
L 989.871818 124.984925 
L 993.768672 133.318779 
L 997.53982 134.211692 
L 1001.436674 128.301459 
L 1005.207822 123.326658 
L 1009.104676 118.649495 
L 1013.001529 116.310913 
L 1016.521268 111.293592 
L 1020.418121 107.381783 
L 1024.18927 105.128241 
L 1028.086123 105.723516 
L 1031.857272 112.229025 
L 1035.754126 119.329809 
L 1039.650979 128.1739 
L 1043.422128 128.13138 
L 1047.318981 122.093588 
L 1051.09013 115.885716 
L 1054.986983 110.400679 
L 1058.883837 108.827452 
L 1062.52928 101.599109 
L 1070.197282 95.943993 
L 1074.094136 97.219583 
L 1077.865285 104.277848 
L 1081.762138 112.739261 
L 1085.658992 119.584927 
L 1089.43014 120.095163 
L 1093.326994 115.120362 
L 1097.098142 110.528238 
L 1100.994996 106.276272 
L 1104.891849 100.876274 
L 1108.411588 97.177063 
L 1112.308441 92.54242 
L 1116.07959 89.863681 
L 1119.976444 93.477852 
L 1123.747592 101.088873 
L 1127.644446 109.890443 
L 1131.541299 117.416424 
L 1135.312448 116.948708 
L 1139.209301 110.655797 
L 1142.98045 105.170761 
L 1146.877303 100.366038 
L 1150.774157 96.709347 
L 1154.293895 91.947144 
L 1158.190749 88.332973 
L 1161.961898 85.654234 
L 1165.858751 88.758169 
L 1169.6299 93.81801 
L 1173.526753 103.172336 
L 1177.423607 110.698317 
L 1181.194755 110.995955 
L 1185.091609 104.788084 
L 1188.862757 99.558165 
L 1192.759611 95.518796 
L 1196.656464 90.714074 
L 1200.176203 88.162894 
L 1204.073057 80.254236 
L 1207.844205 76.597545 
L 1211.741059 78.595969 
L 1215.512207 84.208565 
L 1219.409061 90.884153 
L 1223.305914 101.599109 
L 1227.077063 101.003833 
L 1230.973916 96.071552 
L 1234.745065 88.928248 
L 1238.641918 85.229037 
L 1246.184216 78.681009 
L 1250.081069 71.367626 
L 1253.852218 69.794398 
L 1257.749071 72.473137 
L 1261.52022 78.340851 
L 1269.313927 97.006985 
L 1273.085075 96.029032 
L 1276.981929 89.395964 
L 1280.753077 84.293604 
L 1284.649931 80.636913 
L 1288.546784 76.384947 
L 1292.066523 70.347154 
L 1295.963377 66.732982 
L 1299.734525 64.309361 
L 1303.631379 67.540856 
L 1307.402527 74.471562 
L 1311.299381 83.230613 
L 1315.196234 88.885728 
L 1318.967383 90.161318 
L 1326.635385 78.55345 
L 1330.532238 75.704632 
L 1334.429092 72.558177 
L 1337.948831 68.688887 
L 1341.845684 61.843221 
L 1345.616833 59.33456 
L 1349.513686 62.438496 
L 1353.284835 69.156603 
L 1357.181688 78.043214 
L 1361.078542 82.082582 
L 1364.84969 84.591242 
L 1368.746544 78.638489 
L 1372.517692 73.323531 
L 1376.414546 68.561328 
L 1380.311399 66.818022 
L 1383.831138 62.353457 
L 1387.727992 56.273145 
L 1391.49914 52.914091 
L 1395.395994 55.210153 
L 1399.167142 62.438496 
L 1403.063996 69.071564 
L 1406.960849 74.769199 
L 1410.731998 74.769199 
L 1418.4 64.266842 
L 1418.4 64.266842 
" clip-path="url(#pe190458777)" style="fill: none; stroke: #1f77b4; stroke-width: 1.5; stroke-linecap: round"/>
   </g>
   <g id="patch_3">
    <path d="M 90.83 221.63 
L 90.83 44.88 
" style="fill: none; stroke: #ffffff; stroke-width: 0.8; stroke-linejoin: miter; stroke-linecap: square"/>
   </g>
   <g id="patch_4">
    <path d="M 1418.4 221.63 
L 1418.4 44.88 
" style="fill: none; stroke: #ffffff; stroke-width: 0.8; stroke-linejoin: miter; stroke-linecap: square"/>
   </g>
   <g id="patch_5">
    <path d="M 90.83 221.63 
L 1418.4 221.63 
" style="fill: none; stroke: #ffffff; stroke-width: 0.8; stroke-linejoin: miter; stroke-linecap: square"/>
   </g>
   <g id="patch_6">
    <path d="M 90.83 44.88 
L 1418.4 44.88 
" style="fill: none; stroke: #ffffff; stroke-width: 0.8; stroke-linejoin: miter; stroke-linecap: square"/>
   </g>
   <g id="text_3">
    <!-- co2 -->
    <g style="fill: #262626" transform="translate(735.26875 38.88) scale(0.24 -0.24)">
     <defs>
      <path id="ArialMT-63" d="M 2588 1216 
L 3141 1144 
Q 3050 572 2676 248 
Q 2303 -75 1759 -75 
Q 1078 -75 664 370 
Q 250 816 250 1647 
Q 250 2184 428 2587 
Q 606 2991 970 3192 
Q 1334 3394 1763 3394 
Q 2303 3394 2647 3120 
Q 2991 2847 3088 2344 
L 2541 2259 
Q 2463 2594 2264 2762 
Q 2066 2931 1784 2931 
Q 1359 2931 1093 2626 
Q 828 2322 828 1663 
Q 828 994 1084 691 
Q 1341 388 1753 388 
Q 2084 388 2306 591 
Q 2528 794 2588 1216 
z
" transform="scale(0.015625)"/>
      <path id="ArialMT-6f" d="M 213 1659 
Q 213 2581 725 3025 
Q 1153 3394 1769 3394 
Q 2453 3394 2887 2945 
Q 3322 2497 3322 1706 
Q 3322 1066 3130 698 
Q 2938 331 2570 128 
Q 2203 -75 1769 -75 
Q 1072 -75 642 372 
Q 213 819 213 1659 
z
M 791 1659 
Q 791 1022 1069 705 
Q 1347 388 1769 388 
Q 2188 388 2466 706 
Q 2744 1025 2744 1678 
Q 2744 2294 2464 2611 
Q 2184 2928 1769 2928 
Q 1347 2928 1069 2612 
Q 791 2297 791 1659 
z
" transform="scale(0.015625)"/>
     </defs>
     <use xlink:href="#ArialMT-63"/>
     <use xlink:href="#ArialMT-6f" transform="translate(50 0)"/>
     <use xlink:href="#ArialMT-32" transform="translate(105.615234 0)"/>
    </g>
   </g>
  </g>
  <g id="axes_2">
   <g id="patch_7">
    <path d="M 90.83 419.98 
L 1418.4 419.98 
L 1418.4 243.23 
L 90.83 243.23 
z
" style="fill: #eaeaf2"/>
   </g>
   <g id="matplotlib.axis_3">
    <g id="xtick_8">
     <g id="line2d_11">
      <path d="M 136.712308 419.98 
L 136.712308 243.23 
" clip-path="url(#pe250ff482e)" style="fill: none; stroke: #ffffff; stroke-width: 0.8; stroke-linecap: round"/>
     </g>
    </g>
    <g id="xtick_9">
     <g id="line2d_12">
      <path d="M 320.367243 419.98 
L 320.367243 243.23 
" clip-path="url(#pe250ff482e)" style="fill: none; stroke: #ffffff; stroke-width: 0.8; stroke-linecap: round"/>
     </g>
    </g>
    <g id="xtick_10">
     <g id="line2d_13">
      <path d="M 504.022178 419.98 
L 504.022178 243.23 
" clip-path="url(#pe250ff482e)" style="fill: none; stroke: #ffffff; stroke-width: 0.8; stroke-linecap: round"/>
     </g>
    </g>
    <g id="xtick_11">
     <g id="line2d_14">
      <path d="M 687.677113 419.98 
L 687.677113 243.23 
" clip-path="url(#pe250ff482e)" style="fill: none; stroke: #ffffff; stroke-width: 0.8; stroke-linecap: round"/>
     </g>
    </g>
    <g id="xtick_12">
     <g id="line2d_15">
      <path d="M 871.332048 419.98 
L 871.332048 243.23 
" clip-path="url(#pe250ff482e)" style="fill: none; stroke: #ffffff; stroke-width: 0.8; stroke-linecap: round"/>
     </g>
    </g>
    <g id="xtick_13">
     <g id="line2d_16">
      <path d="M 1054.986983 419.98 
L 1054.986983 243.23 
" clip-path="url(#pe250ff482e)" style="fill: none; stroke: #ffffff; stroke-width: 0.8; stroke-linecap: round"/>
     </g>
    </g>
    <g id="xtick_14">
     <g id="line2d_17">
      <path d="M 1238.641918 419.98 
L 1238.641918 243.23 
" clip-path="url(#pe250ff482e)" style="fill: none; stroke: #ffffff; stroke-width: 0.8; stroke-linecap: round"/>
     </g>
    </g>
   </g>
   <g id="matplotlib.axis_4">
    <g id="ytick_3">
     <g id="line2d_18">
      <path d="M 90.83 390.983703 
L 1418.4 390.983703 
" clip-path="url(#pe250ff482e)" style="fill: none; stroke: #ffffff; stroke-width: 0.8; stroke-linecap: round"/>
     </g>
     <g id="text_4">
      <!-- 320 -->
      <g style="fill: #262626" transform="translate(50.464375 398.141515) scale(0.2 -0.2)">
       <use xlink:href="#ArialMT-33"/>
       <use xlink:href="#ArialMT-32" transform="translate(55.615234 0)"/>
       <use xlink:href="#ArialMT-30" transform="translate(111.230469 0)"/>
      </g>
     </g>
    </g>
    <g id="ytick_4">
     <g id="line2d_19">
      <path d="M 90.83 343.71774 
L 1418.4 343.71774 
" clip-path="url(#pe250ff482e)" style="fill: none; stroke: #ffffff; stroke-width: 0.8; stroke-linecap: round"/>
     </g>
     <g id="text_5">
      <!-- 330 -->
      <g style="fill: #262626" transform="translate(50.464375 350.875552) scale(0.2 -0.2)">
       <use xlink:href="#ArialMT-33"/>
       <use xlink:href="#ArialMT-33" transform="translate(55.615234 0)"/>
       <use xlink:href="#ArialMT-30" transform="translate(111.230469 0)"/>
      </g>
     </g>
    </g>
    <g id="ytick_5">
     <g id="line2d_20">
      <path d="M 90.83 296.451777 
L 1418.4 296.451777 
" clip-path="url(#pe250ff482e)" style="fill: none; stroke: #ffffff; stroke-width: 0.8; stroke-linecap: round"/>
     </g>
     <g id="text_6">
      <!-- 340 -->
      <g style="fill: #262626" transform="translate(50.464375 303.609589) scale(0.2 -0.2)">
       <use xlink:href="#ArialMT-33"/>
       <use xlink:href="#ArialMT-34" transform="translate(55.615234 0)"/>
       <use xlink:href="#ArialMT-30" transform="translate(111.230469 0)"/>
      </g>
     </g>
    </g>
    <g id="ytick_6">
     <g id="line2d_21">
      <path d="M 90.83 249.185813 
L 1418.4 249.185813 
" clip-path="url(#pe250ff482e)" style="fill: none; stroke: #ffffff; stroke-width: 0.8; stroke-linecap: round"/>
     </g>
     <g id="text_7">
      <!-- 350 -->
      <g style="fill: #262626" transform="translate(50.464375 256.343626) scale(0.2 -0.2)">
       <defs>
        <path id="ArialMT-35" d="M 266 1200 
L 856 1250 
Q 922 819 1161 601 
Q 1400 384 1738 384 
Q 2144 384 2425 690 
Q 2706 997 2706 1503 
Q 2706 1984 2436 2262 
Q 2166 2541 1728 2541 
Q 1456 2541 1237 2417 
Q 1019 2294 894 2097 
L 366 2166 
L 809 4519 
L 3088 4519 
L 3088 3981 
L 1259 3981 
L 1013 2750 
Q 1425 3038 1878 3038 
Q 2478 3038 2890 2622 
Q 3303 2206 3303 1553 
Q 3303 931 2941 478 
Q 2500 -78 1738 -78 
Q 1113 -78 717 272 
Q 322 622 266 1200 
z
" transform="scale(0.015625)"/>
       </defs>
       <use xlink:href="#ArialMT-33"/>
       <use xlink:href="#ArialMT-35" transform="translate(55.615234 0)"/>
       <use xlink:href="#ArialMT-30" transform="translate(111.230469 0)"/>
      </g>
     </g>
    </g>
    <g id="text_8">
     <!-- Trend -->
     <g style="fill: #262626" transform="translate(42.489375 357.350313) rotate(-90) scale(0.2 -0.2)">
      <defs>
       <path id="ArialMT-54" d="M 1659 0 
L 1659 4041 
L 150 4041 
L 150 4581 
L 3781 4581 
L 3781 4041 
L 2266 4041 
L 2266 0 
L 1659 0 
z
" transform="scale(0.015625)"/>
       <path id="ArialMT-72" d="M 416 0 
L 416 3319 
L 922 3319 
L 922 2816 
Q 1116 3169 1280 3281 
Q 1444 3394 1641 3394 
Q 1925 3394 2219 3213 
L 2025 2691 
Q 1819 2813 1613 2813 
Q 1428 2813 1281 2702 
Q 1134 2591 1072 2394 
Q 978 2094 978 1738 
L 978 0 
L 416 0 
z
" transform="scale(0.015625)"/>
       <path id="ArialMT-65" d="M 2694 1069 
L 3275 997 
Q 3138 488 2766 206 
Q 2394 -75 1816 -75 
Q 1088 -75 661 373 
Q 234 822 234 1631 
Q 234 2469 665 2931 
Q 1097 3394 1784 3394 
Q 2450 3394 2872 2941 
Q 3294 2488 3294 1666 
Q 3294 1616 3291 1516 
L 816 1516 
Q 847 969 1125 678 
Q 1403 388 1819 388 
Q 2128 388 2347 550 
Q 2566 713 2694 1069 
z
M 847 1978 
L 2700 1978 
Q 2663 2397 2488 2606 
Q 2219 2931 1791 2931 
Q 1403 2931 1139 2672 
Q 875 2413 847 1978 
z
" transform="scale(0.015625)"/>
       <path id="ArialMT-6e" d="M 422 0 
L 422 3319 
L 928 3319 
L 928 2847 
Q 1294 3394 1984 3394 
Q 2284 3394 2536 3286 
Q 2788 3178 2913 3003 
Q 3038 2828 3088 2588 
Q 3119 2431 3119 2041 
L 3119 0 
L 2556 0 
L 2556 2019 
Q 2556 2363 2490 2533 
Q 2425 2703 2258 2804 
Q 2091 2906 1866 2906 
Q 1506 2906 1245 2678 
Q 984 2450 984 1813 
L 984 0 
L 422 0 
z
" transform="scale(0.015625)"/>
       <path id="ArialMT-64" d="M 2575 0 
L 2575 419 
Q 2259 -75 1647 -75 
Q 1250 -75 917 144 
Q 584 363 401 755 
Q 219 1147 219 1656 
Q 219 2153 384 2558 
Q 550 2963 881 3178 
Q 1213 3394 1622 3394 
Q 1922 3394 2156 3267 
Q 2391 3141 2538 2938 
L 2538 4581 
L 3097 4581 
L 3097 0 
L 2575 0 
z
M 797 1656 
Q 797 1019 1065 703 
Q 1334 388 1700 388 
Q 2069 388 2326 689 
Q 2584 991 2584 1609 
Q 2584 2291 2321 2609 
Q 2059 2928 1675 2928 
Q 1300 2928 1048 2622 
Q 797 2316 797 1656 
z
" transform="scale(0.015625)"/>
      </defs>
      <use xlink:href="#ArialMT-54"/>
      <use xlink:href="#ArialMT-72" transform="translate(57.333984 0)"/>
      <use xlink:href="#ArialMT-65" transform="translate(90.634766 0)"/>
      <use xlink:href="#ArialMT-6e" transform="translate(146.25 0)"/>
      <use xlink:href="#ArialMT-64" transform="translate(201.865234 0)"/>
     </g>
    </g>
   </g>
   <g id="line2d_22">
    <path d="M 90.83 411.945909 
L 109.811448 409.712126 
L 132.815454 406.90338 
L 140.609161 405.982884 
L 148.151458 405.412425 
L 186.617174 403.494112 
L 197.804914 402.29904 
L 220.934626 399.775937 
L 236.01922 398.358417 
L 251.355224 397.305739 
L 278.381789 395.737151 
L 293.466383 395.093752 
L 305.031239 394.437132 
L 331.806393 393.161399 
L 347.142398 392.312445 
L 358.707253 391.693785 
L 370.272109 390.764121 
L 381.459849 389.619388 
L 416.154416 386.645602 
L 431.239011 385.821826 
L 450.471868 384.267521 
L 465.556462 383.316469 
L 500.125324 380.461551 
L 519.232477 378.487468 
L 526.900479 377.711389 
L 534.694186 376.686213 
L 569.011638 371.395006 
L 580.576494 369.880153 
L 603.32909 366.988391 
L 622.561948 364.27916 
L 649.211398 361.700328 
L 660.776253 360.610724 
L 699.116264 356.439517 
L 706.784266 355.280766 
L 714.452268 353.884657 
L 722.12027 352.210209 
L 729.788272 350.262501 
L 744.998571 346.278197 
L 748.76972 345.537801 
L 756.437722 344.417844 
L 764.231429 343.573139 
L 771.899431 342.95832 
L 779.567433 342.586762 
L 794.652027 342.07064 
L 810.113736 341.384614 
L 821.552887 340.95454 
L 829.346594 340.459586 
L 844.431188 339.0523 
L 855.996044 337.562372 
L 863.664046 336.526741 
L 871.332048 335.673414 
L 886.542347 334.39677 
L 898.107203 333.342747 
L 905.775205 332.423394 
L 913.443207 331.285658 
L 921.236914 329.952343 
L 936.321508 326.977647 
L 943.98951 325.535927 
L 959.325515 323.010383 
L 985.974964 318.89898 
L 1020.418121 314.323106 
L 1028.086123 313.071845 
L 1039.650979 310.866611 
L 1054.986983 307.734341 
L 1070.197282 304.933906 
L 1081.762138 303.217819 
L 1093.326994 301.717724 
L 1100.994996 300.935877 
L 1116.07959 299.618332 
L 1123.747592 298.791523 
L 1142.98045 296.48434 
L 1150.774157 295.389834 
L 1158.190749 294.237514 
L 1169.6299 292.658155 
L 1177.423607 291.570136 
L 1185.091609 290.202541 
L 1192.759611 288.473019 
L 1204.073057 285.677403 
L 1215.512207 282.933305 
L 1227.077063 280.4321 
L 1234.745065 279.08384 
L 1242.538772 278.043683 
L 1276.981929 273.596107 
L 1307.402527 269.648534 
L 1330.532238 267.127245 
L 1341.845684 265.579258 
L 1364.84969 262.231724 
L 1376.414546 260.342042 
L 1380.311399 259.63319 
L 1387.727992 257.981133 
L 1418.4 251.264091 
L 1418.4 251.264091 
" clip-path="url(#pe250ff482e)" style="fill: none; stroke: #1f77b4; stroke-width: 1.5; stroke-linecap: round"/>
   </g>
   <g id="patch_8">
    <path d="M 90.83 419.98 
L 90.83 243.23 
" style="fill: none; stroke: #ffffff; stroke-width: 0.8; stroke-linejoin: miter; stroke-linecap: square"/>
   </g>
   <g id="patch_9">
    <path d="M 1418.4 419.98 
L 1418.4 243.23 
" style="fill: none; stroke: #ffffff; stroke-width: 0.8; stroke-linejoin: miter; stroke-linecap: square"/>
   </g>
   <g id="patch_10">
    <path d="M 90.83 419.98 
L 1418.4 419.98 
" style="fill: none; stroke: #ffffff; stroke-width: 0.8; stroke-linejoin: miter; stroke-linecap: square"/>
   </g>
   <g id="patch_11">
    <path d="M 90.83 243.23 
L 1418.4 243.23 
" style="fill: none; stroke: #ffffff; stroke-width: 0.8; stroke-linejoin: miter; stroke-linecap: square"/>
   </g>
  </g>
  <g id="axes_3">
   <g id="patch_12">
    <path d="M 90.83 618.33 
L 1418.4 618.33 
L 1418.4 441.58 
L 90.83 441.58 
z
" style="fill: #eaeaf2"/>
   </g>
   <g id="matplotlib.axis_5">
    <g id="xtick_15">
     <g id="line2d_23">
      <path d="M 136.712308 618.33 
L 136.712308 441.58 
" clip-path="url(#p516d3c0adf)" style="fill: none; stroke: #ffffff; stroke-width: 0.8; stroke-linecap: round"/>
     </g>
    </g>
    <g id="xtick_16">
     <g id="line2d_24">
      <path d="M 320.367243 618.33 
L 320.367243 441.58 
" clip-path="url(#p516d3c0adf)" style="fill: none; stroke: #ffffff; stroke-width: 0.8; stroke-linecap: round"/>
     </g>
    </g>
    <g id="xtick_17">
     <g id="line2d_25">
      <path d="M 504.022178 618.33 
L 504.022178 441.58 
" clip-path="url(#p516d3c0adf)" style="fill: none; stroke: #ffffff; stroke-width: 0.8; stroke-linecap: round"/>
     </g>
    </g>
    <g id="xtick_18">
     <g id="line2d_26">
      <path d="M 687.677113 618.33 
L 687.677113 441.58 
" clip-path="url(#p516d3c0adf)" style="fill: none; stroke: #ffffff; stroke-width: 0.8; stroke-linecap: round"/>
     </g>
    </g>
    <g id="xtick_19">
     <g id="line2d_27">
      <path d="M 871.332048 618.33 
L 871.332048 441.58 
" clip-path="url(#p516d3c0adf)" style="fill: none; stroke: #ffffff; stroke-width: 0.8; stroke-linecap: round"/>
     </g>
    </g>
    <g id="xtick_20">
     <g id="line2d_28">
      <path d="M 1054.986983 618.33 
L 1054.986983 441.58 
" clip-path="url(#p516d3c0adf)" style="fill: none; stroke: #ffffff; stroke-width: 0.8; stroke-linecap: round"/>
     </g>
    </g>
    <g id="xtick_21">
     <g id="line2d_29">
      <path d="M 1238.641918 618.33 
L 1238.641918 441.58 
" clip-path="url(#p516d3c0adf)" style="fill: none; stroke: #ffffff; stroke-width: 0.8; stroke-linecap: round"/>
     </g>
    </g>
   </g>
   <g id="matplotlib.axis_6">
    <g id="ytick_7">
     <g id="line2d_30">
      <path d="M 90.83 575.998293 
L 1418.4 575.998293 
" clip-path="url(#p516d3c0adf)" style="fill: none; stroke: #ffffff; stroke-width: 0.8; stroke-linecap: round"/>
     </g>
     <g id="text_9">
      <!-- −2 -->
      <g style="fill: #262626" transform="translate(61.026875 583.156106) scale(0.2 -0.2)">
       <defs>
        <path id="ArialMT-2212" d="M 3381 1997 
L 356 1997 
L 356 2522 
L 3381 2522 
L 3381 1997 
z
" transform="scale(0.015625)"/>
       </defs>
       <use xlink:href="#ArialMT-2212"/>
       <use xlink:href="#ArialMT-32" transform="translate(58.398438 0)"/>
      </g>
     </g>
    </g>
    <g id="ytick_8">
     <g id="line2d_31">
      <path d="M 90.83 527.45662 
L 1418.4 527.45662 
" clip-path="url(#p516d3c0adf)" style="fill: none; stroke: #ffffff; stroke-width: 0.8; stroke-linecap: round"/>
     </g>
     <g id="text_10">
      <!-- 0 -->
      <g style="fill: #262626" transform="translate(72.708125 534.614432) scale(0.2 -0.2)">
       <use xlink:href="#ArialMT-30"/>
      </g>
     </g>
    </g>
    <g id="ytick_9">
     <g id="line2d_32">
      <path d="M 90.83 478.914946 
L 1418.4 478.914946 
" clip-path="url(#p516d3c0adf)" style="fill: none; stroke: #ffffff; stroke-width: 0.8; stroke-linecap: round"/>
     </g>
     <g id="text_11">
      <!-- 2 -->
      <g style="fill: #262626" transform="translate(72.708125 486.072759) scale(0.2 -0.2)">
       <use xlink:href="#ArialMT-32"/>
      </g>
     </g>
    </g>
    <g id="text_12">
     <!-- Season -->
     <g style="fill: #262626" transform="translate(53.051875 563.869063) rotate(-90) scale(0.2 -0.2)">
      <defs>
       <path id="ArialMT-53" d="M 288 1472 
L 859 1522 
Q 900 1178 1048 958 
Q 1197 738 1509 602 
Q 1822 466 2213 466 
Q 2559 466 2825 569 
Q 3091 672 3220 851 
Q 3350 1031 3350 1244 
Q 3350 1459 3225 1620 
Q 3100 1781 2813 1891 
Q 2628 1963 1997 2114 
Q 1366 2266 1113 2400 
Q 784 2572 623 2826 
Q 463 3081 463 3397 
Q 463 3744 659 4045 
Q 856 4347 1234 4503 
Q 1613 4659 2075 4659 
Q 2584 4659 2973 4495 
Q 3363 4331 3572 4012 
Q 3781 3694 3797 3291 
L 3216 3247 
Q 3169 3681 2898 3903 
Q 2628 4125 2100 4125 
Q 1550 4125 1298 3923 
Q 1047 3722 1047 3438 
Q 1047 3191 1225 3031 
Q 1400 2872 2139 2705 
Q 2878 2538 3153 2413 
Q 3553 2228 3743 1945 
Q 3934 1663 3934 1294 
Q 3934 928 3725 604 
Q 3516 281 3123 101 
Q 2731 -78 2241 -78 
Q 1619 -78 1198 103 
Q 778 284 539 648 
Q 300 1013 288 1472 
z
" transform="scale(0.015625)"/>
       <path id="ArialMT-61" d="M 2588 409 
Q 2275 144 1986 34 
Q 1697 -75 1366 -75 
Q 819 -75 525 192 
Q 231 459 231 875 
Q 231 1119 342 1320 
Q 453 1522 633 1644 
Q 813 1766 1038 1828 
Q 1203 1872 1538 1913 
Q 2219 1994 2541 2106 
Q 2544 2222 2544 2253 
Q 2544 2597 2384 2738 
Q 2169 2928 1744 2928 
Q 1347 2928 1158 2789 
Q 969 2650 878 2297 
L 328 2372 
Q 403 2725 575 2942 
Q 747 3159 1072 3276 
Q 1397 3394 1825 3394 
Q 2250 3394 2515 3294 
Q 2781 3194 2906 3042 
Q 3031 2891 3081 2659 
Q 3109 2516 3109 2141 
L 3109 1391 
Q 3109 606 3145 398 
Q 3181 191 3288 0 
L 2700 0 
Q 2613 175 2588 409 
z
M 2541 1666 
Q 2234 1541 1622 1453 
Q 1275 1403 1131 1340 
Q 988 1278 909 1158 
Q 831 1038 831 891 
Q 831 666 1001 516 
Q 1172 366 1500 366 
Q 1825 366 2078 508 
Q 2331 650 2450 897 
Q 2541 1088 2541 1459 
L 2541 1666 
z
" transform="scale(0.015625)"/>
       <path id="ArialMT-73" d="M 197 991 
L 753 1078 
Q 800 744 1014 566 
Q 1228 388 1613 388 
Q 2000 388 2187 545 
Q 2375 703 2375 916 
Q 2375 1106 2209 1216 
Q 2094 1291 1634 1406 
Q 1016 1563 777 1677 
Q 538 1791 414 1992 
Q 291 2194 291 2438 
Q 291 2659 392 2848 
Q 494 3038 669 3163 
Q 800 3259 1026 3326 
Q 1253 3394 1513 3394 
Q 1903 3394 2198 3281 
Q 2494 3169 2634 2976 
Q 2775 2784 2828 2463 
L 2278 2388 
Q 2241 2644 2061 2787 
Q 1881 2931 1553 2931 
Q 1166 2931 1000 2803 
Q 834 2675 834 2503 
Q 834 2394 903 2306 
Q 972 2216 1119 2156 
Q 1203 2125 1616 2013 
Q 2213 1853 2448 1751 
Q 2684 1650 2818 1456 
Q 2953 1263 2953 975 
Q 2953 694 2789 445 
Q 2625 197 2315 61 
Q 2006 -75 1616 -75 
Q 969 -75 630 194 
Q 291 463 197 991 
z
" transform="scale(0.015625)"/>
      </defs>
      <use xlink:href="#ArialMT-53"/>
      <use xlink:href="#ArialMT-65" transform="translate(66.699219 0)"/>
      <use xlink:href="#ArialMT-61" transform="translate(122.314453 0)"/>
      <use xlink:href="#ArialMT-73" transform="translate(177.929688 0)"/>
      <use xlink:href="#ArialMT-6f" transform="translate(227.929688 0)"/>
      <use xlink:href="#ArialMT-6e" transform="translate(283.544922 0)"/>
     </g>
    </g>
   </g>
   <g id="line2d_33">
    <path d="M 90.83 532.167955 
L 94.726854 517.050412 
L 98.246592 502.492494 
L 102.143446 477.61883 
L 105.914594 458.507091 
L 109.811448 470.0719 
L 113.582596 506.315336 
L 117.47945 554.813328 
L 121.376303 589.519909 
L 125.147452 597.05043 
L 129.044305 573.129081 
L 132.815454 551.988829 
L 136.712308 531.748543 
L 140.609161 516.602317 
L 144.254605 501.613712 
L 148.151458 476.688425 
L 151.922607 458.779315 
L 155.81946 470.547106 
L 159.590609 506.118579 
L 163.487462 555.043879 
L 167.384316 590.574071 
L 171.155464 597.868709 
L 175.052318 573.281788 
L 178.823467 551.826826 
L 182.72032 531.300524 
L 186.617174 516.135027 
L 190.136912 500.798343 
L 194.033766 475.765918 
L 197.804914 459.069404 
L 201.701768 471.015804 
L 205.472916 505.924057 
L 209.36977 555.249573 
L 213.266623 591.632897 
L 217.037772 598.73868 
L 220.934626 573.425072 
L 224.705774 551.616237 
L 228.602628 530.846794 
L 232.499481 515.690561 
L 236.01922 500.02491 
L 239.916073 474.858871 
L 243.687222 459.319837 
L 247.584075 471.480496 
L 251.355224 505.708292 
L 255.252077 555.409303 
L 259.148931 592.698633 
L 262.92008 599.642883 
L 266.816933 573.620697 
L 270.588082 551.371799 
L 274.484935 530.38033 
L 278.381789 515.298784 
L 281.901527 499.257746 
L 285.798381 473.969395 
L 289.569529 459.509692 
L 293.466383 471.943496 
L 297.237531 505.481666 
L 301.134385 555.538741 
L 305.031239 593.737321 
L 308.802387 600.583171 
L 312.699241 573.917844 
L 316.470389 551.106628 
L 320.367243 529.844267 
L 324.264096 514.927673 
L 327.90954 498.466182 
L 331.806393 473.106751 
L 335.577542 459.686816 
L 339.474395 472.422077 
L 343.245544 505.346642 
L 347.142398 555.704284 
L 351.039251 594.716041 
L 354.8104 601.529769 
L 358.707253 574.296003 
L 362.478402 550.819524 
L 366.375255 528.957826 
L 370.272109 514.184007 
L 373.791847 497.673946 
L 377.688701 472.312654 
L 381.459849 460.300653 
L 385.356703 472.988106 
L 389.127852 505.593028 
L 393.024705 556.022948 
L 396.921559 595.442539 
L 400.692707 602.437494 
L 404.589561 574.324931 
L 408.360709 550.425484 
L 412.257563 528.300792 
L 416.154416 513.526581 
L 419.674155 497.14038 
L 423.571008 471.709105 
L 427.342157 460.918112 
L 431.239011 473.448795 
L 435.010159 505.580965 
L 438.907013 555.926538 
L 442.803866 595.753525 
L 446.575015 602.902699 
L 450.471868 574.586033 
L 454.243017 550.047043 
L 458.13987 528.109129 
L 462.036724 513.118964 
L 465.556462 497.05885 
L 469.453316 471.548568 
L 473.224465 461.295683 
L 477.121318 473.932657 
L 480.892467 505.478179 
L 484.78932 555.465345 
L 488.686174 596.12125 
L 492.457322 602.954456 
L 496.354176 574.564787 
L 500.125324 549.53744 
L 504.022178 528.046822 
L 507.919031 512.978977 
L 511.564475 497.528266 
L 515.461328 471.469842 
L 519.232477 461.1553 
L 523.129331 474.516748 
L 526.900479 505.636769 
L 530.797333 554.985021 
L 534.694186 596.432754 
L 538.465335 602.846454 
L 542.362188 574.55832 
L 546.133337 549.060349 
L 550.03019 528.162359 
L 553.927044 513.060857 
L 557.446783 498.197481 
L 561.343636 471.385564 
L 565.114785 460.331598 
L 569.011638 474.807902 
L 572.782787 505.924108 
L 576.67964 554.334517 
L 580.576494 596.60937 
L 584.347642 602.409394 
L 592.015644 549.067719 
L 595.912498 528.877505 
L 603.32909 498.618438 
L 607.225944 471.387918 
L 610.997092 459.443155 
L 614.893946 474.895316 
L 618.665094 506.07307 
L 622.561948 553.479367 
L 626.458801 596.520563 
L 630.22995 601.434004 
L 637.897952 549.537522 
L 641.794805 530.18283 
L 645.691659 513.242416 
L 649.211398 498.940737 
L 653.108251 471.457794 
L 656.8794 459.031833 
L 660.776253 474.726248 
L 664.547402 505.972834 
L 668.444255 552.778512 
L 672.341109 596.04993 
L 676.112257 600.499828 
L 680.009111 575.495227 
L 683.780259 550.295052 
L 687.677113 531.48388 
L 691.573966 513.455079 
L 695.21941 499.081361 
L 699.116264 471.308764 
L 702.887412 458.747523 
L 706.784266 474.262591 
L 710.555414 505.872812 
L 714.452268 552.586903 
L 718.349121 595.841165 
L 722.12027 600.476371 
L 729.788272 550.84362 
L 733.685125 531.923267 
L 737.581979 513.773902 
L 741.101718 498.966404 
L 744.998571 470.79232 
L 748.76972 458.303622 
L 752.666573 473.650926 
L 756.437722 505.984271 
L 760.334575 552.969608 
L 764.231429 596.012777 
L 768.002577 601.242105 
L 775.670579 551.032128 
L 779.567433 531.685737 
L 786.984025 498.36482 
L 790.880879 470.143413 
L 794.652027 457.962608 
L 798.548881 472.763722 
L 802.320029 505.89885 
L 806.216883 553.417795 
L 810.113736 596.466496 
L 813.884885 602.605499 
L 821.552887 551.271815 
L 825.449741 531.17724 
L 829.346594 514.877859 
L 832.866333 496.910987 
L 836.763186 469.426859 
L 840.534335 457.816893 
L 844.431188 471.707325 
L 848.202337 505.673568 
L 852.09919 553.801747 
L 855.996044 597.088576 
L 859.767193 604.306536 
L 867.435195 551.580646 
L 871.332048 530.468041 
L 875.228902 515.450027 
L 878.874345 494.685463 
L 882.771199 468.726465 
L 886.542347 457.813385 
L 890.439201 470.526277 
L 894.210349 505.715077 
L 898.107203 554.431343 
L 902.004056 597.963521 
L 905.775205 605.931166 
L 913.443207 551.795192 
L 917.340061 529.529796 
L 921.236914 515.52651 
L 924.756653 492.283737 
L 928.653506 468.103616 
L 932.424655 457.492362 
L 936.321508 469.483391 
L 940.092657 506.126681 
L 943.98951 555.676913 
L 947.886364 599.474776 
L 951.657513 607.518918 
L 959.325515 551.730812 
L 963.222368 528.447504 
L 967.119222 514.978094 
L 970.63896 490.27494 
L 974.535814 467.252866 
L 978.306962 456.728219 
L 982.203816 468.956707 
L 985.974964 506.654683 
L 989.871818 557.123965 
L 993.768672 601.313442 
L 997.53982 608.895968 
L 1005.207822 551.615391 
L 1009.104676 527.794187 
L 1013.001529 514.179681 
L 1016.521268 489.20222 
L 1020.418121 466.31796 
L 1024.18927 455.652744 
L 1028.086123 468.628362 
L 1031.857272 506.805748 
L 1035.754126 557.647009 
L 1039.650979 603.172567 
L 1043.422128 609.827249 
L 1051.09013 551.622762 
L 1054.986983 527.964897 
L 1058.883837 513.418228 
L 1062.52928 488.95397 
L 1066.426134 465.36101 
L 1070.197282 454.503884 
L 1074.094136 468.446804 
L 1077.865285 506.77377 
L 1081.762138 557.509934 
L 1085.658992 605.047096 
L 1089.43014 610.283437 
L 1097.098142 551.519555 
L 1100.994996 528.652506 
L 1104.891849 512.785962 
L 1108.411588 489.038646 
L 1112.308441 464.513888 
L 1116.07959 453.341898 
L 1119.976444 468.341268 
L 1123.747592 506.985263 
L 1127.644446 557.562172 
L 1131.541299 606.223746 
L 1135.312448 610.295909 
L 1142.98045 551.212004 
L 1146.877303 529.290318 
L 1150.774157 512.894093 
L 1158.190749 463.826166 
L 1161.961898 452.445941 
L 1165.858751 468.613304 
L 1169.6299 507.730091 
L 1173.526753 558.401021 
L 1177.423607 605.211155 
L 1181.194755 609.846529 
L 1188.862757 550.778103 
L 1192.759611 529.73838 
L 1196.656464 513.274859 
L 1200.176203 490.83587 
L 1204.073057 463.492809 
L 1207.844205 451.751883 
L 1211.741059 468.962297 
L 1215.512207 508.630893 
L 1219.409061 559.062285 
L 1223.305914 603.970839 
L 1227.077063 609.111942 
L 1234.745065 550.382712 
L 1238.641918 530.178318 
L 1242.538772 513.736565 
L 1246.184216 492.106461 
L 1250.081069 463.190954 
L 1253.852218 451.10569 
L 1257.749071 469.308499 
L 1261.52022 509.471416 
L 1265.417073 559.593949 
L 1269.313927 602.725647 
L 1273.085075 608.345584 
L 1280.753077 549.951076 
L 1284.649931 530.602185 
L 1288.546784 514.295353 
L 1292.066523 493.439933 
L 1295.963377 462.89316 
L 1299.734525 450.524973 
L 1303.631379 469.658015 
L 1307.402527 510.306439 
L 1311.299381 560.10942 
L 1315.196234 601.37991 
L 1318.967383 607.553895 
L 1326.635385 549.481742 
L 1330.532238 530.992565 
L 1334.429092 514.966544 
L 1337.948831 494.773339 
L 1341.845684 462.628095 
L 1345.616833 450.025125 
L 1349.513686 470.022659 
L 1353.284835 511.198274 
L 1357.181688 560.667112 
L 1361.078542 599.843207 
L 1364.84969 606.708398 
L 1368.746544 576.929201 
L 1372.517692 548.981168 
L 1376.414546 531.323618 
L 1380.311399 515.765094 
L 1383.831138 496.119994 
L 1387.727992 462.43009 
L 1391.49914 449.614091 
L 1395.395994 470.403391 
L 1399.167142 512.178788 
L 1403.063996 561.270888 
L 1406.960849 598.077536 
L 1410.731998 605.777443 
L 1414.628851 576.163119 
L 1418.4 548.463973 
L 1418.4 548.463973 
" clip-path="url(#p516d3c0adf)" style="fill: none; stroke: #1f77b4; stroke-width: 1.5; stroke-linecap: round"/>
   </g>
   <g id="patch_13">
    <path d="M 90.83 618.33 
L 90.83 441.58 
" style="fill: none; stroke: #ffffff; stroke-width: 0.8; stroke-linejoin: miter; stroke-linecap: square"/>
   </g>
   <g id="patch_14">
    <path d="M 1418.4 618.33 
L 1418.4 441.58 
" style="fill: none; stroke: #ffffff; stroke-width: 0.8; stroke-linejoin: miter; stroke-linecap: square"/>
   </g>
   <g id="patch_15">
    <path d="M 90.83 618.33 
L 1418.4 618.33 
" style="fill: none; stroke: #ffffff; stroke-width: 0.8; stroke-linejoin: miter; stroke-linecap: square"/>
   </g>
   <g id="patch_16">
    <path d="M 90.83 441.58 
L 1418.4 441.58 
" style="fill: none; stroke: #ffffff; stroke-width: 0.8; stroke-linejoin: miter; stroke-linecap: square"/>
   </g>
  </g>
  <g id="axes_4">
   <g id="patch_17">
    <path d="M 90.83 816.68 
L 1418.4 816.68 
L 1418.4 639.93 
L 90.83 639.93 
z
" style="fill: #eaeaf2"/>
   </g>
   <g id="line2d_34">
    <path d="M 90.83 730.154517 
L 1418.4 730.154517 
" clip-path="url(#p3825b67991)" style="fill: none; stroke: #000000; stroke-width: 1.5; stroke-linecap: round"/>
   </g>
   <g id="matplotlib.axis_7">
    <g id="xtick_22">
     <g id="line2d_35">
      <path d="M 136.712308 816.68 
L 136.712308 639.93 
" clip-path="url(#p3825b67991)" style="fill: none; stroke: #ffffff; stroke-width: 0.8; stroke-linecap: round"/>
     </g>
     <g id="text_13">
      <!-- 1960 -->
      <g style="fill: #262626" transform="translate(114.468558 837.995625) scale(0.2 -0.2)">
       <defs>
        <path id="ArialMT-31" d="M 2384 0 
L 1822 0 
L 1822 3584 
Q 1619 3391 1289 3197 
Q 959 3003 697 2906 
L 697 3450 
Q 1169 3672 1522 3987 
Q 1875 4303 2022 4600 
L 2384 4600 
L 2384 0 
z
" transform="scale(0.015625)"/>
        <path id="ArialMT-39" d="M 350 1059 
L 891 1109 
Q 959 728 1153 556 
Q 1347 384 1650 384 
Q 1909 384 2104 503 
Q 2300 622 2425 820 
Q 2550 1019 2634 1356 
Q 2719 1694 2719 2044 
Q 2719 2081 2716 2156 
Q 2547 1888 2255 1720 
Q 1963 1553 1622 1553 
Q 1053 1553 659 1965 
Q 266 2378 266 3053 
Q 266 3750 677 4175 
Q 1088 4600 1706 4600 
Q 2153 4600 2523 4359 
Q 2894 4119 3086 3673 
Q 3278 3228 3278 2384 
Q 3278 1506 3087 986 
Q 2897 466 2520 194 
Q 2144 -78 1638 -78 
Q 1100 -78 759 220 
Q 419 519 350 1059 
z
M 2653 3081 
Q 2653 3566 2395 3850 
Q 2138 4134 1775 4134 
Q 1400 4134 1122 3828 
Q 844 3522 844 3034 
Q 844 2597 1108 2323 
Q 1372 2050 1759 2050 
Q 2150 2050 2401 2323 
Q 2653 2597 2653 3081 
z
" transform="scale(0.015625)"/>
        <path id="ArialMT-36" d="M 3184 3459 
L 2625 3416 
Q 2550 3747 2413 3897 
Q 2184 4138 1850 4138 
Q 1581 4138 1378 3988 
Q 1113 3794 959 3422 
Q 806 3050 800 2363 
Q 1003 2672 1297 2822 
Q 1591 2972 1913 2972 
Q 2475 2972 2870 2558 
Q 3266 2144 3266 1488 
Q 3266 1056 3080 686 
Q 2894 316 2569 119 
Q 2244 -78 1831 -78 
Q 1128 -78 684 439 
Q 241 956 241 2144 
Q 241 3472 731 4075 
Q 1159 4600 1884 4600 
Q 2425 4600 2770 4297 
Q 3116 3994 3184 3459 
z
M 888 1484 
Q 888 1194 1011 928 
Q 1134 663 1356 523 
Q 1578 384 1822 384 
Q 2178 384 2434 671 
Q 2691 959 2691 1453 
Q 2691 1928 2437 2201 
Q 2184 2475 1800 2475 
Q 1419 2475 1153 2201 
Q 888 1928 888 1484 
z
" transform="scale(0.015625)"/>
       </defs>
       <use xlink:href="#ArialMT-31"/>
       <use xlink:href="#ArialMT-39" transform="translate(55.615234 0)"/>
       <use xlink:href="#ArialMT-36" transform="translate(111.230469 0)"/>
       <use xlink:href="#ArialMT-30" transform="translate(166.845703 0)"/>
      </g>
     </g>
    </g>
    <g id="xtick_23">
     <g id="line2d_36">
      <path d="M 320.367243 816.68 
L 320.367243 639.93 
" clip-path="url(#p3825b67991)" style="fill: none; stroke: #ffffff; stroke-width: 0.8; stroke-linecap: round"/>
     </g>
     <g id="text_14">
      <!-- 1964 -->
      <g style="fill: #262626" transform="translate(298.123493 837.995625) scale(0.2 -0.2)">
       <use xlink:href="#ArialMT-31"/>
       <use xlink:href="#ArialMT-39" transform="translate(55.615234 0)"/>
       <use xlink:href="#ArialMT-36" transform="translate(111.230469 0)"/>
       <use xlink:href="#ArialMT-34" transform="translate(166.845703 0)"/>
      </g>
     </g>
    </g>
    <g id="xtick_24">
     <g id="line2d_37">
      <path d="M 504.022178 816.68 
L 504.022178 639.93 
" clip-path="url(#p3825b67991)" style="fill: none; stroke: #ffffff; stroke-width: 0.8; stroke-linecap: round"/>
     </g>
     <g id="text_15">
      <!-- 1968 -->
      <g style="fill: #262626" transform="translate(481.778428 837.995625) scale(0.2 -0.2)">
       <defs>
        <path id="ArialMT-38" d="M 1131 2484 
Q 781 2613 612 2850 
Q 444 3088 444 3419 
Q 444 3919 803 4259 
Q 1163 4600 1759 4600 
Q 2359 4600 2725 4251 
Q 3091 3903 3091 3403 
Q 3091 3084 2923 2848 
Q 2756 2613 2416 2484 
Q 2838 2347 3058 2040 
Q 3278 1734 3278 1309 
Q 3278 722 2862 322 
Q 2447 -78 1769 -78 
Q 1091 -78 675 323 
Q 259 725 259 1325 
Q 259 1772 486 2073 
Q 713 2375 1131 2484 
z
M 1019 3438 
Q 1019 3113 1228 2906 
Q 1438 2700 1772 2700 
Q 2097 2700 2305 2904 
Q 2513 3109 2513 3406 
Q 2513 3716 2298 3927 
Q 2084 4138 1766 4138 
Q 1444 4138 1231 3931 
Q 1019 3725 1019 3438 
z
M 838 1322 
Q 838 1081 952 856 
Q 1066 631 1291 507 
Q 1516 384 1775 384 
Q 2178 384 2440 643 
Q 2703 903 2703 1303 
Q 2703 1709 2433 1975 
Q 2163 2241 1756 2241 
Q 1359 2241 1098 1978 
Q 838 1716 838 1322 
z
" transform="scale(0.015625)"/>
       </defs>
       <use xlink:href="#ArialMT-31"/>
       <use xlink:href="#ArialMT-39" transform="translate(55.615234 0)"/>
       <use xlink:href="#ArialMT-36" transform="translate(111.230469 0)"/>
       <use xlink:href="#ArialMT-38" transform="translate(166.845703 0)"/>
      </g>
     </g>
    </g>
    <g id="xtick_25">
     <g id="line2d_38">
      <path d="M 687.677113 816.68 
L 687.677113 639.93 
" clip-path="url(#p3825b67991)" style="fill: none; stroke: #ffffff; stroke-width: 0.8; stroke-linecap: round"/>
     </g>
     <g id="text_16">
      <!-- 1972 -->
      <g style="fill: #262626" transform="translate(665.433363 837.995625) scale(0.2 -0.2)">
       <defs>
        <path id="ArialMT-37" d="M 303 3981 
L 303 4522 
L 3269 4522 
L 3269 4084 
Q 2831 3619 2401 2847 
Q 1972 2075 1738 1259 
Q 1569 684 1522 0 
L 944 0 
Q 953 541 1156 1306 
Q 1359 2072 1739 2783 
Q 2119 3494 2547 3981 
L 303 3981 
z
" transform="scale(0.015625)"/>
       </defs>
       <use xlink:href="#ArialMT-31"/>
       <use xlink:href="#ArialMT-39" transform="translate(55.615234 0)"/>
       <use xlink:href="#ArialMT-37" transform="translate(111.230469 0)"/>
       <use xlink:href="#ArialMT-32" transform="translate(166.845703 0)"/>
      </g>
     </g>
    </g>
    <g id="xtick_26">
     <g id="line2d_39">
      <path d="M 871.332048 816.68 
L 871.332048 639.93 
" clip-path="url(#p3825b67991)" style="fill: none; stroke: #ffffff; stroke-width: 0.8; stroke-linecap: round"/>
     </g>
     <g id="text_17">
      <!-- 1976 -->
      <g style="fill: #262626" transform="translate(849.088298 837.995625) scale(0.2 -0.2)">
       <use xlink:href="#ArialMT-31"/>
       <use xlink:href="#ArialMT-39" transform="translate(55.615234 0)"/>
       <use xlink:href="#ArialMT-37" transform="translate(111.230469 0)"/>
       <use xlink:href="#ArialMT-36" transform="translate(166.845703 0)"/>
      </g>
     </g>
    </g>
    <g id="xtick_27">
     <g id="line2d_40">
      <path d="M 1054.986983 816.68 
L 1054.986983 639.93 
" clip-path="url(#p3825b67991)" style="fill: none; stroke: #ffffff; stroke-width: 0.8; stroke-linecap: round"/>
     </g>
     <g id="text_18">
      <!-- 1980 -->
      <g style="fill: #262626" transform="translate(1032.743233 837.995625) scale(0.2 -0.2)">
       <use xlink:href="#ArialMT-31"/>
       <use xlink:href="#ArialMT-39" transform="translate(55.615234 0)"/>
       <use xlink:href="#ArialMT-38" transform="translate(111.230469 0)"/>
       <use xlink:href="#ArialMT-30" transform="translate(166.845703 0)"/>
      </g>
     </g>
    </g>
    <g id="xtick_28">
     <g id="line2d_41">
      <path d="M 1238.641918 816.68 
L 1238.641918 639.93 
" clip-path="url(#p3825b67991)" style="fill: none; stroke: #ffffff; stroke-width: 0.8; stroke-linecap: round"/>
     </g>
     <g id="text_19">
      <!-- 1984 -->
      <g style="fill: #262626" transform="translate(1216.398168 837.995625) scale(0.2 -0.2)">
       <use xlink:href="#ArialMT-31"/>
       <use xlink:href="#ArialMT-39" transform="translate(55.615234 0)"/>
       <use xlink:href="#ArialMT-38" transform="translate(111.230469 0)"/>
       <use xlink:href="#ArialMT-34" transform="translate(166.845703 0)"/>
      </g>
     </g>
    </g>
   </g>
   <g id="matplotlib.axis_8">
    <g id="ytick_10">
     <g id="line2d_42">
      <path d="M 90.83 791.829806 
L 1418.4 791.829806 
" clip-path="url(#p3825b67991)" style="fill: none; stroke: #ffffff; stroke-width: 0.8; stroke-linecap: round"/>
     </g>
     <g id="text_20">
      <!-- −0.5 -->
      <g style="fill: #262626" transform="translate(44.34875 798.987618) scale(0.2 -0.2)">
       <defs>
        <path id="ArialMT-2e" d="M 581 0 
L 581 641 
L 1222 641 
L 1222 0 
L 581 0 
z
" transform="scale(0.015625)"/>
       </defs>
       <use xlink:href="#ArialMT-2212"/>
       <use xlink:href="#ArialMT-30" transform="translate(58.398438 0)"/>
       <use xlink:href="#ArialMT-2e" transform="translate(114.013672 0)"/>
       <use xlink:href="#ArialMT-35" transform="translate(141.796875 0)"/>
      </g>
     </g>
    </g>
    <g id="ytick_11">
     <g id="line2d_43">
      <path d="M 90.83 730.154517 
L 1418.4 730.154517 
" clip-path="url(#p3825b67991)" style="fill: none; stroke: #ffffff; stroke-width: 0.8; stroke-linecap: round"/>
     </g>
     <g id="text_21">
      <!-- 0.0 -->
      <g style="fill: #262626" transform="translate(56.03 737.31233) scale(0.2 -0.2)">
       <use xlink:href="#ArialMT-30"/>
       <use xlink:href="#ArialMT-2e" transform="translate(55.615234 0)"/>
       <use xlink:href="#ArialMT-30" transform="translate(83.398438 0)"/>
      </g>
     </g>
    </g>
    <g id="ytick_12">
     <g id="line2d_44">
      <path d="M 90.83 668.479229 
L 1418.4 668.479229 
" clip-path="url(#p3825b67991)" style="fill: none; stroke: #ffffff; stroke-width: 0.8; stroke-linecap: round"/>
     </g>
     <g id="text_22">
      <!-- 0.5 -->
      <g style="fill: #262626" transform="translate(56.03 675.637041) scale(0.2 -0.2)">
       <use xlink:href="#ArialMT-30"/>
       <use xlink:href="#ArialMT-2e" transform="translate(55.615234 0)"/>
       <use xlink:href="#ArialMT-35" transform="translate(83.398438 0)"/>
      </g>
     </g>
    </g>
    <g id="text_23">
     <!-- Resid -->
     <g style="fill: #262626" transform="translate(36.37375 753.870625) rotate(-90) scale(0.2 -0.2)">
      <defs>
       <path id="ArialMT-52" d="M 503 0 
L 503 4581 
L 2534 4581 
Q 3147 4581 3465 4457 
Q 3784 4334 3975 4021 
Q 4166 3709 4166 3331 
Q 4166 2844 3850 2509 
Q 3534 2175 2875 2084 
Q 3116 1969 3241 1856 
Q 3506 1613 3744 1247 
L 4541 0 
L 3778 0 
L 3172 953 
Q 2906 1366 2734 1584 
Q 2563 1803 2427 1890 
Q 2291 1978 2150 2013 
Q 2047 2034 1813 2034 
L 1109 2034 
L 1109 0 
L 503 0 
z
M 1109 2559 
L 2413 2559 
Q 2828 2559 3062 2645 
Q 3297 2731 3419 2920 
Q 3541 3109 3541 3331 
Q 3541 3656 3305 3865 
Q 3069 4075 2559 4075 
L 1109 4075 
L 1109 2559 
z
" transform="scale(0.015625)"/>
       <path id="ArialMT-69" d="M 425 3934 
L 425 4581 
L 988 4581 
L 988 3934 
L 425 3934 
z
M 425 0 
L 425 3319 
L 988 3319 
L 988 0 
L 425 0 
z
" transform="scale(0.015625)"/>
      </defs>
      <use xlink:href="#ArialMT-52"/>
      <use xlink:href="#ArialMT-65" transform="translate(72.216797 0)"/>
      <use xlink:href="#ArialMT-73" transform="translate(127.832031 0)"/>
      <use xlink:href="#ArialMT-69" transform="translate(177.832031 0)"/>
      <use xlink:href="#ArialMT-64" transform="translate(200.048828 0)"/>
     </g>
    </g>
   </g>
   <g id="line2d_45">
    <defs>
     <path id="m03e0490071" d="M 0 3 
C 0.795609 3 1.55874 2.683901 2.12132 2.12132 
C 2.683901 1.55874 3 0.795609 3 0 
C 3 -0.795609 2.683901 -1.55874 2.12132 -2.12132 
C 1.55874 -2.683901 0.795609 -3 0 -3 
C -0.795609 -3 -1.55874 -2.683901 -2.12132 -2.12132 
C -2.683901 -1.55874 -3 -0.795609 -3 0 
C -3 0.795609 -2.683901 1.55874 -2.12132 2.12132 
C -1.55874 2.683901 -0.795609 3 0 3 
z
" style="stroke: #1f77b4"/>
    </defs>
    <g clip-path="url(#p3825b67991)">
     <use xlink:href="#m03e0490071" x="90.83" y="704.366535" style="fill: #1f77b4; stroke: #1f77b4"/>
     <use xlink:href="#m03e0490071" x="94.726854" y="692.744053" style="fill: #1f77b4; stroke: #1f77b4"/>
     <use xlink:href="#m03e0490071" x="98.246592" y="729.01833" style="fill: #1f77b4; stroke: #1f77b4"/>
     <use xlink:href="#m03e0490071" x="102.143446" y="740.116152" style="fill: #1f77b4; stroke: #1f77b4"/>
     <use xlink:href="#m03e0490071" x="105.914594" y="778.699517" style="fill: #1f77b4; stroke: #1f77b4"/>
     <use xlink:href="#m03e0490071" x="109.811448" y="752.604305" style="fill: #1f77b4; stroke: #1f77b4"/>
     <use xlink:href="#m03e0490071" x="113.582596" y="769.972622" style="fill: #1f77b4; stroke: #1f77b4"/>
     <use xlink:href="#m03e0490071" x="117.47945" y="740.980075" style="fill: #1f77b4; stroke: #1f77b4"/>
     <use xlink:href="#m03e0490071" x="121.376303" y="698.162568" style="fill: #1f77b4; stroke: #1f77b4"/>
     <use xlink:href="#m03e0490071" x="125.147452" y="729.58635" style="fill: #1f77b4; stroke: #1f77b4"/>
     <use xlink:href="#m03e0490071" x="129.044305" y="682.917472" style="fill: #1f77b4; stroke: #1f77b4"/>
     <use xlink:href="#m03e0490071" x="132.815454" y="714.257731" style="fill: #1f77b4; stroke: #1f77b4"/>
     <use xlink:href="#m03e0490071" x="136.712308" y="735.156555" style="fill: #1f77b4; stroke: #1f77b4"/>
     <use xlink:href="#m03e0490071" x="140.609161" y="751.600014" style="fill: #1f77b4; stroke: #1f77b4"/>
     <use xlink:href="#m03e0490071" x="144.254605" y="751.190469" style="fill: #1f77b4; stroke: #1f77b4"/>
     <use xlink:href="#m03e0490071" x="148.151458" y="707.836708" style="fill: #1f77b4; stroke: #1f77b4"/>
     <use xlink:href="#m03e0490071" x="151.922607" y="697.594365" style="fill: #1f77b4; stroke: #1f77b4"/>
     <use xlink:href="#m03e0490071" x="155.81946" y="688.816374" style="fill: #1f77b4; stroke: #1f77b4"/>
     <use xlink:href="#m03e0490071" x="159.590609" y="688.594158" style="fill: #1f77b4; stroke: #1f77b4"/>
     <use xlink:href="#m03e0490071" x="163.487462" y="725.591477" style="fill: #1f77b4; stroke: #1f77b4"/>
     <use xlink:href="#m03e0490071" x="167.384316" y="765.644886" style="fill: #1f77b4; stroke: #1f77b4"/>
     <use xlink:href="#m03e0490071" x="171.155464" y="756.778647" style="fill: #1f77b4; stroke: #1f77b4"/>
     <use xlink:href="#m03e0490071" x="175.052318" y="763.080151" style="fill: #1f77b4; stroke: #1f77b4"/>
     <use xlink:href="#m03e0490071" x="178.823467" y="731.560264" style="fill: #1f77b4; stroke: #1f77b4"/>
     <use xlink:href="#m03e0490071" x="182.72032" y="756.624508" style="fill: #1f77b4; stroke: #1f77b4"/>
     <use xlink:href="#m03e0490071" x="186.617174" y="737.513322" style="fill: #1f77b4; stroke: #1f77b4"/>
     <use xlink:href="#m03e0490071" x="190.136912" y="728.411282" style="fill: #1f77b4; stroke: #1f77b4"/>
     <use xlink:href="#m03e0490071" x="194.033766" y="749.053097" style="fill: #1f77b4; stroke: #1f77b4"/>
     <use xlink:href="#m03e0490071" x="197.804914" y="703.473629" style="fill: #1f77b4; stroke: #1f77b4"/>
     <use xlink:href="#m03e0490071" x="201.701768" y="751.76266" style="fill: #1f77b4; stroke: #1f77b4"/>
     <use xlink:href="#m03e0490071" x="205.472916" y="727.616808" style="fill: #1f77b4; stroke: #1f77b4"/>
     <use xlink:href="#m03e0490071" x="209.36977" y="702.781812" style="fill: #1f77b4; stroke: #1f77b4"/>
     <use xlink:href="#m03e0490071" x="213.266623" y="749.588273" style="fill: #1f77b4; stroke: #1f77b4"/>
     <use xlink:href="#m03e0490071" x="217.037772" y="687.014312" style="fill: #1f77b4; stroke: #1f77b4"/>
     <use xlink:href="#m03e0490071" x="220.934626" y="737.044791" style="fill: #1f77b4; stroke: #1f77b4"/>
     <use xlink:href="#m03e0490071" x="224.705774" y="736.877649" style="fill: #1f77b4; stroke: #1f77b4"/>
     <use xlink:href="#m03e0490071" x="228.602628" y="734.876464" style="fill: #1f77b4; stroke: #1f77b4"/>
     <use xlink:href="#m03e0490071" x="232.499481" y="746.991168" style="fill: #1f77b4; stroke: #1f77b4"/>
     <use xlink:href="#m03e0490071" x="236.01922" y="703.014239" style="fill: #1f77b4; stroke: #1f77b4"/>
     <use xlink:href="#m03e0490071" x="239.916073" y="728.766672" style="fill: #1f77b4; stroke: #1f77b4"/>
     <use xlink:href="#m03e0490071" x="243.687222" y="740.814668" style="fill: #1f77b4; stroke: #1f77b4"/>
     <use xlink:href="#m03e0490071" x="247.584075" y="733.698067" style="fill: #1f77b4; stroke: #1f77b4"/>
     <use xlink:href="#m03e0490071" x="251.355224" y="701.601715" style="fill: #1f77b4; stroke: #1f77b4"/>
     <use xlink:href="#m03e0490071" x="255.252077" y="730.279392" style="fill: #1f77b4; stroke: #1f77b4"/>
     <use xlink:href="#m03e0490071" x="259.148931" y="682.903878" style="fill: #1f77b4; stroke: #1f77b4"/>
     <use xlink:href="#m03e0490071" x="262.92008" y="761.607462" style="fill: #1f77b4; stroke: #1f77b4"/>
     <use xlink:href="#m03e0490071" x="266.816933" y="744.895273" style="fill: #1f77b4; stroke: #1f77b4"/>
     <use xlink:href="#m03e0490071" x="270.588082" y="737.984913" style="fill: #1f77b4; stroke: #1f77b4"/>
     <use xlink:href="#m03e0490071" x="274.484935" y="726.384741" style="fill: #1f77b4; stroke: #1f77b4"/>
     <use xlink:href="#m03e0490071" x="278.381789" y="760.405345" style="fill: #1f77b4; stroke: #1f77b4"/>
     <use xlink:href="#m03e0490071" x="281.901527" y="736.966997" style="fill: #1f77b4; stroke: #1f77b4"/>
     <use xlink:href="#m03e0490071" x="285.798381" y="701.310462" style="fill: #1f77b4; stroke: #1f77b4"/>
     <use xlink:href="#m03e0490071" x="289.569529" y="674.256072" style="fill: #1f77b4; stroke: #1f77b4"/>
     <use xlink:href="#m03e0490071" x="293.466383" y="705.197955" style="fill: #1f77b4; stroke: #1f77b4"/>
     <use xlink:href="#m03e0490071" x="297.237531" y="759.135623" style="fill: #1f77b4; stroke: #1f77b4"/>
     <use xlink:href="#m03e0490071" x="301.134385" y="754.845293" style="fill: #1f77b4; stroke: #1f77b4"/>
     <use xlink:href="#m03e0490071" x="305.031239" y="752.170619" style="fill: #1f77b4; stroke: #1f77b4"/>
     <use xlink:href="#m03e0490071" x="308.802387" y="736.61211" style="fill: #1f77b4; stroke: #1f77b4"/>
     <use xlink:href="#m03e0490071" x="312.699241" y="766.111398" style="fill: #1f77b4; stroke: #1f77b4"/>
     <use xlink:href="#m03e0490071" x="316.470389" y="721.466833" style="fill: #1f77b4; stroke: #1f77b4"/>
     <use xlink:href="#m03e0490071" x="320.367243" y="696.491774" style="fill: #1f77b4; stroke: #1f77b4"/>
     <use xlink:href="#m03e0490071" x="324.264096" y="695.934855" style="fill: #1f77b4; stroke: #1f77b4"/>
     <use xlink:href="#m03e0490071" x="327.90954" y="704.347453" style="fill: #1f77b4; stroke: #1f77b4"/>
     <use xlink:href="#m03e0490071" x="331.806393" y="759.582908" style="fill: #1f77b4; stroke: #1f77b4"/>
     <use xlink:href="#m03e0490071" x="335.577542" y="752.531837" style="fill: #1f77b4; stroke: #1f77b4"/>
     <use xlink:href="#m03e0490071" x="339.474395" y="730.496038" style="fill: #1f77b4; stroke: #1f77b4"/>
     <use xlink:href="#m03e0490071" x="343.245544" y="751.007268" style="fill: #1f77b4; stroke: #1f77b4"/>
     <use xlink:href="#m03e0490071" x="347.142398" y="724.607149" style="fill: #1f77b4; stroke: #1f77b4"/>
     <use xlink:href="#m03e0490071" x="351.039251" y="761.870046" style="fill: #1f77b4; stroke: #1f77b4"/>
     <use xlink:href="#m03e0490071" x="354.8104" y="680.611556" style="fill: #1f77b4; stroke: #1f77b4"/>
     <use xlink:href="#m03e0490071" x="358.707253" y="727.675911" style="fill: #1f77b4; stroke: #1f77b4"/>
     <use xlink:href="#m03e0490071" x="362.478402" y="734.460394" style="fill: #1f77b4; stroke: #1f77b4"/>
     <use xlink:href="#m03e0490071" x="366.375255" y="752.542386" style="fill: #1f77b4; stroke: #1f77b4"/>
     <use xlink:href="#m03e0490071" x="370.272109" y="707.12633" style="fill: #1f77b4; stroke: #1f77b4"/>
     <use xlink:href="#m03e0490071" x="373.791847" y="745.479738" style="fill: #1f77b4; stroke: #1f77b4"/>
     <use xlink:href="#m03e0490071" x="377.688701" y="729.1863" style="fill: #1f77b4; stroke: #1f77b4"/>
     <use xlink:href="#m03e0490071" x="381.459849" y="787.584942" style="fill: #1f77b4; stroke: #1f77b4"/>
     <use xlink:href="#m03e0490071" x="385.356703" y="761.625549" style="fill: #1f77b4; stroke: #1f77b4"/>
     <use xlink:href="#m03e0490071" x="389.127852" y="695.672142" style="fill: #1f77b4; stroke: #1f77b4"/>
     <use xlink:href="#m03e0490071" x="393.024705" y="740.328421" style="fill: #1f77b4; stroke: #1f77b4"/>
     <use xlink:href="#m03e0490071" x="396.921559" y="673.410542" style="fill: #1f77b4; stroke: #1f77b4"/>
     <use xlink:href="#m03e0490071" x="400.692707" y="705.004223" style="fill: #1f77b4; stroke: #1f77b4"/>
     <use xlink:href="#m03e0490071" x="404.589561" y="659.971009" style="fill: #1f77b4; stroke: #1f77b4"/>
     <use xlink:href="#m03e0490071" x="408.360709" y="773.529194" style="fill: #1f77b4; stroke: #1f77b4"/>
     <use xlink:href="#m03e0490071" x="412.257563" y="789.42959" style="fill: #1f77b4; stroke: #1f77b4"/>
     <use xlink:href="#m03e0490071" x="416.154416" y="741.471672" style="fill: #1f77b4; stroke: #1f77b4"/>
     <use xlink:href="#m03e0490071" x="419.674155" y="728.458174" style="fill: #1f77b4; stroke: #1f77b4"/>
     <use xlink:href="#m03e0490071" x="423.571008" y="710.431955" style="fill: #1f77b4; stroke: #1f77b4"/>
     <use xlink:href="#m03e0490071" x="427.342157" y="727.494113" style="fill: #1f77b4; stroke: #1f77b4"/>
     <use xlink:href="#m03e0490071" x="431.239011" y="707.619161" style="fill: #1f77b4; stroke: #1f77b4"/>
     <use xlink:href="#m03e0490071" x="435.010159" y="717.767471" style="fill: #1f77b4; stroke: #1f77b4"/>
     <use xlink:href="#m03e0490071" x="438.907013" y="726.204855" style="fill: #1f77b4; stroke: #1f77b4"/>
     <use xlink:href="#m03e0490071" x="442.803866" y="758.502146" style="fill: #1f77b4; stroke: #1f77b4"/>
     <use xlink:href="#m03e0490071" x="446.575015" y="804.085328" style="fill: #1f77b4; stroke: #1f77b4"/>
     <use xlink:href="#m03e0490071" x="450.471868" y="731.27968" style="fill: #1f77b4; stroke: #1f77b4"/>
     <use xlink:href="#m03e0490071" x="454.243017" y="710.074397" style="fill: #1f77b4; stroke: #1f77b4"/>
     <use xlink:href="#m03e0490071" x="458.13987" y="659.524133" style="fill: #1f77b4; stroke: #1f77b4"/>
     <use xlink:href="#m03e0490071" x="462.036724" y="720.946761" style="fill: #1f77b4; stroke: #1f77b4"/>
     <use xlink:href="#m03e0490071" x="465.556462" y="741.821895" style="fill: #1f77b4; stroke: #1f77b4"/>
     <use xlink:href="#m03e0490071" x="469.453316" y="716.791796" style="fill: #1f77b4; stroke: #1f77b4"/>
     <use xlink:href="#m03e0490071" x="473.224465" y="712.257516" style="fill: #1f77b4; stroke: #1f77b4"/>
     <use xlink:href="#m03e0490071" x="477.121318" y="760.186255" style="fill: #1f77b4; stroke: #1f77b4"/>
     <use xlink:href="#m03e0490071" x="480.892467" y="786.435682" style="fill: #1f77b4; stroke: #1f77b4"/>
     <use xlink:href="#m03e0490071" x="484.78932" y="737.907252" style="fill: #1f77b4; stroke: #1f77b4"/>
     <use xlink:href="#m03e0490071" x="488.686174" y="751.66166" style="fill: #1f77b4; stroke: #1f77b4"/>
     <use xlink:href="#m03e0490071" x="492.457322" y="726.074253" style="fill: #1f77b4; stroke: #1f77b4"/>
     <use xlink:href="#m03e0490071" x="496.354176" y="704.43694" style="fill: #1f77b4; stroke: #1f77b4"/>
     <use xlink:href="#m03e0490071" x="500.125324" y="685.303119" style="fill: #1f77b4; stroke: #1f77b4"/>
     <use xlink:href="#m03e0490071" x="504.022178" y="729.057735" style="fill: #1f77b4; stroke: #1f77b4"/>
     <use xlink:href="#m03e0490071" x="507.919031" y="744.031916" style="fill: #1f77b4; stroke: #1f77b4"/>
     <use xlink:href="#m03e0490071" x="511.564475" y="746.785359" style="fill: #1f77b4; stroke: #1f77b4"/>
     <use xlink:href="#m03e0490071" x="515.461328" y="758.098979" style="fill: #1f77b4; stroke: #1f77b4"/>
     <use xlink:href="#m03e0490071" x="519.232477" y="739.472466" style="fill: #1f77b4; stroke: #1f77b4"/>
     <use xlink:href="#m03e0490071" x="523.129331" y="699.575178" style="fill: #1f77b4; stroke: #1f77b4"/>
     <use xlink:href="#m03e0490071" x="526.900479" y="708.817562" style="fill: #1f77b4; stroke: #1f77b4"/>
     <use xlink:href="#m03e0490071" x="530.797333" y="727.09151" style="fill: #1f77b4; stroke: #1f77b4"/>
     <use xlink:href="#m03e0490071" x="534.694186" y="753.957115" style="fill: #1f77b4; stroke: #1f77b4"/>
     <use xlink:href="#m03e0490071" x="538.465335" y="752.764814" style="fill: #1f77b4; stroke: #1f77b4"/>
     <use xlink:href="#m03e0490071" x="542.362188" y="786.485138" style="fill: #1f77b4; stroke: #1f77b4"/>
     <use xlink:href="#m03e0490071" x="546.133337" y="749.202065" style="fill: #1f77b4; stroke: #1f77b4"/>
     <use xlink:href="#m03e0490071" x="550.03019" y="719.307564" style="fill: #1f77b4; stroke: #1f77b4"/>
     <use xlink:href="#m03e0490071" x="553.927044" y="732.673958" style="fill: #1f77b4; stroke: #1f77b4"/>
     <use xlink:href="#m03e0490071" x="557.446783" y="686.77918" style="fill: #1f77b4; stroke: #1f77b4"/>
     <use xlink:href="#m03e0490071" x="561.343636" y="716.300873" style="fill: #1f77b4; stroke: #1f77b4"/>
     <use xlink:href="#m03e0490071" x="565.114785" y="701.073825" style="fill: #1f77b4; stroke: #1f77b4"/>
     <use xlink:href="#m03e0490071" x="569.011638" y="739.229785" style="fill: #1f77b4; stroke: #1f77b4"/>
     <use xlink:href="#m03e0490071" x="572.782787" y="699.62099" style="fill: #1f77b4; stroke: #1f77b4"/>
     <use xlink:href="#m03e0490071" x="576.67964" y="741.882649" style="fill: #1f77b4; stroke: #1f77b4"/>
     <use xlink:href="#m03e0490071" x="580.576494" y="698.779033" style="fill: #1f77b4; stroke: #1f77b4"/>
     <use xlink:href="#m03e0490071" x="584.347642" y="750.543172" style="fill: #1f77b4; stroke: #1f77b4"/>
     <use xlink:href="#m03e0490071" x="588.244496" y="775.005265" style="fill: #1f77b4; stroke: #1f77b4"/>
     <use xlink:href="#m03e0490071" x="592.015644" y="745.588169" style="fill: #1f77b4; stroke: #1f77b4"/>
     <use xlink:href="#m03e0490071" x="595.912498" y="753.244447" style="fill: #1f77b4; stroke: #1f77b4"/>
     <use xlink:href="#m03e0490071" x="599.809351" y="726.855722" style="fill: #1f77b4; stroke: #1f77b4"/>
     <use xlink:href="#m03e0490071" x="603.32909" y="694.979887" style="fill: #1f77b4; stroke: #1f77b4"/>
     <use xlink:href="#m03e0490071" x="607.225944" y="692.716342" style="fill: #1f77b4; stroke: #1f77b4"/>
     <use xlink:href="#m03e0490071" x="610.997092" y="767.393064" style="fill: #1f77b4; stroke: #1f77b4"/>
     <use xlink:href="#m03e0490071" x="614.893946" y="739.568057" style="fill: #1f77b4; stroke: #1f77b4"/>
     <use xlink:href="#m03e0490071" x="618.665094" y="747.930305" style="fill: #1f77b4; stroke: #1f77b4"/>
     <use xlink:href="#m03e0490071" x="622.561948" y="719.998404" style="fill: #1f77b4; stroke: #1f77b4"/>
     <use xlink:href="#m03e0490071" x="626.458801" y="701.397475" style="fill: #1f77b4; stroke: #1f77b4"/>
     <use xlink:href="#m03e0490071" x="630.22995" y="689.469576" style="fill: #1f77b4; stroke: #1f77b4"/>
     <use xlink:href="#m03e0490071" x="634.126803" y="717.747281" style="fill: #1f77b4; stroke: #1f77b4"/>
     <use xlink:href="#m03e0490071" x="637.897952" y="724.335907" style="fill: #1f77b4; stroke: #1f77b4"/>
     <use xlink:href="#m03e0490071" x="641.794805" y="706.783411" style="fill: #1f77b4; stroke: #1f77b4"/>
     <use xlink:href="#m03e0490071" x="645.691659" y="740.835349" style="fill: #1f77b4; stroke: #1f77b4"/>
     <use xlink:href="#m03e0490071" x="649.211398" y="756.101286" style="fill: #1f77b4; stroke: #1f77b4"/>
     <use xlink:href="#m03e0490071" x="653.108251" y="808.645909" style="fill: #1f77b4; stroke: #1f77b4"/>
     <use xlink:href="#m03e0490071" x="656.8794" y="731.892045" style="fill: #1f77b4; stroke: #1f77b4"/>
     <use xlink:href="#m03e0490071" x="660.776253" y="706.539577" style="fill: #1f77b4; stroke: #1f77b4"/>
     <use xlink:href="#m03e0490071" x="664.547402" y="713.831561" style="fill: #1f77b4; stroke: #1f77b4"/>
     <use xlink:href="#m03e0490071" x="668.444255" y="719.265586" style="fill: #1f77b4; stroke: #1f77b4"/>
     <use xlink:href="#m03e0490071" x="672.341109" y="764.112391" style="fill: #1f77b4; stroke: #1f77b4"/>
     <use xlink:href="#m03e0490071" x="676.112257" y="731.070922" style="fill: #1f77b4; stroke: #1f77b4"/>
     <use xlink:href="#m03e0490071" x="680.009111" y="702.737836" style="fill: #1f77b4; stroke: #1f77b4"/>
     <use xlink:href="#m03e0490071" x="683.780259" y="701.521104" style="fill: #1f77b4; stroke: #1f77b4"/>
     <use xlink:href="#m03e0490071" x="687.677113" y="723.791448" style="fill: #1f77b4; stroke: #1f77b4"/>
     <use xlink:href="#m03e0490071" x="691.573966" y="712.59074" style="fill: #1f77b4; stroke: #1f77b4"/>
     <use xlink:href="#m03e0490071" x="695.21941" y="781.525377" style="fill: #1f77b4; stroke: #1f77b4"/>
     <use xlink:href="#m03e0490071" x="699.116264" y="692.14494" style="fill: #1f77b4; stroke: #1f77b4"/>
     <use xlink:href="#m03e0490071" x="702.887412" y="730.813087" style="fill: #1f77b4; stroke: #1f77b4"/>
     <use xlink:href="#m03e0490071" x="706.784266" y="792.484826" style="fill: #1f77b4; stroke: #1f77b4"/>
     <use xlink:href="#m03e0490071" x="710.555414" y="786.161698" style="fill: #1f77b4; stroke: #1f77b4"/>
     <use xlink:href="#m03e0490071" x="714.452268" y="778.703773" style="fill: #1f77b4; stroke: #1f77b4"/>
     <use xlink:href="#m03e0490071" x="718.349121" y="758.622381" style="fill: #1f77b4; stroke: #1f77b4"/>
     <use xlink:href="#m03e0490071" x="722.12027" y="718.40171" style="fill: #1f77b4; stroke: #1f77b4"/>
     <use xlink:href="#m03e0490071" x="726.017123" y="713.271684" style="fill: #1f77b4; stroke: #1f77b4"/>
     <use xlink:href="#m03e0490071" x="729.788272" y="720.502171" style="fill: #1f77b4; stroke: #1f77b4"/>
     <use xlink:href="#m03e0490071" x="733.685125" y="720.560876" style="fill: #1f77b4; stroke: #1f77b4"/>
     <use xlink:href="#m03e0490071" x="737.581979" y="720.60745" style="fill: #1f77b4; stroke: #1f77b4"/>
     <use xlink:href="#m03e0490071" x="741.101718" y="728.245874" style="fill: #1f77b4; stroke: #1f77b4"/>
     <use xlink:href="#m03e0490071" x="744.998571" y="741.620379" style="fill: #1f77b4; stroke: #1f77b4"/>
     <use xlink:href="#m03e0490071" x="748.76972" y="705.996785" style="fill: #1f77b4; stroke: #1f77b4"/>
     <use xlink:href="#m03e0490071" x="752.666573" y="698.144674" style="fill: #1f77b4; stroke: #1f77b4"/>
     <use xlink:href="#m03e0490071" x="756.437722" y="695.194174" style="fill: #1f77b4; stroke: #1f77b4"/>
     <use xlink:href="#m03e0490071" x="760.334575" y="669.159849" style="fill: #1f77b4; stroke: #1f77b4"/>
     <use xlink:href="#m03e0490071" x="764.231429" y="684.016711" style="fill: #1f77b4; stroke: #1f77b4"/>
     <use xlink:href="#m03e0490071" x="768.002577" y="704.513291" style="fill: #1f77b4; stroke: #1f77b4"/>
     <use xlink:href="#m03e0490071" x="771.899431" y="714.884232" style="fill: #1f77b4; stroke: #1f77b4"/>
     <use xlink:href="#m03e0490071" x="775.670579" y="782.555484" style="fill: #1f77b4; stroke: #1f77b4"/>
     <use xlink:href="#m03e0490071" x="779.567433" y="807.252655" style="fill: #1f77b4; stroke: #1f77b4"/>
     <use xlink:href="#m03e0490071" x="783.464287" y="719.997156" style="fill: #1f77b4; stroke: #1f77b4"/>
     <use xlink:href="#m03e0490071" x="786.984025" y="713.595339" style="fill: #1f77b4; stroke: #1f77b4"/>
     <use xlink:href="#m03e0490071" x="790.880879" y="708.659318" style="fill: #1f77b4; stroke: #1f77b4"/>
     <use xlink:href="#m03e0490071" x="794.652027" y="720.501954" style="fill: #1f77b4; stroke: #1f77b4"/>
     <use xlink:href="#m03e0490071" x="798.548881" y="755.027921" style="fill: #1f77b4; stroke: #1f77b4"/>
     <use xlink:href="#m03e0490071" x="802.320029" y="726.029837" style="fill: #1f77b4; stroke: #1f77b4"/>
     <use xlink:href="#m03e0490071" x="806.216883" y="707.258938" style="fill: #1f77b4; stroke: #1f77b4"/>
     <use xlink:href="#m03e0490071" x="810.113736" y="738.825022" style="fill: #1f77b4; stroke: #1f77b4"/>
     <use xlink:href="#m03e0490071" x="813.884885" y="714.534869" style="fill: #1f77b4; stroke: #1f77b4"/>
     <use xlink:href="#m03e0490071" x="817.781738" y="727.622986" style="fill: #1f77b4; stroke: #1f77b4"/>
     <use xlink:href="#m03e0490071" x="821.552887" y="714.535847" style="fill: #1f77b4; stroke: #1f77b4"/>
     <use xlink:href="#m03e0490071" x="825.449741" y="733.71814" style="fill: #1f77b4; stroke: #1f77b4"/>
     <use xlink:href="#m03e0490071" x="829.346594" y="758.227879" style="fill: #1f77b4; stroke: #1f77b4"/>
     <use xlink:href="#m03e0490071" x="832.866333" y="777.254625" style="fill: #1f77b4; stroke: #1f77b4"/>
     <use xlink:href="#m03e0490071" x="836.763186" y="771.348634" style="fill: #1f77b4; stroke: #1f77b4"/>
     <use xlink:href="#m03e0490071" x="840.534335" y="747.368621" style="fill: #1f77b4; stroke: #1f77b4"/>
     <use xlink:href="#m03e0490071" x="844.431188" y="699.813679" style="fill: #1f77b4; stroke: #1f77b4"/>
     <use xlink:href="#m03e0490071" x="848.202337" y="740.207851" style="fill: #1f77b4; stroke: #1f77b4"/>
     <use xlink:href="#m03e0490071" x="852.09919" y="733.219866" style="fill: #1f77b4; stroke: #1f77b4"/>
     <use xlink:href="#m03e0490071" x="855.996044" y="710.828892" style="fill: #1f77b4; stroke: #1f77b4"/>
     <use xlink:href="#m03e0490071" x="859.767193" y="722.537528" style="fill: #1f77b4; stroke: #1f77b4"/>
     <use xlink:href="#m03e0490071" x="863.664046" y="733.741711" style="fill: #1f77b4; stroke: #1f77b4"/>
     <use xlink:href="#m03e0490071" x="867.435195" y="728.147186" style="fill: #1f77b4; stroke: #1f77b4"/>
     <use xlink:href="#m03e0490071" x="871.332048" y="724.955554" style="fill: #1f77b4; stroke: #1f77b4"/>
     <use xlink:href="#m03e0490071" x="875.228902" y="707.999314" style="fill: #1f77b4; stroke: #1f77b4"/>
     <use xlink:href="#m03e0490071" x="878.874345" y="709.554676" style="fill: #1f77b4; stroke: #1f77b4"/>
     <use xlink:href="#m03e0490071" x="882.771199" y="713.745101" style="fill: #1f77b4; stroke: #1f77b4"/>
     <use xlink:href="#m03e0490071" x="886.542347" y="730.332897" style="fill: #1f77b4; stroke: #1f77b4"/>
     <use xlink:href="#m03e0490071" x="890.439201" y="741.936298" style="fill: #1f77b4; stroke: #1f77b4"/>
     <use xlink:href="#m03e0490071" x="894.210349" y="726.363827" style="fill: #1f77b4; stroke: #1f77b4"/>
     <use xlink:href="#m03e0490071" x="898.107203" y="755.271074" style="fill: #1f77b4; stroke: #1f77b4"/>
     <use xlink:href="#m03e0490071" x="902.004056" y="748.844877" style="fill: #1f77b4; stroke: #1f77b4"/>
     <use xlink:href="#m03e0490071" x="905.775205" y="770.397016" style="fill: #1f77b4; stroke: #1f77b4"/>
     <use xlink:href="#m03e0490071" x="909.672059" y="757.952874" style="fill: #1f77b4; stroke: #1f77b4"/>
     <use xlink:href="#m03e0490071" x="913.443207" y="745.875413" style="fill: #1f77b4; stroke: #1f77b4"/>
     <use xlink:href="#m03e0490071" x="917.340061" y="715.527535" style="fill: #1f77b4; stroke: #1f77b4"/>
     <use xlink:href="#m03e0490071" x="921.236914" y="752.834814" style="fill: #1f77b4; stroke: #1f77b4"/>
     <use xlink:href="#m03e0490071" x="924.756653" y="726.85667" style="fill: #1f77b4; stroke: #1f77b4"/>
     <use xlink:href="#m03e0490071" x="928.653506" y="711.218576" style="fill: #1f77b4; stroke: #1f77b4"/>
     <use xlink:href="#m03e0490071" x="932.424655" y="707.248419" style="fill: #1f77b4; stroke: #1f77b4"/>
     <use xlink:href="#m03e0490071" x="936.321508" y="725.254592" style="fill: #1f77b4; stroke: #1f77b4"/>
     <use xlink:href="#m03e0490071" x="940.092657" y="721.077261" style="fill: #1f77b4; stroke: #1f77b4"/>
     <use xlink:href="#m03e0490071" x="943.98951" y="765.183459" style="fill: #1f77b4; stroke: #1f77b4"/>
     <use xlink:href="#m03e0490071" x="947.886364" y="698.125147" style="fill: #1f77b4; stroke: #1f77b4"/>
     <use xlink:href="#m03e0490071" x="951.657513" y="741.64187" style="fill: #1f77b4; stroke: #1f77b4"/>
     <use xlink:href="#m03e0490071" x="955.554366" y="738.434029" style="fill: #1f77b4; stroke: #1f77b4"/>
     <use xlink:href="#m03e0490071" x="959.325515" y="710.528322" style="fill: #1f77b4; stroke: #1f77b4"/>
     <use xlink:href="#m03e0490071" x="963.222368" y="707.979377" style="fill: #1f77b4; stroke: #1f77b4"/>
     <use xlink:href="#m03e0490071" x="967.119222" y="742.037759" style="fill: #1f77b4; stroke: #1f77b4"/>
     <use xlink:href="#m03e0490071" x="970.63896" y="728.255071" style="fill: #1f77b4; stroke: #1f77b4"/>
     <use xlink:href="#m03e0490071" x="974.535814" y="728.970872" style="fill: #1f77b4; stroke: #1f77b4"/>
     <use xlink:href="#m03e0490071" x="978.306962" y="764.240619" style="fill: #1f77b4; stroke: #1f77b4"/>
     <use xlink:href="#m03e0490071" x="982.203816" y="728.800051" style="fill: #1f77b4; stroke: #1f77b4"/>
     <use xlink:href="#m03e0490071" x="985.974964" y="713.865948" style="fill: #1f77b4; stroke: #1f77b4"/>
     <use xlink:href="#m03e0490071" x="989.871818" y="698.84015" style="fill: #1f77b4; stroke: #1f77b4"/>
     <use xlink:href="#m03e0490071" x="993.768672" y="728.90021" style="fill: #1f77b4; stroke: #1f77b4"/>
     <use xlink:href="#m03e0490071" x="997.53982" y="729.049218" style="fill: #1f77b4; stroke: #1f77b4"/>
     <use xlink:href="#m03e0490071" x="1001.436674" y="717.999485" style="fill: #1f77b4; stroke: #1f77b4"/>
     <use xlink:href="#m03e0490071" x="1005.207822" y="730.19937" style="fill: #1f77b4; stroke: #1f77b4"/>
     <use xlink:href="#m03e0490071" x="1009.104676" y="728.743489" style="fill: #1f77b4; stroke: #1f77b4"/>
     <use xlink:href="#m03e0490071" x="1013.001529" y="743.422783" style="fill: #1f77b4; stroke: #1f77b4"/>
     <use xlink:href="#m03e0490071" x="1016.521268" y="738.476596" style="fill: #1f77b4; stroke: #1f77b4"/>
     <use xlink:href="#m03e0490071" x="1020.418121" y="755.811795" style="fill: #1f77b4; stroke: #1f77b4"/>
     <use xlink:href="#m03e0490071" x="1024.18927" y="760.365664" style="fill: #1f77b4; stroke: #1f77b4"/>
     <use xlink:href="#m03e0490071" x="1028.086123" y="728.61733" style="fill: #1f77b4; stroke: #1f77b4"/>
     <use xlink:href="#m03e0490071" x="1031.857272" y="741.478235" style="fill: #1f77b4; stroke: #1f77b4"/>
     <use xlink:href="#m03e0490071" x="1035.754126" y="708.345623" style="fill: #1f77b4; stroke: #1f77b4"/>
     <use xlink:href="#m03e0490071" x="1039.650979" y="753.670699" style="fill: #1f77b4; stroke: #1f77b4"/>
     <use xlink:href="#m03e0490071" x="1043.422128" y="739.268721" style="fill: #1f77b4; stroke: #1f77b4"/>
     <use xlink:href="#m03e0490071" x="1047.318981" y="735.168825" style="fill: #1f77b4; stroke: #1f77b4"/>
     <use xlink:href="#m03e0490071" x="1051.09013" y="720.966981" style="fill: #1f77b4; stroke: #1f77b4"/>
     <use xlink:href="#m03e0490071" x="1054.986983" y="702.033091" style="fill: #1f77b4; stroke: #1f77b4"/>
     <use xlink:href="#m03e0490071" x="1058.883837" y="749.766459" style="fill: #1f77b4; stroke: #1f77b4"/>
     <use xlink:href="#m03e0490071" x="1062.52928" y="683.226242" style="fill: #1f77b4; stroke: #1f77b4"/>
     <use xlink:href="#m03e0490071" x="1066.426134" y="738.466282" style="fill: #1f77b4; stroke: #1f77b4"/>
     <use xlink:href="#m03e0490071" x="1070.197282" y="729.072015" style="fill: #1f77b4; stroke: #1f77b4"/>
     <use xlink:href="#m03e0490071" x="1074.094136" y="711.012793" style="fill: #1f77b4; stroke: #1f77b4"/>
     <use xlink:href="#m03e0490071" x="1077.865285" y="735.831335" style="fill: #1f77b4; stroke: #1f77b4"/>
     <use xlink:href="#m03e0490071" x="1081.762138" y="737.588728" style="fill: #1f77b4; stroke: #1f77b4"/>
     <use xlink:href="#m03e0490071" x="1085.658992" y="708.287861" style="fill: #1f77b4; stroke: #1f77b4"/>
     <use xlink:href="#m03e0490071" x="1089.43014" y="709.672352" style="fill: #1f77b4; stroke: #1f77b4"/>
     <use xlink:href="#m03e0490071" x="1093.326994" y="729.760985" style="fill: #1f77b4; stroke: #1f77b4"/>
     <use xlink:href="#m03e0490071" x="1097.098142" y="753.908916" style="fill: #1f77b4; stroke: #1f77b4"/>
     <use xlink:href="#m03e0490071" x="1100.994996" y="756.308796" style="fill: #1f77b4; stroke: #1f77b4"/>
     <use xlink:href="#m03e0490071" x="1104.891849" y="688.790776" style="fill: #1f77b4; stroke: #1f77b4"/>
     <use xlink:href="#m03e0490071" x="1108.411588" y="710.347352" style="fill: #1f77b4; stroke: #1f77b4"/>
     <use xlink:href="#m03e0490071" x="1112.308441" y="709.027392" style="fill: #1f77b4; stroke: #1f77b4"/>
     <use xlink:href="#m03e0490071" x="1116.07959" y="697.307405" style="fill: #1f77b4; stroke: #1f77b4"/>
     <use xlink:href="#m03e0490071" x="1119.976444" y="736.187873" style="fill: #1f77b4; stroke: #1f77b4"/>
     <use xlink:href="#m03e0490071" x="1123.747592" y="771.901" style="fill: #1f77b4; stroke: #1f77b4"/>
     <use xlink:href="#m03e0490071" x="1127.644446" y="782.012808" style="fill: #1f77b4; stroke: #1f77b4"/>
     <use xlink:href="#m03e0490071" x="1131.541299" y="764.82071" style="fill: #1f77b4; stroke: #1f77b4"/>
     <use xlink:href="#m03e0490071" x="1135.312448" y="742.205465" style="fill: #1f77b4; stroke: #1f77b4"/>
     <use xlink:href="#m03e0490071" x="1139.209301" y="725.206299" style="fill: #1f77b4; stroke: #1f77b4"/>
     <use xlink:href="#m03e0490071" x="1142.98045" y="725.756839" style="fill: #1f77b4; stroke: #1f77b4"/>
     <use xlink:href="#m03e0490071" x="1146.877303" y="711.655763" style="fill: #1f77b4; stroke: #1f77b4"/>
     <use xlink:href="#m03e0490071" x="1150.774157" y="703.59405" style="fill: #1f77b4; stroke: #1f77b4"/>
     <use xlink:href="#m03e0490071" x="1154.293895" y="698.238069" style="fill: #1f77b4; stroke: #1f77b4"/>
     <use xlink:href="#m03e0490071" x="1158.190749" y="740.041348" style="fill: #1f77b4; stroke: #1f77b4"/>
     <use xlink:href="#m03e0490071" x="1161.961898" y="734.426993" style="fill: #1f77b4; stroke: #1f77b4"/>
     <use xlink:href="#m03e0490071" x="1165.858751" y="755.963463" style="fill: #1f77b4; stroke: #1f77b4"/>
     <use xlink:href="#m03e0490071" x="1169.6299" y="717.249377" style="fill: #1f77b4; stroke: #1f77b4"/>
     <use xlink:href="#m03e0490071" x="1173.526753" y="744.72285" style="fill: #1f77b4; stroke: #1f77b4"/>
     <use xlink:href="#m03e0490071" x="1177.423607" y="739.921735" style="fill: #1f77b4; stroke: #1f77b4"/>
     <use xlink:href="#m03e0490071" x="1181.194755" y="741.626375" style="fill: #1f77b4; stroke: #1f77b4"/>
     <use xlink:href="#m03e0490071" x="1185.091609" y="734.737768" style="fill: #1f77b4; stroke: #1f77b4"/>
     <use xlink:href="#m03e0490071" x="1188.862757" y="750.732667" style="fill: #1f77b4; stroke: #1f77b4"/>
     <use xlink:href="#m03e0490071" x="1192.759611" y="763.957909" style="fill: #1f77b4; stroke: #1f77b4"/>
     <use xlink:href="#m03e0490071" x="1196.656464" y="732.543424" style="fill: #1f77b4; stroke: #1f77b4"/>
     <use xlink:href="#m03e0490071" x="1200.176203" y="796.975764" style="fill: #1f77b4; stroke: #1f77b4"/>
     <use xlink:href="#m03e0490071" x="1204.073057" y="730.763759" style="fill: #1f77b4; stroke: #1f77b4"/>
     <use xlink:href="#m03e0490071" x="1207.844205" y="708.51337" style="fill: #1f77b4; stroke: #1f77b4"/>
     <use xlink:href="#m03e0490071" x="1211.741059" y="702.967881" style="fill: #1f77b4; stroke: #1f77b4"/>
     <use xlink:href="#m03e0490071" x="1215.512207" y="687.689618" style="fill: #1f77b4; stroke: #1f77b4"/>
     <use xlink:href="#m03e0490071" x="1219.409061" y="647.964091" style="fill: #1f77b4; stroke: #1f77b4"/>
     <use xlink:href="#m03e0490071" x="1223.305914" y="752.514176" style="fill: #1f77b4; stroke: #1f77b4"/>
     <use xlink:href="#m03e0490071" x="1227.077063" y="729.528363" style="fill: #1f77b4; stroke: #1f77b4"/>
     <use xlink:href="#m03e0490071" x="1230.973916" y="758.596039" style="fill: #1f77b4; stroke: #1f77b4"/>
     <use xlink:href="#m03e0490071" x="1234.745065" y="712.87535" style="fill: #1f77b4; stroke: #1f77b4"/>
     <use xlink:href="#m03e0490071" x="1238.641918" y="722.621147" style="fill: #1f77b4; stroke: #1f77b4"/>
     <use xlink:href="#m03e0490071" x="1242.538772" y="719.036526" style="fill: #1f77b4; stroke: #1f77b4"/>
     <use xlink:href="#m03e0490071" x="1246.184216" y="750.910826" style="fill: #1f77b4; stroke: #1f77b4"/>
     <use xlink:href="#m03e0490071" x="1250.081069" y="697.565494" style="fill: #1f77b4; stroke: #1f77b4"/>
     <use xlink:href="#m03e0490071" x="1253.852218" y="725.492239" style="fill: #1f77b4; stroke: #1f77b4"/>
     <use xlink:href="#m03e0490071" x="1257.749071" y="723.280587" style="fill: #1f77b4; stroke: #1f77b4"/>
     <use xlink:href="#m03e0490071" x="1261.52022" y="702.450702" style="fill: #1f77b4; stroke: #1f77b4"/>
     <use xlink:href="#m03e0490071" x="1265.417073" y="728.925392" style="fill: #1f77b4; stroke: #1f77b4"/>
     <use xlink:href="#m03e0490071" x="1269.313927" y="797.330637" style="fill: #1f77b4; stroke: #1f77b4"/>
     <use xlink:href="#m03e0490071" x="1273.085075" y="754.126326" style="fill: #1f77b4; stroke: #1f77b4"/>
     <use xlink:href="#m03e0490071" x="1276.981929" y="727.859483" style="fill: #1f77b4; stroke: #1f77b4"/>
     <use xlink:href="#m03e0490071" x="1280.753077" y="736.741431" style="fill: #1f77b4; stroke: #1f77b4"/>
     <use xlink:href="#m03e0490071" x="1284.649931" y="741.691529" style="fill: #1f77b4; stroke: #1f77b4"/>
     <use xlink:href="#m03e0490071" x="1288.546784" y="714.089908" style="fill: #1f77b4; stroke: #1f77b4"/>
     <use xlink:href="#m03e0490071" x="1292.066523" y="658.158924" style="fill: #1f77b4; stroke: #1f77b4"/>
     <use xlink:href="#m03e0490071" x="1295.963377" y="722.16484" style="fill: #1f77b4; stroke: #1f77b4"/>
     <use xlink:href="#m03e0490071" x="1299.734525" y="728.226769" style="fill: #1f77b4; stroke: #1f77b4"/>
     <use xlink:href="#m03e0490071" x="1303.631379" y="737.42268" style="fill: #1f77b4; stroke: #1f77b4"/>
     <use xlink:href="#m03e0490071" x="1307.402527" y="743.395571" style="fill: #1f77b4; stroke: #1f77b4"/>
     <use xlink:href="#m03e0490071" x="1311.299381" y="755.041291" style="fill: #1f77b4; stroke: #1f77b4"/>
     <use xlink:href="#m03e0490071" x="1315.196234" y="719.594582" style="fill: #1f77b4; stroke: #1f77b4"/>
     <use xlink:href="#m03e0490071" x="1318.967383" y="735.447155" style="fill: #1f77b4; stroke: #1f77b4"/>
     <use xlink:href="#m03e0490071" x="1322.864236" y="724.228046" style="fill: #1f77b4; stroke: #1f77b4"/>
     <use xlink:href="#m03e0490071" x="1326.635385" y="715.956809" style="fill: #1f77b4; stroke: #1f77b4"/>
     <use xlink:href="#m03e0490071" x="1330.532238" y="739.833459" style="fill: #1f77b4; stroke: #1f77b4"/>
     <use xlink:href="#m03e0490071" x="1334.429092" y="743.216962" style="fill: #1f77b4; stroke: #1f77b4"/>
     <use xlink:href="#m03e0490071" x="1337.948831" y="747.113677" style="fill: #1f77b4; stroke: #1f77b4"/>
     <use xlink:href="#m03e0490071" x="1341.845684" y="725.554249" style="fill: #1f77b4; stroke: #1f77b4"/>
     <use xlink:href="#m03e0490071" x="1345.616833" y="730.720296" style="fill: #1f77b4; stroke: #1f77b4"/>
     <use xlink:href="#m03e0490071" x="1349.513686" y="733.274075" style="fill: #1f77b4; stroke: #1f77b4"/>
     <use xlink:href="#m03e0490071" x="1353.284835" y="733.341439" style="fill: #1f77b4; stroke: #1f77b4"/>
     <use xlink:href="#m03e0490071" x="1357.181688" y="754.382803" style="fill: #1f77b4; stroke: #1f77b4"/>
     <use xlink:href="#m03e0490071" x="1361.078542" y="687.384486" style="fill: #1f77b4; stroke: #1f77b4"/>
     <use xlink:href="#m03e0490071" x="1364.84969" y="740.588035" style="fill: #1f77b4; stroke: #1f77b4"/>
     <use xlink:href="#m03e0490071" x="1368.746544" y="734.946015" style="fill: #1f77b4; stroke: #1f77b4"/>
     <use xlink:href="#m03e0490071" x="1372.517692" y="739.124008" style="fill: #1f77b4; stroke: #1f77b4"/>
     <use xlink:href="#m03e0490071" x="1376.414546" y="707.996297" style="fill: #1f77b4; stroke: #1f77b4"/>
     <use xlink:href="#m03e0490071" x="1380.311399" y="754.993937" style="fill: #1f77b4; stroke: #1f77b4"/>
     <use xlink:href="#m03e0490071" x="1383.831138" y="746.839824" style="fill: #1f77b4; stroke: #1f77b4"/>
     <use xlink:href="#m03e0490071" x="1387.727992" y="763.260537" style="fill: #1f77b4; stroke: #1f77b4"/>
     <use xlink:href="#m03e0490071" x="1391.49914" y="752.386479" style="fill: #1f77b4; stroke: #1f77b4"/>
     <use xlink:href="#m03e0490071" x="1395.395994" y="734.779103" style="fill: #1f77b4; stroke: #1f77b4"/>
     <use xlink:href="#m03e0490071" x="1399.167142" y="753.712375" style="fill: #1f77b4; stroke: #1f77b4"/>
     <use xlink:href="#m03e0490071" x="1403.063996" y="718.365807" style="fill: #1f77b4; stroke: #1f77b4"/>
     <use xlink:href="#m03e0490071" x="1406.960849" y="718.538104" style="fill: #1f77b4; stroke: #1f77b4"/>
     <use xlink:href="#m03e0490071" x="1410.731998" y="701.584396" style="fill: #1f77b4; stroke: #1f77b4"/>
     <use xlink:href="#m03e0490071" x="1414.628851" y="721.546528" style="fill: #1f77b4; stroke: #1f77b4"/>
     <use xlink:href="#m03e0490071" x="1418.4" y="733.208995" style="fill: #1f77b4; stroke: #1f77b4"/>
    </g>
   </g>
   <g id="patch_18">
    <path d="M 90.83 816.68 
L 90.83 639.93 
" style="fill: none; stroke: #ffffff; stroke-width: 0.8; stroke-linejoin: miter; stroke-linecap: square"/>
   </g>
   <g id="patch_19">
    <path d="M 1418.4 816.68 
L 1418.4 639.93 
" style="fill: none; stroke: #ffffff; stroke-width: 0.8; stroke-linejoin: miter; stroke-linecap: square"/>
   </g>
   <g id="patch_20">
    <path d="M 90.83 816.68 
L 1418.4 816.68 
" style="fill: none; stroke: #ffffff; stroke-width: 0.8; stroke-linejoin: miter; stroke-linecap: square"/>
   </g>
   <g id="patch_21">
    <path d="M 90.83 639.93 
L 1418.4 639.93 
" style="fill: none; stroke: #ffffff; stroke-width: 0.8; stroke-linejoin: miter; stroke-linecap: square"/>
   </g>
  </g>
 </g>
 <defs>
  <clipPath id="pe190458777">
   <rect x="90.83" y="44.88" width="1327.57" height="176.75"/>
  </clipPath>
  <clipPath id="pe250ff482e">
   <rect x="90.83" y="243.23" width="1327.57" height="176.75"/>
  </clipPath>
  <clipPath id="p516d3c0adf">
   <rect x="90.83" y="441.58" width="1327.57" height="176.75"/>
  </clipPath>
  <clipPath id="p3825b67991">
   <rect x="90.83" y="639.93" width="1327.57" height="176.75"/>
  </clipPath>
 </defs>
</svg>
